SplineFontDB: 3.0
FontName: StickNoBills-Bold
FullName: Stick No Bills
FamilyName: Stick No Bills
Weight: Bold
Copyright: Remove All VKern Pairs
UComments: "2015-2-15: Created with FontForge (http://fontforge.org) The  Free Font Editor"
Version: 1.0
ItalicAngle: 0
UnderlinePosition: -99
UnderlineWidth: 49
Ascent: 800
Descent: 200
InvalidEm: 0
UFOAscent: 800
UFODescent: -200
LayerCount: 2
Layer: 0 0 "Back" 1
Layer: 1 0 "Fore" 0
PreferredKerning: 4
FSType: 0
OS2Version: 0
OS2_WeightWidthSlopeOnly: 0
OS2_UseTypoMetrics: 0
CreationTime: 1446727163
ModificationTime: 1450716626
PfmFamily: 16
TTFWeight: 400
TTFWidth: 5
LineGap: 92
VLineGap: 0
OS2TypoAscent: 800
OS2TypoAOffset: 0
OS2TypoDescent: -200
OS2TypoDOffset: 0
OS2TypoLinegap: 92
OS2WinAscent: 896
OS2WinAOffset: 0
OS2WinDescent: 200
OS2WinDOffset: 0
HheadAscent: 896
HheadAOffset: 0
HheadDescent: -200
HheadDOffset: 0
OS2Vendor: 'PfEd'
OS2UnicodeRanges: 00000002.00000000.00000000.00000000
DEI: 91125
LangName: 1033 "Remove All VKern Pairs" "" "" "" "" "Version 1.0.1" "" "STICK NO BILLS is a trademark of STICK NO BILLS Gallery, Sri Lanka <http://sticknobillsonline.com>" "mooniak <http://mooniak.com>" "Martyn Hodges <allroundboatbuilder@yahoo.com> , Kosala Senavirathne <kosala@mooniak.com>, mooniak <hello@mooniak.com>" "Stick No Bills - is the bespoke typeface of STICK NO BILLS+ISIA Poster Gallery in Galle, Sri Lanka. " "https://github.com/mooniak/stick-no-bills-font" "http://type.mooniak.com/" "This Font Software is licensed under the SIL Open Font License, Version 1.1. This license is available with a FAQ at: http://scripts.sil.org/OFL" "" "" "Stick No Bills" "Regular"
PickledDataWithLists: "(dp1
S'public.glyphOrder'
p2
(lp3
S'A'
aS'Aacute'
p4
aS'Acircumflex'
p5
aS'Adieresis'
p6
aS'Agrave'
p7
aS'Aring'
p8
aS'Atilde'
p9
aS'AE'
p10
aS'B'
aS'C'
aS'Ccedilla'
p11
aS'D'
aS'Eth'
p12
aS'E'
aS'Eacute'
p13
aS'Ecircumflex'
p14
aS'Edieresis'
p15
aS'Egrave'
p16
aS'F'
aS'G'
aS'H'
aS'I'
aS'Iacute'
p17
aS'Icircumflex'
p18

StartChar: tml_A
Encoding: 3 2949 3
GlifName: tml_A_
Width: 1036
VWidth: 0
GlyphClass: 2
Flags: HW
HStem: -127 122<197 401 264 401 264 401 456 607 264 456> 110 125 205 119 373 122 562 122
VStem: 50 122<45.5 100.5 45.5 130> 236 116 509 110 692 122<67 393 150 393 262 393 262 396 262 449> 773 41<262 270 270 270> 864 122<-107 578 -107 578> 864 3
LayerCount: 2
Fore
SplineSet
398.09375 458 m 9
 398.09375 458 273.546875 458 273.546875 458 c 1
 273.546875 458 287 289 463 289 c 256
 553 289 627 346 632 409 c 256
 548 498 l 256
 548 433 508 411 463 411 c 256
 431.8828125 411 398.09375 430 398.09375 458 c 9
274.049804688 515 m 17
 274.049804688 615 386.771484375 695 529 695 c 256
 709 695 814 585 814 393 c 257
 814 262 l 257
 692 262 l 257
 692 396 l 258
 692 502 651 573 529 573 c 256
 423 573 400.416992188 515 400.416992188 515 c 1
 274.049804688 515 l 17
454 150 m 257
 454 270 l 257
 536 270 732 270 814 270 c 257
 815 67 l 257
 815 -35 744 -127 618 -127 c 258
 456 -127 l 256
 456 -5 l 257
 607 -5 l 258
 673 -4 692 33 692 67 c 257
 692 150 l 257
 651 150 495 150 454 150 c 257
50 72 m 256
 50 188 134 271 264 271 c 258
 400 271 l 257
 400 149 l 257
 246 149 l 258
 222 149 172 129 172 72 c 256
 172 19 218 -5 264 -5 c 258
 401 -5 l 257
 401 -127 l 257
 253 -127 l 258
 141 -127 50 -47 50 72 c 256
773 150 m 257
 773 270 l 257
 866 270 l 257
 866 150 l 257
 773 150 l 257
864 -107 m 257
 864 578 l 257
 986 578 l 257
 986 -107 l 257
 864 -107 l 257
EndSplineSet
Validated: 5
PickledDataWithLists: "(dp1
S'com.fontlab.hintData'
p2
(dp3
S'vhints'
p4
(lp5
(dp6
S'position'
p7
L39L
sS'width'
p8
L122L
sa(dp9
g7
L225L
sg8
L116L
sa(dp10
g7
L498L
sg8
L110L
sa(dp11
g7
L681L
sg8
L122L
sa(dp12
g7
L762L
sg8
L41L
sa(dp13
g7
L853L
sg8
L122L
sa(dp14
g7
L853L
sg8
L3L
sasS'hhints'
p15
(lp16
(dp17
g7
L-127L
sg8
L122L
sa(dp18
g7
L110L
sg8
L125L
sa(dp19
g7
L205L
sg8
L119L
sa(dp20
g7
L373L
sg8
L122L
sa(dp21
g7
L562L
sg8
L122L
sass."
EndChar

StartChar: tml_Aa
Encoding: 4 2950 4
GlifName: tml_A_a
Width: 1251
VWidth: 0
GlyphClass: 2
Flags: HW
HStem: -293 122 -127 122 205 119 373 122 562 122
VStem: 39 122 225 116 498 110 681 122 762 41 853 122 853 3 1073 122<-66 21 -120 44>
LayerCount: 2
Fore
SplineSet
683 -136 m 257
 1007 -135 l 258
 1069 -135 1073 -115 1073 -66 c 258
 1073 21 l 258
 1073 67 1070 68 1028 68 c 256
 1028 190 l 257
 1119 190 1195 168 1195 21 c 258
 1195 -66 l 258
 1195 -174 1154 -258 980 -258 c 258
 683 -258 l 257
 683 -136 l 257
EndSplineSet
Refer: 3 2949 N 1 0 0 1 0 0 2
Validated: 5
PickledDataWithLists: "(dp1
S'com.fontlab.hintData'
p2
(dp3
S'vhints'
p4
(lp5
(dp6
S'position'
p7
L39L
sS'width'
p8
L122L
sa(dp9
g7
L225L
sg8
L116L
sa(dp10
g7
L498L
sg8
L110L
sa(dp11
g7
L681L
sg8
L122L
sa(dp12
g7
L762L
sg8
L41L
sa(dp13
g7
L853L
sg8
L122L
sa(dp14
g7
L853L
sg8
L3L
sa(dp15
g7
L1073L
sg8
L122L
sasS'hhints'
p16
(lp17
(dp18
g7
L-293L
sg8
L122L
sa(dp19
g7
L-127L
sg8
L122L
sa(dp20
g7
L205L
sg8
L119L
sa(dp21
g7
L373L
sg8
L122L
sa(dp22
g7
L562L
sg8
L122L
sass."
EndChar

StartChar: tml_Above
Encoding: 5 3064 5
GlifName: tml_A_bove
Width: 1561
VWidth: 0
GlyphClass: 2
Flags: HW
LayerCount: 2
Fore
SplineSet
208 40 m 257
 208 134 l 256
 288 134 346 59 346 7 c 258
 346 -15 l 258
 346 -82 292 -148 208 -148 c 257
 208 -55 l 256
 228 -55 253 -43 253 -6 c 256
 253 23 232 40 208 40 c 257
39 7 m 258
 39 69 104 134 176 134 c 257
 176 40 l 256
 159 40 133 29 133 -6 c 256
 133 -39 158 -55 176 -55 c 257
 176 -148 l 256
 106 -148 39 -85 39 -13 c 258
 39 7 l 258
39 -5 m 256
 39 142 l 258
 39 311 178 359 300 359 c 258
 514 359 l 257
 514 267 l 257
 300 267 l 258
 203 267 133 239 133 141 c 258
 133 -6 l 256
 39 -5 l 256
EndSplineSet
Refer: 156 2999 S 1 0 0 1 303 0 2
Validated: 5
EndChar

StartChar: tml_Ai
Encoding: 6 2960 6
GlifName: tml_A_i
Width: 963
VWidth: 0
GlyphClass: 2
Flags: HW
HStem: -180 122<247 285 247 285 339 373 247 377> 158 122<261 776.5> 307 125<161.5 259 259 300> 569 127<211.5 250.5>
VStem: 39 122<436.5 518.5 472 518.5 482.5 509.5> 54 122<13.5 69.5 13.5 83 13.5 123.5> 301 122<483 499 440.5 518.5> 460 122<-4 118 320 408 371 408 408 464 408 464> 783 122<-3 118 -45 118>
LayerCount: 2
Fore
SplineSet
400 426 m 265
 316 515 l 256
 316 450 276 428 231 428 c 256
 199.8828125 428 168.977277214 444.242376381 166.09375 475 c 0
 166.09375 475 41.546875 475 41.546875 475 c 1
 41.546875 475 55 306 231 306 c 256
 321 306 395 363 400 426 c 265
335 157.167355372 m 25
 335 157.167355372 335 280 335 280 c 1
 656 280 l 0
 656 280 656 157.830578512 656 157.830578512 c 1
 335 157.167355372 l 25
715 157.952479339 m 0
 715 280 l 0
 758 280 786 329 786 389 c 2
 786 389 786 430 786 461 c 257
 786 525 764 567 717 574 c 257
 717 696 l 257
 819 688 909 610 909 461 c 257
 909 387 l 258
 906.827361439 203.412041626 795 157.952479339 715 157.952479339 c 0
285 -180 m 257
 285 -58 l 257
 209 -58 176 -19 176 46 c 256
 176 93 195 157 254 157 c 258
 286 157.066115702 l 25
 286 280 l 0
 261 280 l 258
 106 280 54 163.859205211 54 83 c 258
 54 0 l 258
 54 -103 163 -180 285 -180 c 257
42.0498046875 532 m 0
 42.0498046875 642 154.771484375 712 297 712 c 256
 477 712 582 602 582 410 c 257
 582 326 l 257
 460 326 l 257
 460 413 l 258
 460 518.91015625 415 603 293 603 c 256
 188 603 168.416992188 570 168.416992188 532 c 0
 42.0498046875 532 l 0
339 -180 m 257
 339 -58 l 257
 430 -58 460 -44 460 -4 c 258
 460 118 l 256
 582 118 l 256
 582 -4 l 258
 582 -47 613 -57 663 -57 c 257
 663 -180 l 257
 611 -180 540 -174 526 -130 c 257
 503 -180 415 -180 339 -180 c 257
460 326 m 257
 460 480 l 258
 460 613 570 687 663 696 c 257
 663 573 l 257
 623 565 582 530 582 464 c 258
 582 326 l 257
 460 326 l 257
717 -180 m 257
 717 -57 l 257
 756 -57 783 -40 783 -3 c 258
 783 118 l 257
 905 118 l 257
 905 -3 l 258
 905 -87 839 -180 717 -180 c 257
EndSplineSet
PickledDataWithLists: "(dp1
S'com.fontlab.hintData'
p2
(dp3
S'vhints'
p4
(lp5
(dp6
S'position'
p7
L39L
sS'width'
p8
L122L
sa(dp9
g7
L54L
sg8
L122L
sa(dp10
g7
L301L
sg8
L122L
sa(dp11
g7
L460L
sg8
L122L
sa(dp12
g7
L783L
sg8
L122L
sasS'hhints'
p13
(lp14
(dp15
g7
L-180L
sg8
L122L
sa(dp16
g7
L158L
sg8
L122L
sa(dp17
g7
L307L
sg8
L125L
sa(dp18
g7
L569L
sg8
L127L
sass."
EndChar

StartChar: tml_Anusvara
Encoding: 7 2946 7
GlifName: tml_A_nusvara
Width: 228
VWidth: 0
GlyphClass: 2
Flags: HW
LayerCount: 2
Fore
SplineSet
76 851 m 0
 76 828 95 809 118 809 c 0
 141 809 160 828 160 851 c 0
 160 874 141 893 118 893 c 0
 95 893 76 874 76 851 c 0
28 851 m 0
 28 890 79 941 118 941 c 0
 157 941 208 890 208 851 c 0
 208 812 157 761 118 761 c 0
 79 761 28 812 28 851 c 0
EndSplineSet
Validated: 1
EndChar

StartChar: tml_CI
Encoding: 10 -1 10
GlifName: tml_C_I_
Width: 923
VWidth: 0
GlyphClass: 2
Flags: HW
LayerCount: 2
Fore
SplineSet
683 686 m 257
 683 808 l 257
 830 808 881 691 881 590 c 258
 881 -2 l 257
 759 -2 l 257
 759 587 l 258
 759 649 730 686 683 686 c 257
435 588 m 257
 435 588 l 257
 435 692 482 808 629 808 c 256
 629 808 l 257
 629 686 l 256
 629 686 l 256
 582 686 558 649 558 588 c 256
 435 588 l 257
EndSplineSet
Refer: 16 2970 N 1 0 0 1 18 0 2
EndChar

StartChar: tml_CI.alt
Encoding: 11 -1 11
GlifName: tml_C_I_.alt
Width: 972
VWidth: 0
GlyphClass: 2
Flags: HW
LayerCount: 2
Fore
SplineSet
31.021484375 527 m 1
 46.1572265625 741.915039062 237.414275256 856.490420966 445.328 855 c 257
 445.328 855 l 257
 445.328 733 l 256
 445.328 733 l 257
 313.762959255 723.60249709 167.905273438 685.994140625 156.46875 527 c 0
 155 527 31.021484375 527 31.021484375 527 c 1
156.961914062 463 m 0
 159.830078125 431.55859375 167.63671875 390.374023438 179 351 c 257
 80 258 l 257
 50.357421875 330.759765625 30.4619140625 463 30.4619140625 463 c 1
 30.4619140625 463 158.671875 462 156.961914062 463 c 0
499.328 733 m 257
 499.328 855 l 257
 699.328 855 931.328 751 932.328 429 c 258
 932.328125 1 l 261
 810.328125 1 l 261
 810.328 426 l 258
 810.328 697 601.328 733 499.328 733 c 257
EndSplineSet
Refer: 16 2970 N 1 0 0 1 24.3284 0 2
EndChar

StartChar: tml_CIi
Encoding: 12 -1 12
GlifName: tml_C_I_i
Width: 832
VWidth: 0
GlyphClass: 2
Flags: HW
LayerCount: 2
Fore
SplineSet
420 472.65625 m 257
 420 596 l 256
 346 755 417.393554688 943 620 943 c 256
 848 943 839.690429688 630 641 630 c 256
 596 630 549 668 539 689 c 257
 610 772 l 256
 610 756 619 739 644 739 c 256
 667 739 678 758 678 779 c 256
 678 794 667 828 610 828 c 257
 538.676757812 827.5703125 469 753 544 594.7265625 c 256
 544 472.65625 l 257
 420 472.65625 l 257
EndSplineSet
Refer: 16 2970 N 1 0 0 1 1 0 2
EndChar

StartChar: tml_CIi.alt
Encoding: 13 -1 13
GlifName: tml_C_I_i.alt
Width: 825
VWidth: 0
GlyphClass: 2
Flags: HW
LayerCount: 2
Fore
SplineSet
96.0264 267 m 257
 -36.626 594.51 87.7305 814.068 246.026 900 c 256
 351.026 957 442.026 976 579.026 960 c 257
 704.026 945 782.883 865.044 785.026 770 c 256
 786.689 696.283 736.026 614 651.026 614 c 256
 606.026 614 566.026 623 530.026 665 c 257
 584.026 763 l 256
 584.026 747 593.026 730 618.026 730 c 256
 641.026 730 652.026 749 652.026 770 c 256
 652.026 785 644.029 813.043 589.026 828 c 256
 475.026 859 369.132 822.391 306.026 791 c 256
 172.683 724.671 129.51 587.023 195.026 360 c 257
 96.0264 267 l 257
EndSplineSet
Refer: 16 2970 N 1 0 0 1 31.0262 0 2
EndChar

StartChar: tml_CU
Encoding: 14 -1 14
GlifName: tml_C_U_
Width: 809
VWidth: 0
GlyphClass: 2
Flags: HW
HStem: -1 123<225.5 270 225.5 270 323 356 225.5 406.5> 249 62<606 729 606 756 596 729> 348 23<236 287> 470 122
VStem: 40 121<157.5 213.5 157.5 218 157.5 272> 165 163<473 589 473 595 589 589 473 595> 165 122<348 589> 420 122<187 191 191 591> 596 160<249 371 249 371> 606 122
LayerCount: 2
Fore
SplineSet
165 348 m 257
 165 589 l 257
 288 589 l 257
 287 348 l 257
 165 348 l 257
40 211 m 1
 40 324.535359526 144.971802986 371 236 371 c 258
 556 371 l 257
 556 249 l 257
 239 249 l 258
 186.101268418 249 167.361177009 242.168271965 162.451552474 211 c 0
 162 208 40 211 40 211 c 1
270 -1 m 257
 270 122 l 257
 190.094433278 122 165.807863138 126.030362071 161.678784178 171 c 0
 161 169 40 171 40 171 c 1
 40 69.4350327963 102.540479942 -1 270 -1 c 257
323 -1 m 257
 323 122 l 257
 389 122 420 141 420 187 c 258
 420 591 l 257
 542 591 l 257
 542 191 l 258
 542 95 490 -1 323 -1 c 257
165 473 m 257
 165 595 l 257
 328 595 l 257
 328 473 l 257
 165 473 l 257
382 473 m 257
 382 595 l 257
 694 595 l 257
 694 473 l 257
 382 473 l 257
611 249 m 257
 611 371 l 257
 786 371 l 257
 786 249 l 257
 611 249 l 257
624 0 m 257
 624 311 l 257
 747 311 l 257
 747 0 l 257
 624 0 l 257
EndSplineSet
PickledDataWithLists: "(dp1
S'com.fontlab.hintData'
p2
(dp3
S'vhints'
p4
(lp5
(dp6
S'position'
p7
L40L
sS'width'
p8
L121L
sa(dp9
g7
L165L
sg8
L163L
sa(dp10
g7
L165L
sg8
L122L
sa(dp11
g7
L420L
sg8
L122L
sa(dp12
g7
L596L
sg8
L160L
sa(dp13
g7
L606L
sg8
L122L
sasS'hhints'
p14
(lp15
(dp16
g7
L-1L
sg8
L123L
sa(dp17
g7
L249L
sg8
L62L
sa(dp18
g7
L348L
sg8
L23L
sa(dp19
g7
L470L
sg8
L122L
sass."
EndChar

StartChar: tml_CUu
Encoding: 15 -1 15
GlifName: tml_C_U_u
Width: 1245
VWidth: 0
GlyphClass: 2
Flags: HW
HStem: -198 122 -1 123<474.5 519 474.5 519 572 605 474.5 655.5> 249 62<855 978 855 1038> 348 23<485 536> 360 122<286 322 279.5 323> 470 122
VStem: 123 123<29 268> 289 121<157.5 213.5 157.5 218 157.5 272> 414 163<473 589 473 595 589 589 473 595> 414 122<348 589> 669 122<187 191 191 591> 855 122 1072 122<6 47 47 65 -48.5 72>
LayerCount: 2
Fore
SplineSet
290 207 m 1
 291 306 321 362 506 362 c 2
 1035 362 l 257
 1035 249 l 257
 488 249 l 258
 435.1015625 249 411.451171875 240 411.451171875 207 c 0
 290 207 l 1
519 -1 m 257
 519 122 l 257
 443.453125 122 411.540039062 124 411.540039062 164 c 0
 411.540039062 164 289 164 289 164 c 1
 289 68.6879074681 356.2271838 -1 519 -1 c 257
414 348 m 257
 414 589 l 257
 537 589 l 257
 536 348 l 257
 414 348 l 257
414 473 m 257
 414 595 l 257
 577 595 l 257
 577 473 l 257
 414 473 l 257
631 473 m 257
 631 595 l 257
 943 595 l 257
 943 473 l 257
 631 473 l 257
572 -1 m 257
 572 122 l 257
 638 122 669 141 669 187 c 258
 669 591 l 257
 791 591 l 257
 791 191 l 258
 791 95 739 -1 572 -1 c 257
855 0 m 257
 855 311 l 257
 978 311 l 257
 978 0 l 257
 855 0 l 257
618 -208 m 257
 618 -86 l 257
 1007 -86 l 258
 1043 -86 1072 -42 1072 6 c 258
 1072 47 l 258
 1072 97 1052 94 1031 94 c 257
 1031 215 l 257
 1154 215 1194 183 1194 65 c 258
 1194 -45 l 258
 1194 -112 1134 -209 1008 -209 c 258
 618 -208 l 257
563 -208 m 257
 563 -86 l 257
 263 -86 l 258
 199 -86 176 -36 176 28 c 258
 176 268 l 258
 176 304 179 360 253 360 c 256
 252 482 l 256
 167 482 53 435 53 272 c 258
 53 29 l 258
 53 -110 118.008886689 -206.591800274 247 -207 c 258
 563 -208 l 257
EndSplineSet
PickledDataWithLists: "(dp1
S'com.fontlab.hintData'
p2
(dp3
S'vhints'
p4
(lp5
(dp6
S'position'
p7
L39L
sS'width'
p8
L123L
sa(dp9
g7
L205L
sg8
L121L
sa(dp10
g7
L330L
sg8
L163L
sa(dp11
g7
L330L
sg8
L122L
sa(dp12
g7
L585L
sg8
L122L
sa(dp13
g7
L771L
sg8
L122L
sa(dp14
g7
L988L
sg8
L122L
sasS'hhints'
p15
(lp16
(dp17
g7
L-198L
sg8
L122L
sa(dp18
g7
L-1L
sg8
L123L
sa(dp19
g7
L249L
sg8
L62L
sa(dp20
g7
L348L
sg8
L23L
sa(dp21
g7
L360L
sg8
L122L
sa(dp22
g7
L470L
sg8
L122L
sass."
EndChar

StartChar: tml_Ca
Encoding: 16 2970 16
GlifName: tml_C_a
Width: 744
VWidth: 0
GlyphClass: 2
Flags: HW
HStem: -1 123<224.5 269 322 355 224.5 405.5> 249 122<235 238 238 643> 348 23<235 286> 470 125<164 327 164 327 164 381 381 688> 470 118<164 541 381 541 419 541 419 688>
VStem: 39 121<157.5 213.5 157.5 218 157.5 272> 164 163<470 586 470 595 586 586 470 595> 164 122<348 586> 419 122<187 191 191 588>
AnchorPoint: "tml_virama" 372 -1 basechar 0
LayerCount: 2
Fore
SplineSet
164 348 m 257
 164 586 l 257
 287 586 l 257
 286 348 l 257
 164 348 l 257
278 -1 m 257
 278 121 l 257
 195.227539062 121 160.310546875 128 160.310546875 163 c 0
 39 163 l 1
 39 68.4239884551 93.9603666093 0.0224424077263 278 -1 c 257
331 -1 m 257
 331 121 l 257
 397 121 419 141 419 187 c 258
 419 588 l 257
 541 588 l 257
 541 191 l 258
 541 95 498 -1 331 -1 c 257
381 470 m 257
 381 589 l 257
 688 589 l 257
 688 470 l 257
 381 470 l 257
164 470 m 257
 164 589 l 257
 327 589 l 257
 327 470 l 257
 164 470 l 257
39 213 m 1
 39 324.969782234 145.400317158 371 235 371 c 258
 643 371 l 257
 643 249 l 257
 238 249 l 258
 180 249 161.451171875 242 161.451171875 213 c 0
 161.451171875 213 39 213 39 213 c 1
EndSplineSet
PickledDataWithLists: "(dp1
S'com.fontlab.hintData'
p2
(dp3
S'vhints'
p4
(lp5
(dp6
S'position'
p7
L39L
sS'width'
p8
L121L
sa(dp9
g7
L164L
sg8
L163L
sa(dp10
g7
L164L
sg8
L122L
sa(dp11
g7
L419L
sg8
L122L
sasS'hhints'
p12
(lp13
(dp14
g7
L-1L
sg8
L123L
sa(dp15
g7
L249L
sg8
L122L
sa(dp16
g7
L348L
sg8
L23L
sa(dp17
g7
L470L
sg8
L125L
sa(dp18
g7
L470L
sg8
L118L
sass."
EndChar

StartChar: tml_Credit
Encoding: 17 3063 17
GlifName: tml_C_redit
Width: 1140
VWidth: 0
GlyphClass: 2
Flags: W
LayerCount: 2
Fore
SplineSet
835 268 m 257
 835 336 l 257
 929 336 976 259 977 197 c 257
 977 69 l 257
 1004 69 l 257
 1004 1 l 257
 892 1 l 257
 892 69 l 257
 896 70 910 71 910 81 c 258
 910 197 l 257
 909 235 878 268 835 268 c 257
39 149 m 258
 39 221 l 258
 38 325 160 360 210 360 c 257
 210 238 l 256
 181 238 163 218 163 182 c 256
 163 145 180 123 210 123 c 257
 210 1 l 256
 108 1 39 96 39 149 c 258
265 1 m 257
 265 123 l 256
 299 123 318 146 317 182 c 256
 316 216 305 238 265 238 c 257
 265 360 l 256
 364 360 439 281 439 220 c 258
 439 148 l 258
 439 86 364 1 265 1 c 257
662 84 m 258
 662 122 l 258
 662 180 729 200 757 200 c 257
 757 132 l 256
 741 132 731 120 731 100 c 256
 731 81 739 68 757 68 c 257
 757 0 l 256
 701 0 662 51 662 84 c 258
788 0 m 257
 788 68 l 257
 806 68 814 79 814 100 c 256
 814 121 805 132 788 132 c 257
 788 200 l 256
 841 200 881 153 881 124 c 258
 881 85 l 258
 881 50 848 0 788 0 c 257
39 228 m 257
 39 281 l 258
 39 396 101 595 304 595 c 257
 304 472 l 257
 217 472 177 406 170 329 c 256
 165 272 45 258 39 228 c 257
662 125 m 257
 662 169 l 257
 662 240 690 336 806 336 c 257
 806 268 l 257
 770 268 738 244 737 197 c 256
 662 125 l 257
484 0 m 257
 484 577 l 257
 606 577 l 257
 606 0 l 257
 484 0 l 257
359 472 m 257
 359 595 l 257
 707 595 l 257
 707 472 l 257
 359 472 l 257
584 132 m 257
 584 199 l 257
 692 199 l 257
 692 132 l 257
 584 132 l 257
1034 1 m 257
 1034 330 l 257
 1102 330 l 257
 1102 1 l 257
 1034 1 l 257
EndSplineSet
Validated: 37
EndChar

StartChar: tml_Day
Encoding: 18 3059 18
GlifName: tml_D_ay
Width: 972
VWidth: 0
GlyphClass: 2
Flags: HW
LayerCount: 2
Fore
SplineSet
266 0 m 257
 266 122 l 257
 298 123 313 142 313 180 c 256
 313 218 297 237 266 237 c 257
 266 359 l 256
 362 359 435 298 435 224 c 258
 435 152 l 258
 436 89 375 0 266 0 c 257
39 151 m 258
 39 220 l 258
 38 324 161 359 211 359 c 257
 211 237 l 256
 182 237 164 218 164 181 c 256
 164 147 178 122 211 122 c 257
 211 0 l 256
 96 0 39 72 39 151 c 258
39 226 m 257
 39 305 l 257
 39 433 90 605 300 605 c 257
 300 483 l 257
 236 483 177 439 175 354 c 256
 39 226 l 257
351 483 m 257
 351 605 l 257
 520 605 607 466 608 355 c 257
 608 123 l 257
 934 123 l 257
 934 0 l 257
 454 0 l 257
 454 123 l 257
 461 124 487 127 487 146 c 258
 487 354 l 257
 486 423 428 483 351 483 c 257
EndSplineSet
Validated: 37
EndChar

StartChar: tml_Debit
Encoding: 19 3062 19
GlifName: tml_D_ebit
Width: 706
VWidth: 0
GlyphClass: 2
Flags: W
LayerCount: 2
Fore
SplineSet
255 -164 m 257
 306 -164 301 -126 301 -81 c 258
 301 21 l 257
 301 239 l 257
 423 239 l 256
 423 18 l 256
 423 -81 l 258
 423 -159 419 -258 255 -258 c 257
 255 -164 l 257
39 -126 m 258
 39 -57 102 -28 190 -28 c 258
 545 -28 l 257
 545 381 l 256
 667 381 l 256
 667 -121 l 257
 190 -121 l 258
 150 -121 151 -164 189 -164 c 258
 202 -164 l 257
 202 -258 l 257
 189 -258 l 258
 156 -258 40 -254 39 -159 c 258
 39 -126 l 258
48 146 m 258
 48 595 l 257
 170 595 l 257
 170 146 l 258
 170 132 176 119 202 119 c 257
 202 0 l 257
 102 0 48 68 48 146 c 258
256 0 m 257
 256 119 l 257
 280 119 301 126 301 145 c 258
 301 487 l 257
 423 487 l 257
 423 145 l 258
 423 -10 351 0 256 0 c 257
EndSplineSet
Validated: 37
EndChar

StartChar: tml_E
Encoding: 20 2958 20
GlifName: tml_E_
Width: 761
VWidth: 0
GlyphClass: 2
Flags: W
HStem: 1 122<192.367 229 284 324.2> 238 122<191.253 229 284 324.494> 472 123<253.33 323 378 503 625 736> 472 105<503 625>
VStem: 58 171<238 360> 58 131<309.525 404.785> 58 124<130.613 231.073> 336 122<133.099 228.32> 503 122<0 577>
LayerCount: 2
Fore
SplineSet
58 179 m 258xc380
 58 221 l 258xc380
 57 325 179 360 229 360 c 257
 229 238 l 256xc980
 200 238 182 218 182 182 c 256xc380
 182 145 199 123 229 123 c 257
 229 1 l 256xc980
 127 1 58 69 58 179 c 258xc380
284 1 m 257
 284 123 l 256
 318 123 337 146 336 182 c 256
 335 216 324 238 284 238 c 257
 284 360 l 256
 399 360 458 310 458 220 c 258
 458 148 l 258
 458 86 383 1 284 1 c 257
58 228 m 257
 58 281 l 258xe980
 58 396 120 595 323 595 c 257
 323 472 l 257
 236 472 196 406 189 329 c 256xe580
 184 272 64 258 58 228 c 257
503 0 m 257
 503 577 l 257
 625 577 l 257xd180
 625 0 l 257
 503 0 l 257
378 472 m 257xe180
 378 595 l 257
 736 595 l 257
 736 472 l 257
 378 472 l 257xe180
EndSplineSet
Validated: 37
PickledDataWithLists: "(dp1
S'com.fontlab.hintData'
p2
(dp3
S'vhints'
p4
(lp5
(dp6
S'position'
p7
L39L
sS'width'
p8
L171L
sa(dp9
g7
L39L
sg8
L131L
sa(dp10
g7
L39L
sg8
L124L
sa(dp11
g7
L317L
sg8
L123L
sa(dp12
g7
L484L
sg8
L123L
sasS'hhints'
p13
(lp14
(dp15
g7
L1L
sg8
L122L
sa(dp16
g7
L238L
sg8
L123L
sa(dp17
g7
L472L
sg8
L123L
sa(dp18
g7
L472L
sg8
L105L
sass."
EndChar

StartChar: tml_Ee
Encoding: 21 2959 21
GlifName: tml_E_e
Width: 761
VWidth: 0
GlyphClass: 2
Flags: HW
HStem: 1 122 238 123 472 105 472 123
VStem: 58 124 58 131 58 171 336 123 503 123<1 577> 503 123<1 577>
LayerCount: 2
Fore
SplineSet
334 -176 m 257
 503 32 l 257
 503 577 l 257
 628 577 l 257
 626 1 l 256
 478 -176 l 257
 334 -176 l 257
EndSplineSet
Refer: 20 2958 N 1 0 0 1 0 0 2
Validated: 5
PickledDataWithLists: "(dp1
S'com.fontlab.hintData'
p2
(dp3
S'vhints'
p4
(lp5
(dp6
S'position'
p7
L39L
sS'width'
p8
L124L
sa(dp9
g7
L39L
sg8
L131L
sa(dp10
g7
L39L
sg8
L171L
sa(dp11
g7
L317L
sg8
L123L
sa(dp12
g7
L484L
sg8
L123L
sa(dp13
g7
L484L
sg8
L123L
sasS'hhints'
p14
(lp15
(dp16
g7
L1L
sg8
L122L
sa(dp17
g7
L238L
sg8
L123L
sa(dp18
g7
L472L
sg8
L105L
sa(dp19
g7
L472L
sg8
L123L
sass."
EndChar

StartChar: tml_Four
Encoding: 24 3050 24
GlifName: tml_F_our
Width: 908
VWidth: 0
GlyphClass: 2
Flags: W
LayerCount: 2
Fore
SplineSet
39 157 m 258
 39 218 l 258
 39 326 149 371 235 371 c 258
 856 371 l 257
 856 249 l 257
 238 249 l 258
 174 249 160 239 160 188 c 256
 160 127 180 122 269 122 c 257
 269 -1 l 257
 112 0 39 68 39 157 c 258
322 -1 m 257
 322 122 l 257
 388 122 419 141 419 187 c 258
 419 588 l 257
 541 588 l 257
 541 191 l 258
 541 95 489 -1 322 -1 c 257
164 348 m 257
 164 586 l 257
 287 586 l 257
 286 348 l 257
 164 348 l 257
164 470 m 257
 164 595 l 257
 327 595 l 257
 327 470 l 257
 164 470 l 257
381 470 m 257
 381 595 l 257
 688 595 l 257
 688 470 l 257
 381 470 l 257
742 249 m 257
 742 487 l 257
 865 487 l 257
 864 249 l 257
 742 249 l 257
EndSplineSet
Validated: 5
EndChar

StartChar: tml_HI
Encoding: 25 -1 25
GlifName: tml_H_I_
Width: 1649
VWidth: 0
GlyphClass: 2
Flags: HW
LayerCount: 2
Fore
SplineSet
978.009765625 566 m 257
 978.009765625 566 l 257
 978.009765625 777 1078 816 1342.00976562 816 c 256
 1342.00976562 816 l 257
 1342.00976562 694 l 256
 1342.00976562 694 l 256
 1171 694 1101.00976562 672 1101.00976562 566 c 256
 978.009765625 566 l 257
1396.00976562 694 m 257
 1396.00976562 816 l 257
 1547.00976562 816 1587.00976562 701 1587.00976562 598 c 258
 1587.00976562 1 l 257
 1465.00976562 1 l 257
 1465.00976562 595 l 258
 1465.00976562 657 1451.00976562 694 1396.00976562 694 c 257
EndSplineSet
Refer: 29 3001 N 1 0 0 1 17 0 2
Validated: 5
EndChar

StartChar: tml_HIi
Encoding: 26 -1 26
GlifName: tml_H_I_i
Width: 1415
VWidth: 0
GlyphClass: 2
Flags: HW
LayerCount: 2
Fore
SplineSet
974 573.65625 m 257
 974 653 l 256
 900 812 971.393554688 1000 1174 1000 c 256
 1402 1000 1393.69042969 687 1195 687 c 256
 1150 687 1103 725 1093 746 c 257
 1164 829 l 256
 1164 813 1173 796 1198 796 c 256
 1221 796 1232 815 1232 836 c 256
 1232 851 1221 885 1164 885 c 257
 1092.67675781 884.5703125 1023 810 1098 651.7265625 c 256
 1098 573.65625 l 257
 974 573.65625 l 257
EndSplineSet
Refer: 29 3001 N 1 0 0 1 9 0 2
EndChar

StartChar: tml_HU
Encoding: 27 -1 27
GlifName: tml_H_U_
Width: 1766
VWidth: 0
GlyphClass: 2
Flags: HW
LayerCount: 2
Fore
SplineSet
1177.00976562 482 m 257
 1177.00976562 606 l 257
 1528.00976562 606 l 258
 1638.94042969 604.67578125 1732.00976562 577 1732.00976562 444 c 258
 1732.00976562 434 l 258
 1732.00976562 330 1644.00976562 279 1589.00976562 279 c 258
 1560.00976562 279 l 258
 1491.00976562 279 1420.00976562 349 1420.00976562 434 c 257
 1542.00976562 434 l 256
 1542.00976562 414 1554.00976562 401 1576.00976562 401 c 256
 1599.00976562 401 1610.00976562 415 1610.00976562 433 c 256
 1610.00976562 471 1576.96972656 481.326171875 1521.00976562 482 c 258
 1177.00976562 482 l 257
EndSplineSet
Refer: 29 3001 N 1 0 0 1 0 0 2
Validated: 5
EndChar

StartChar: tml_HUu
Encoding: 28 -1 28
GlifName: tml_H_U_u
Width: 1899
VWidth: 0
GlyphClass: 2
Flags: HW
LayerCount: 2
Fore
SplineSet
1177.00976562 482 m 257
 1177.00976562 604 l 257
 1501.00976562 604 l 258
 1612.00976562 604 1708.00976562 581 1708.00976562 448 c 258
 1708.00976562 438 l 258
 1708.00976562 334 1620.00976562 283 1565.00976562 283 c 258
 1536.00976562 283 l 258
 1467.00976562 283 1396.00976562 353 1396.00976562 438 c 257
 1518.00976562 438 l 256
 1518.00976562 418 1530.00976562 405 1552.00976562 405 c 256
 1575.00976562 405 1586.00976562 419 1586.00976562 437 c 256
 1586.00976562 475 1553.00976562 482 1497.00976562 482 c 258
 1177.00976562 482 l 257
1397.00976562 604 m 260
 1519.00976562 604 l 261
 1519.00976562 670 1588.00976562 683 1626.00976562 683 c 256
 1665.00976562 683 1736.00976562 668 1736.00976562 608 c 258
 1736.00976562 284 l 258
 1736.00976562 249 1718.00976562 226 1680.00976562 226 c 258
 1621.00976562 226 l 256
 1621.00976562 134 l 256
 1680.00976562 134 l 258
 1785.00976562 134 1859.00976562 179 1859.00976562 284 c 258
 1859.00976562 608 l 258
 1859.00976562 713 1772.00976562 805 1626.00976562 805 c 256
 1494.00976562 805 1397.00976562 714 1397.00976562 604 c 260
EndSplineSet
Refer: 29 3001 N 1 0 0 1 0 0 2
Validated: 5
EndChar

StartChar: tml_Ha
Encoding: 29 3001 29
GlifName: tml_H_a
Width: 1409
VWidth: 0
GlyphClass: 2
Flags: HW
HStem: -210 122<242.556 308 1122 1192.9> 0 123<184.324 221 276 314.598 464 496.925 618 665> 237 122<186.474 221 276 314.996> 474 122<239.075 307 361 440.231> 481 123<847.036 872 926 964.743 1085.53 1125 1177 1216.49>
VStem: 49 172<117.935 122 237 359> 49 125<130.36 224.825 226 228.444> 102 122<-311 -222.636> 322 123<127.381 231.505> 464 201<0 123> 497 121<125.125 418.819> 719 124<0 479.363> 965 123<0 479.197> 1220 122<-59.2922 70 458 478.215>
AnchorPoint: "tml_virama" 1021 0 basechar 0
LayerCount: 2
Fore
SplineSet
1220 272 m 17
 1220 458 l 258
 1220 479 1199 482 1177 482 c 257
 1177 604 l 257xe89c
 1290 604 1341 528 1342 473 c 258
 1342 272 l 1
 1220 272 l 17
361 474 m 257xf0bc
 361 596 l 257
 530.176757812 596 616.953125 481.998046875 618 355 c 257
 618 123 l 257xf0bc
 665 123 l 257
 665 0 l 257
 464 0 l 257
 464 123 l 257xf0dc
 471 124 497 127 497 146 c 258
 497 354 l 257
 495.974609375 423.732421875 437.922851562 474 361 474 c 257xf0bc
926 481 m 257xe89c
 926 604 l 257
 972 604 1002 595 1026 574 c 257
 1054 597 1086 604 1125 604 c 257
 1125 482 l 257
 1107 482 1085 479 1085 457 c 258
 1088 0 l 257
 965 -1 l 257
 965 457 l 258
 965 471 952 481 926 481 c 257xe89c
49 151 m 256xe29c
 49 193 50 140 49 220 c 256xe29c
 48 324 171 359 221 359 c 257
 221 237 l 256xe49c
 192 237 174 210 174 181 c 256xe29c
 174 149 188 122 221 122 c 257
 221 0 l 256xe49c
 119 0 49 91 49 151 c 256xe29c
276 0 m 257
 276 122 l 256
 317 122 323 150 322 181 c 256
 321 208 318 237 276 237 c 257
 276 359 l 256
 372 359 445 276 445 224 c 258
 445 152 l 258
 446 89 385 0 276 0 c 257
719 0 m 257
 719 477 l 258
 719 527 760 604 872 604 c 257
 872 481 l 257xe89c
 847 481 843 469 843 456 c 258
 843 0 l 257
 719 0 l 257
49 226 m 257xf29c
 49 282 l 258xf49c
 49 374.994140625 79.005859375 596 307 596 c 257
 307 474 l 257
 241.887695312 474 192.224609375 432.383789062 185 356 c 256
 180 299 55 256 49 226 c 257xf29c
1342 217 m 9xe19c
 1220 217 l 1
 1220 70 l 258
 1220 -66 1194 -98 1122 -98 c 256
 960 -98 400 -98 308 -98 c 256
 152.393554688 -98 102 -157.974609375 102 -311 c 257
 224 -311 l 257
 224 -237.724609375 239.41796875 -210 282 -210 c 258
 1149 -210 l 258
 1293 -210 1342 -118 1342 70 c 258
 1342 217 l 9xe19c
EndSplineSet
Validated: 37
PickledDataWithLists: "(dp1
S'com.fontlab.hintData'
p2
(dp3
S'vhints'
p4
(lp5
(dp6
S'position'
p7
L39L
sS'width'
p8
L172L
sa(dp9
g7
L39L
sg8
L125L
sa(dp10
g7
L92L
sg8
L122L
sa(dp11
g7
L312L
sg8
L123L
sa(dp12
g7
L487L
sg8
L121L
sa(dp13
g7
L731L
sg8
L129L
sa(dp14
g7
L982L
sg8
L122L
sa(dp15
g7
L1236L
sg8
L122L
sasS'hhints'
p16
(lp17
(dp18
g7
L-155L
sg8
L122L
sa(dp19
g7
L0L
sg8
L123L
sa(dp20
g7
L237L
sg8
L123L
sa(dp21
g7
L474L
sg8
L122L
sa(dp22
g7
L481L
sg8
L123L
sass."
EndChar

StartChar: tml_Hundred
Encoding: 30 3057 30
GlifName: tml_H_undred
Width: 844
VWidth: 0
GlyphClass: 2
Flags: W
LayerCount: 2
Fore
SplineSet
581 0 m 257
 581 511 l 257
 703 511 l 256
 703 0 l 256
 581 0 l 257
498 483 m 257
 498 606 l 257
 806 606 l 257
 806 483 l 257
 498 483 l 257
39 0 m 257
 39 479 l 258
 39 529 79 606 191 606 c 257
 191 483 l 257
 166 483 160 471 160 458 c 258
 163 0 l 257
 39 0 l 257
245 483 m 257
 245 606 l 257
 291 606 321 597 345 576 c 257
 373 599 405 606 444 606 c 257
 444 484 l 257
 426 484 405 481 405 459 c 258
 407 0 l 257
 285 0 l 257
 282 458 l 258
 282 472 271 483 245 483 c 257
EndSplineSet
Validated: 5
EndChar

StartChar: tml_I
Encoding: 31 2951 31
GlifName: tml_I_
Width: 1194
VWidth: 0
GlyphClass: 2
Flags: HW
HStem: -178 240<225 264 275 385> -178 122<208.585 275 574 785.795> 100 119<233 275 375 517 572 809 931 996.316> 238 122<530.43 642.1> 522 123<551.889 740.243> 780 123<537.248 796.859>
VStem: 61 122<-28.8541 73.9391> 389 122<381.565 484.879> 809 122<-34.3696 100 251 448.722> 1018 119<-31.0123 76.3066> 1020 152<246 476.789>
LayerCount: 2
Fore
SplineSet
666 447 m 256
 666 382 626 360 581 360 c 256
 549.8828125 360 516.09375 370 516.09375 407 c 0
 391.546875 407 l 1
 391.546875 407 405 238 581 238 c 256
 671 238 745 295 750 358 c 256
 666 447 l 256
392.049804688 464 m 0
 407.168945312 569.0625 504.771484375 674 647 674 c 256
 827 674 932 534 932 342 c 257
 932 261 l 257
 810 261 l 257
 810 345 l 258
 810 451 769 552 647 552 c 256
 541 552 518.416992188 464 518.416992188 464 c 1
 518.416992188 464 390 464 392.049804688 464 c 0
623 779 m 1
 623 902 l 1
 350.442932494 902.813603187 178.023278217 682.748535211 176.385058965 355.999982405 c 0
 176.009742283 281.14175909 184.598229435 200.684040548 203 116 c 257
 350 134 l 257
 322.326133762 209.003716432 308.255297053 290.718352828 308.255297053 370.000006725 c 0
 308.255297053 598 410.122473453 779 623 779 c 1
518 -177 m 257
 518 -56 l 257
 275 -56 l 258x7f80
 229.023859839 -56 183 -32 183 21 c 256
 183 78 233 99 257 99 c 258
 517 99 l 257
 517 221 l 257
 275 221 l 258
 145 221 61 137 61 21 c 256
 61 -98 152.001953125 -178.439453125 264 -178 c 258xbf80
 518 -177 l 257
574 -178 m 256
 574 -56 l 257
 724 -56 l 258
 790 -55 809 -17 809 17 c 257
 809 100 l 257
 768 100 613 100 572 100 c 257
 572 219 l 257
 654 219 849 219 931 219 c 257
 932 17 l 257
 932 -85 862 -178 736 -178 c 258
 574 -178 l 256
897 -169 m 257
 954 -49 l 257
 1000 -37 1018 -22 1018 24 c 256
 1018 84 970 100 931 100 c 257
 931 219 l 257
 1070 219 1137 149 1137 36 c 258
 1137 2 l 257x3fc0
 1137 -85 1049 -188 897 -169 c 257
231 61 m 257
 267 -27 304 -54 366 -119 c 256
 487 -64 l 257
 411 -30 383 13 361 63 c 257xbf80
 231 61 l 257
675 778.484375 m 0
 675 902.27734375 l 1
 1016 902.27734375 1136 750 1136 284 c 257
 1010 286 l 257x3fa0
 1010 655.654296875 954 778.484375 675 778.484375 c 0
EndSplineSet
PickledDataWithLists: "(dp1
S'com.fontlab.hintData'
p2
(dp3
S'vhints'
p4
(lp5
(dp6
S'position'
p7
L39L
sS'width'
p8
L121L
sa(dp9
g7
L342L
sg8
L89L
sa(dp10
g7
L659L
sg8
L54L
sa(dp11
g7
L784L
sg8
L122L
sa(dp12
g7
L944L
sg8
L122L
sa(dp13
g7
L981L
sg8
L123L
sasS'hhints'
p14
(lp15
(dp16
g7
L-141L
sg8
L119L
sa(dp17
g7
L35L
sg8
L121L
sa(dp18
g7
L131L
sg8
L11L
sa(dp19
g7
L136L
sg8
L122L
sa(dp20
g7
L141L
sg8
L90L
sa(dp21
g7
L279L
sg8
L122L
sa(dp22
g7
L424L
sg8
L121L
sa(dp23
g7
L583L
sg8
L123L
sass."
EndChar

StartChar: tml_Ii
Encoding: 32 2952 32
GlifName: tml_I_i
Width: 629
VWidth: 0
GlyphClass: 2
Flags: W
HStem: 1 21<39 39 39 161> 187 125<223 257> 473 123
VStem: 39 178<473 592 473 595 592 592 473 595> 39 122<1 592 473 593 1 595 592 592 1 595> 178 125<232 266> 466 125<231 265>
LayerCount: 2
Fore
SplineSet
466 248 m 256
 466 282 494 311 528 311 c 256
 562 311 591 282 591 248 c 256
 591 214 562 186 528 186 c 256
 494 186 466 214 466 248 c 256
178 249 m 256
 178 283 206 312 240 312 c 256
 274 312 303 283 303 249 c 256
 303 215 274 187 240 187 c 256
 206 187 178 215 178 249 c 256
323 0 m 257
 445 0 l 257
 445 593 l 257
 323 593 l 257
 323 0 l 257
39 1 m 257
 39 592 l 257
 161 593 l 257
 161 1 l 257
 39 1 l 257
271 473 m 257
 587 473 l 257
 587 595 l 257
 271 595 l 257
 271 473 l 257
39 473 m 257
 39 595 l 257
 217 595 l 257
 217 473 l 257
 39 473 l 257
EndSplineSet
Validated: 5
PickledDataWithLists: "(dp1
S'com.fontlab.hintData'
p2
(dp3
S'vhints'
p4
(lp5
(dp6
S'position'
p7
L39L
sS'width'
p8
L178L
sa(dp9
g7
L39L
sg8
L122L
sa(dp10
g7
L178L
sg8
L125L
sa(dp11
g7
L466L
sg8
L125L
sasS'hhints'
p12
(lp13
(dp14
g7
L1L
sg8
L21L
sa(dp15
g7
L187L
sg8
L125L
sa(dp16
g7
L473L
sg8
L123L
sass."
EndChar

StartChar: tml_JI
Encoding: 33 -1 33
GlifName: tml_J_I_
Width: 1129
VWidth: 0
GlyphClass: 2
Flags: HW
LayerCount: 2
Fore
SplineSet
286 -180 m 257
 164 -180 55 -92 55 11 c 258
 55 83 l 258
 55 164 125 280 262 280 c 258
 718 281 l 258
 793 281 786 349 786 409 c 258
 786 448 l 257
 786 533 740 561 679 561 c 257
 618 561 583 517 583 451 c 258
 583 371 l 257
 461 371 l 257
 461 468 l 258
 461 601 560 686 679 686 c 257
 826 686 910 597 910 448 c 257
 910 387 l 258
 908 218 816 158 736 158 c 258
 255 158 l 258
 196 158 177 93 177 46 c 256
 177 -19 210 -58 286 -58 c 257
 286 -180 l 257
40 471 m 258
 41 496 l 258
 41 581 136 674 229 686 c 256
 342 700 424 588 424 499 c 258
 424 471 l 258
 424 410 342 307 260 307 c 257
 260 432 l 257
 282 440 302 467 302 499 c 256
 302 538 271 569 232 569 c 256
 193 569 162 538 162 499 c 256
 162 466 183 439 206 431 c 257
 206 307 l 257
 119 307 40 402 40 471 c 258
40 472 m 257
 40 482 l 258
 40 537 72 696 301 696 c 257
 446 696 583 612 583 408 c 258
 583 320 l 257
 461 320 l 257
 461 408 l 258
 461 543 352 582 304 582 c 256
 263 582 159 587 159 483 c 257
 40 472 l 257
347 -55 m 257
 387 -55 409 -50 410 -1 c 256
 412 90 501 140 598 140 c 257
 664 140 l 257
 664 16 l 257
 580 16 l 257
 556 17 531 13 529 -59 c 256
 528 -108 463 -178 347 -178 c 257
 347 -55 l 257
620 669 m 257
 620 669 l 257
 620 773 678 889 827 889 c 256
 827 889 l 257
 827 767 l 256
 827 767 l 256
 783 767 743 730 743 669 c 256
 620 669 l 257
619 -55 m 256
 682 -55 782 -60 782 -14 c 256
 782 7 758 15 718 16 c 257
 718 140 l 257
 805 140 904 97 904 -16 c 256
 904 -151 774 -177 619 -177 c 256
 619 -55 l 256
881 767 m 257
 881 889 l 257
 1032 889 1089 774 1089 671 c 258
 1089 1 l 261
 967 1 l 261
 967 668 l 258
 967 730 928 767 881 767 c 257
EndSplineSet
Validated: 37
EndChar

StartChar: tml_JIi
Encoding: 34 -1 34
GlifName: tml_J_I_i
Width: 1033
VWidth: 0
GlyphClass: 2
Flags: HW
LayerCount: 2
Fore
SplineSet
286 -180 m 257
 164 -180 55 -92 55 11 c 258
 55 83 l 258
 55 164 125 280 262 280 c 258
 718 281 l 258
 793 281 786 349 786 409 c 258
 786 448 l 257
 786 533 740 561 679 561 c 257
 618 561 583 517 583 451 c 258
 583 371 l 257
 461 371 l 257
 461 468 l 258
 461 601 560 686 679 686 c 257
 826 686 910 597 910 448 c 257
 910 387 l 258
 908 218 816 158 736 158 c 258
 255 158 l 258
 196 158 177 93 177 46 c 256
 177 -19 210 -58 286 -58 c 257
 286 -180 l 257
40 471 m 258
 41 496 l 258
 41 581 136 674 229 686 c 256
 342 700 424 588 424 499 c 258
 424 471 l 258
 424 410 342 307 260 307 c 257
 260 432 l 257
 282 440 302 467 302 499 c 256
 302 538 271 569 232 569 c 256
 193 569 162 538 162 499 c 256
 162 466 183 439 206 431 c 257
 206 307 l 257
 119 307 40 402 40 471 c 258
623 597.656 m 261
 623 677 l 260
 549 836 620.394 1024 823 1024 c 260
 1051 1024 1042.69 711 844 711 c 260
 799 711 752 749 742 770 c 261
 813 853 l 260
 813 837 822 820 847 820 c 260
 870 820 881 839 881 860 c 260
 881 875 870 909 813 909 c 261
 741.677 908.57 672 834 747 675.727 c 260
 747 597.656 l 261
 623 597.656 l 261
40 472 m 257
 40 482 l 258
 40 537 72 696 301 696 c 257
 446 696 583 612 583 408 c 258
 583 320 l 257
 461 320 l 257
 461 408 l 258
 461 543 352 582 304 582 c 256
 263 582 159 587 159 483 c 257
 40 472 l 257
347 -55 m 257
 387 -55 409 -50 410 -1 c 256
 412 90 501 140 598 140 c 257
 664 140 l 257
 664 16 l 257
 580 16 l 257
 556 17 531 13 529 -59 c 256
 528 -108 463 -178 347 -178 c 257
 347 -55 l 257
619 -55 m 256
 682 -55 782 -60 782 -14 c 256
 782 7 758 15 718 16 c 257
 718 140 l 257
 805 140 904 97 904 -16 c 256
 904 -151 774 -177 619 -177 c 256
 619 -55 l 256
EndSplineSet
Validated: 37
EndChar

StartChar: tml_JU
Encoding: 35 -1 35
GlifName: tml_J_U_
Width: 1316
VWidth: 0
GlyphClass: 2
Flags: HW
LayerCount: 2
Fore
SplineSet
718 560 m 257
 718 684 l 257
 1069 684 l 258
 1179.94 682.676 1276 655 1276 522 c 258
 1276 512 l 258
 1276 408 1188 357 1133 357 c 258
 1104 357 l 258
 1035 357 964 427 964 512 c 257
 1086 512 l 256
 1086 492 1098 479 1120 479 c 256
 1143 479 1154 493 1154 511 c 256
 1154 549 1120.97 559.326 1065 560 c 258
 718 560 l 257
EndSplineSet
Refer: 37 2972 N 1 0 0 1 0 0 2
Validated: 5
EndChar

StartChar: tml_JUu
Encoding: 36 -1 36
GlifName: tml_J_U_u
Width: 1467
VWidth: 0
GlyphClass: 2
Flags: HW
LayerCount: 2
Fore
SplineSet
1189.13 210 m 256
 1189.13 302 l 256
 1248.13 302 l 258
 1286.13 302 1304.13 325 1304.13 360 c 258
 1304.13 684 l 258
 1304.13 744 1233.13 759 1194.13 759 c 256
 1156.13 759 1087.13 746 1087.13 680 c 257
 965.133 680 l 256
 965.133 790 1062.13 881 1194.13 881 c 256
 1340.13 881 1427.13 789 1427.13 684 c 258
 1427.13 360 l 258
 1427.13 255 1353.13 210 1248.13 210 c 258
 1189.13 210 l 256
1105.13 363 m 258
 1036.13 363 965.133 433 965.133 518 c 257
 1087.13 518 l 256
 1087.13 498 1099.13 485 1121.13 485 c 256
 1144.13 485 1155.13 499 1155.13 517 c 256
 1155.13 555 1122.13 562 1066.13 562 c 258
 718.133 562 l 257
 718.133 684 l 257
 1070.13 684 l 258
 1181.13 684 1277.13 661 1277.13 528 c 258
 1277.13 518 l 258
 1277.13 414 1189.13 363 1134.13 363 c 258
 1105.13 363 l 258
EndSplineSet
Refer: 37 2972 N 1 0 0 1 0 0 2
Validated: 5
EndChar

StartChar: tml_Ja
Encoding: 37 2972 37
GlifName: tml_J_a
Width: 950
VWidth: 0
GlyphClass: 2
Flags: HW
HStem: -178 123<347 367 347 405> 16 124<598 664 598 664 580 664 598 718> 158 123<225.5 718 262 718 718 736> 307 125<162.5 260 260 301> 561 123<664 664 664 718> 569 127<212.5 251.5>
VStem: 40 122<436.5 518.5 472 518.5 482.5 509.5> 55 122<13.5 69.5 13.5 83 13.5 123.5> 302 122<483 499 440.5 518.5> 410 119 461 122<320 408 371 408 408 451 320 468 408 451 320 475.5 320 534.5> 782 122<-37 -3.5>
AnchorPoint: "tml_virama" 511 0 basechar 0
LayerCount: 2
Fore
SplineSet
286 -180 m 257
 164 -180 55 -92 55 11 c 258
 55 83 l 258
 55 164 125 281 262 281 c 258
 718 281 l 258
 793 281 786 349 786 409 c 258
 786 448 l 257
 786 512 765 554 718 561 c 257
 718 684 l 257
 820 676 910 597 910 448 c 257
 910 387 l 258
 908 218 816 158 736 158 c 258
 255 158 l 258
 196 158 177 93 177 46 c 256
 177 -19 210 -58 286 -58 c 257
 286 -180 l 257
40 471 m 258
 41 496 l 258
 41 581 136 674 229 686 c 256
 342 700 424 588 424 499 c 258
 424 471 l 258
 424 410 342 307 260 307 c 257
 260 432 l 257
 282 440 302 467 302 499 c 256
 302 538 271 569 232 569 c 256
 193 569 162 538 162 499 c 256
 162 466 183 439 206 431 c 257
 206 307 l 257
 119 307 40 402 40 471 c 258
40 472 m 257
 40 482 l 258
 40 537 72 696 301 696 c 257
 446 696 583 612 583 408 c 258
 583 320 l 257
 461 320 l 257
 461 408 l 258
 461 543 352 582 304 582 c 256
 263 582 159 587 159 483 c 257
 40 472 l 257
347 -55 m 257
 387 -55 409 -50 410 -1 c 256
 412 90 501 140 598 140 c 257
 664 140 l 257
 664 16 l 257
 580 16 l 257
 556 17 531 13 529 -59 c 256
 528 -108 463 -178 347 -178 c 257
 347 -55 l 257
461 371 m 257
 461 468 l 258
 461 601 571 675 664 684 c 257
 664 561 l 257
 624 553 583 517 583 451 c 258
 583 371 l 257
 461 371 l 257
619 -55 m 256
 682 -55 782 -60 782 -14 c 256
 782 7 758 15 718 16 c 257
 718 140 l 257
 805 140 904 97 904 -16 c 256
 904 -151 774 -177 619 -177 c 256
 619 -55 l 256
EndSplineSet
Validated: 37
PickledDataWithLists: "(dp1
S'com.fontlab.hintData'
p2
(dp3
S'vhints'
p4
(lp5
(dp6
S'position'
p7
L40L
sS'width'
p8
L122L
sa(dp9
g7
L55L
sg8
L122L
sa(dp10
g7
L302L
sg8
L122L
sa(dp11
g7
L410L
sg8
L119L
sa(dp12
g7
L461L
sg8
L122L
sa(dp13
g7
L782L
sg8
L122L
sasS'hhints'
p14
(lp15
(dp16
g7
L-178L
sg8
L123L
sa(dp17
g7
L16L
sg8
L124L
sa(dp18
g7
L158L
sg8
L123L
sa(dp19
g7
L307L
sg8
L125L
sa(dp20
g7
L561L
sg8
L123L
sa(dp21
g7
L569L
sg8
L127L
sass."
EndChar

StartChar: tml_KI
Encoding: 38 -1 38
GlifName: tml_K_I_
Width: 996
VWidth: 0
GlyphClass: 2
Flags: HW
LayerCount: 2
Fore
SplineSet
709 686 m 257
 709 808 l 257
 896 808 956 691 956 590 c 258
 956 1 l 261
 834 1 l 261
 834 587 l 258
 834 649 791 686 709 686 c 257
420 588 m 257
 420 588 l 257
 420 692 483 808 655 808 c 256
 655 808 l 257
 655 686 l 256
 655 686 l 256
 584 686 543 649 543 588 c 256
 420 588 l 257
EndSplineSet
Refer: 49 2965 N 1 0 0 1 -8 0 2
Validated: 524293
EndChar

StartChar: tml_KI.alt
Encoding: 39 -1 39
GlifName: tml_K_I_.alt
Width: 1014
VWidth: 0
GlyphClass: 2
Flags: HW
LayerCount: 2
Fore
SplineSet
464.702 855 m 257
 464.702 855 l 257
 464.702 733 l 256
 464.702 733 l 257
 296.702 721 86.7021 652 185.702 365 c 257
 86.7021 272 l 257
 -67.2979 650 185.702 857 464.702 855 c 257
518.702 733 m 257
 518.702 855 l 257
 718.702 855 973.702 751 974.702 429 c 258
 974.702148438 1 l 261
 852.702148438 1 l 261
 852.702 426 l 258
 852.702 697 620.702 733 518.702 733 c 257
EndSplineSet
Refer: 49 2965 N 1 0 0 1 12.7024 0 2
Validated: 524325
EndChar

StartChar: tml_KIi
Encoding: 40 -1 40
GlifName: tml_K_I_i
Width: 829
VWidth: 0
GlyphClass: 2
Flags: HW
LayerCount: 2
Fore
SplineSet
419 474.656 m 257
 419 598 l 256
 345 757 416.394 945 619 945 c 256
 847 945 838.69 632 640 632 c 256
 595 632 548 670 538 691 c 257
 609 774 l 256
 609 758 618 741 643 741 c 256
 666 741 677 760 677 781 c 256
 677 796 666 830 609 830 c 257
 537.677 829.57 468 755 543 596.727 c 256
 544 474.656 l 257
 419 474.656 l 257
EndSplineSet
Refer: 49 2965 N 1 0 0 1 -8 0 2
Validated: 524325
EndChar

StartChar: tml_KIi.alt
Encoding: 41 -1 41
GlifName: tml_K_I_i.alt
Width: 894
VWidth: 0
GlyphClass: 2
Flags: HW
LayerCount: 2
Fore
SplineSet
90 272 m 257
 -42.65234375 599.509765625 81.7041015625 819.068359375 240 905 c 256
 345 962 436 981 573 965 c 257
 698 950 776.856445312 870.043945312 779 775 c 256
 780.663085938 701.283203125 730 619 645 619 c 256
 600 619 560 628 524 670 c 257
 578 768 l 256
 578 752 587 735 612 735 c 256
 635 735 646 754 646 775 c 256
 646 790 638.001953125 818.04296875 583 833 c 256
 469 864 363.10546875 827.390625 300 796 c 256
 166.657226562 729.670898438 123.483398438 592.0234375 189 365 c 257
 90 272 l 257
EndSplineSet
Refer: 49 2965 N 1 0 0 1 24 0 2
Validated: 524325
EndChar

StartChar: tml_KSsI
Encoding: 42 -1 42
GlifName: tml_K_S_sI_
Width: 1988
VWidth: 0
GlyphClass: 2
Flags: HW
LayerCount: 2
Fore
SplineSet
1408 158 m 257
 1304 158 1227 191 1227 334 c 258
 1227 433 l 258
 1227 570 1304 607 1408 607 c 257
 1461 607 l 257
 1564 607 1642 561 1642 413 c 258
 1642 158 l 257
 1520 158 l 257
 1520 413 l 258
 1520 486 1461 485 1461 485 c 257
 1408 485 l 257
 1363 485 1350 463 1350 424 c 258
 1350 340 l 258
 1350 287 1364 279 1408 279 c 257
 1408 158 l 257
909 412 m 257
 909 534 l 257
 1078 534 1165 403 1166 292 c 257
 1166 123 l 257
 1408 123 l 257
 1408 0 l 257
 1012 0 l 257
 1012 123 l 257
 1019 124 1045 127 1045 146 c 258
 1045 291 l 257
 1044 361 986 412 909 412 c 257
40 151.656 m 258
 40 212.656 l 258
 40 320.656 150 365.656 236 365.656 c 258
 700 365.656 l 257
 700 243.656 l 257
 239 243.656 l 258
 175 243.656 161 233.656 161 182.656 c 256
 161 121.656 181 116.656 270 116.656 c 257
 270 -6.34375 l 257
 113 -5.34375 40 62.6562 40 151.656 c 258
598 151 m 258
 598 220 l 258
 597 324 720 359 770 359 c 257
 770 237 l 256
 741 237 723 218 723 181 c 256
 723 147 737 122 770 122 c 257
 770 0 l 256
 668 0 598 91 598 151 c 258
825 0 m 257
 825 122 l 257
 857 123 872 142 872 180 c 256
 872 218 856 237 825 237 c 257
 825 359 l 256
 921 359 994 276 994 224 c 258
 994 152 l 258
 995 89 934 0 825 0 c 257
1391.01 596 m 257
 1391.01 596 l 257
 1391.01 700 1443.01 837 1639.01 837 c 256
 1639.01 837 l 257
 1639.01 715 l 256
 1639.01 715 l 256
 1538.01 715 1514.01 657 1514.01 596 c 256
 1391.01 596 l 257
323 -6.34375 m 257
 323 116.656 l 257
 389 116.656 420 135.656 420 181.656 c 258
 420 663.656 l 257
 542 663.656 l 257
 542 185.656 l 258
 542 89.6562 490 -6.34375 323 -6.34375 c 257
1693.01 715 m 257
 1693.01 837 l 257
 1900.01 837 1948.01 699 1948.01 596 c 258
 1948.00976562 0 l 261
 1826.00976562 0 l 261
 1826.01 596 l 258
 1826.01 662 1796.01 715 1693.01 715 c 257
598 226 m 257
 598 268 l 257
 598 340 649 534 859 534 c 257
 859 412 l 257
 795 412 765 378 764 357 c 256
 598 226 l 257
165 342.656 m 257
 165 661.656 l 257
 288 661.656 l 257
 287 342.656 l 257
 165 342.656 l 257
165 545.656 m 257
 165 670.656 l 257
 328 670.656 l 257
 328 545.656 l 257
 165 545.656 l 257
382 545.656 m 257
 382 670.656 l 257
 689 670.656 l 257
 689 545.656 l 257
 382 545.656 l 257
1520 123 m 257
 1642 123 l 257
 1642 -178 l 257
 1520 -178 l 257
 1520 123 l 257
1461 1 m 257
 1461 123 l 257
 1778 123 l 257
 1778 0 l 257
 1461 1 l 257
1461 158 m 257
 1461 280 l 257
 1778 280 l 256
 1778 158 l 257
 1461 158 l 257
1678 0 m 257
 1678 280 l 257
 1778 280 l 257
 1778 0 l 257
 1678 0 l 257
EndSplineSet
Validated: 37
EndChar

StartChar: tml_KSsIi
Encoding: 43 -1 43
GlifName: tml_K_S_sI_i
Width: 1818
VWidth: 0
GlyphClass: 2
Flags: W
LayerCount: 2
Fore
SplineSet
1408 158 m 257
 1304 158 1227 191 1227 334 c 258
 1227 433 l 258
 1227 570 1304 607 1408 607 c 257
 1461 607 l 257
 1564 607 1642 561 1642 413 c 258
 1642 158 l 257
 1520 158 l 257
 1520 413 l 258
 1520 486 1500 485 1461 485 c 257
 1408 485 l 257
 1363 485 1350 463 1350 424 c 258
 1350 340 l 258
 1350 287 1364 279 1408 279 c 257
 1408 158 l 257
1370 484.656 m 257
 1370 606 l 256
 1296 765 1367.39 953 1570 953 c 256
 1798 953 1789.69 640 1591 640 c 256
 1546 640 1499 678 1489 699 c 257
 1560 782 l 256
 1560 766 1569 749 1594 749 c 256
 1617 749 1628 768 1628 789 c 256
 1628 804 1617 838 1560 838 c 257
 1488.68 837.57 1419 763 1494 604.727 c 256
 1494 484.656 l 257
 1370 484.656 l 257
909 412 m 257
 909 534 l 257
 1078 534 1165 403 1166 292 c 257
 1166 123 l 257
 1408 123 l 257
 1408 0 l 257
 1012 0 l 257
 1012 123 l 257
 1019 124 1045 127 1045 146 c 258
 1045 291 l 257
 1044 361 986 412 909 412 c 257
40 151.656 m 258
 40 212.656 l 258
 40 320.656 150 365.656 236 365.656 c 258
 700 365.656 l 257
 700 243.656 l 257
 239 243.656 l 258
 175 243.656 161 233.656 161 182.656 c 256
 161 121.656 181 116.656 270 116.656 c 257
 270 -6.34375 l 257
 113 -5.34375 40 62.6562 40 151.656 c 258
598 151 m 258
 598 220 l 258
 597 324 720 359 770 359 c 257
 770 237 l 256
 741 237 723 218 723 181 c 256
 723 147 737 122 770 122 c 257
 770 0 l 256
 668 0 598 91 598 151 c 258
825 0 m 257
 825 122 l 257
 857 123 872 142 872 180 c 256
 872 218 856 237 825 237 c 257
 825 359 l 256
 921 359 994 276 994 224 c 258
 994 152 l 258
 995 89 934 0 825 0 c 257
323 -6.34375 m 257
 323 116.656 l 257
 389 116.656 420 135.656 420 181.656 c 258
 420 663.656 l 257
 542 663.656 l 257
 542 185.656 l 258
 542 89.6562 490 -6.34375 323 -6.34375 c 257
598 226 m 257
 598 268 l 257
 598 340 649 534 859 534 c 257
 859 412 l 257
 795 412 765 378 764 357 c 256
 598 226 l 257
165 342.656 m 257
 165 661.656 l 257
 288 661.656 l 257
 287 342.656 l 257
 165 342.656 l 257
165 545.656 m 257
 165 670.656 l 257
 328 670.656 l 257
 328 545.656 l 257
 165 545.656 l 257
382 545.656 m 257
 382 670.656 l 257
 689 670.656 l 257
 689 545.656 l 257
 382 545.656 l 257
1520 123 m 257
 1642 123 l 257
 1642 -178 l 257
 1520 -178 l 257
 1520 123 l 257
1461 1 m 257
 1461 123 l 257
 1778 123 l 257
 1778 0 l 257
 1461 1 l 257
1461 158 m 257
 1461 280 l 257
 1778 280 l 256
 1778 158 l 257
 1461 158 l 257
1678 0 m 257
 1678 280 l 257
 1778 280 l 257
 1778 0 l 257
 1678 0 l 257
EndSplineSet
Validated: 37
EndChar

StartChar: tml_KSsU
Encoding: 44 -1 44
GlifName: tml_K_S_sU_
Width: 2032
VWidth: 0
GlyphClass: 2
Flags: W
LayerCount: 2
Fore
SplineSet
1461 486 m 257
 1461 608 l 257
 1785 608 l 258
 1896 608 1992 585 1992 452 c 258
 1992 442 l 258
 1992 338 1904 287 1849 287 c 258
 1820 287 l 258
 1751 287 1680 357 1680 442 c 257
 1802 442 l 256
 1802 422 1814 409 1836 409 c 256
 1859 409 1870 423 1870 441 c 256
 1870 479 1837 486 1781 486 c 258
 1461 486 l 257
909 412 m 257
 909 534 l 257
 1078 534 1165 403 1166 292 c 257
 1166 123 l 257
 1408 123 l 257
 1408 0 l 257
 1012 0 l 257
 1012 123 l 257
 1019 124 1045 127 1045 146 c 258
 1045 291 l 257
 1044 361 986 412 909 412 c 257
40 151.656 m 258
 40 212.656 l 258
 40 320.656 150 365.656 236 365.656 c 258
 700 365.656 l 257
 700 243.656 l 257
 239 243.656 l 258
 175 243.656 161 233.656 161 182.656 c 256
 161 121.656 181 116.656 270 116.656 c 257
 270 -6.34375 l 257
 113 -5.34375 40 62.6562 40 151.656 c 258
1227 334 m 258
 1227 433 l 258
 1227 570 1304 607 1408 607 c 257
 1408 485 l 257
 1363 485 1350 463 1350 424 c 258
 1350 340 l 258
 1350 287 1364 279 1408 279 c 257
 1408 158 l 257
 1304 158 1227 191 1227 334 c 258
598 151 m 258
 598 220 l 258
 597 324 720 359 770 359 c 257
 770 237 l 256
 741 237 723 218 723 181 c 256
 723 147 737 122 770 122 c 257
 770 0 l 256
 668 0 598 91 598 151 c 258
825 0 m 257
 825 122 l 257
 857 123 872 142 872 180 c 256
 872 218 856 237 825 237 c 257
 825 359 l 256
 921 359 994 276 994 224 c 258
 994 152 l 258
 995 89 934 0 825 0 c 257
323 -6.34375 m 257
 323 116.656 l 257
 389 116.656 420 135.656 420 181.656 c 258
 420 663.656 l 257
 542 663.656 l 257
 542 185.656 l 258
 542 89.6562 490 -6.34375 323 -6.34375 c 257
1461 485 m 257
 1461 607 l 257
 1564 607 1642 561 1642 413 c 258
 1642 158 l 257
 1520 158 l 257
 1520 413 l 258
 1520 486 1500 485 1461 485 c 257
598 226 m 257
 598 268 l 257
 598 340 649 534 859 534 c 257
 859 412 l 257
 795 412 765 378 764 357 c 256
 598 226 l 257
165 342.656 m 257
 165 661.656 l 257
 288 661.656 l 257
 287 342.656 l 257
 165 342.656 l 257
165 545.656 m 257
 165 670.656 l 257
 328 670.656 l 257
 328 545.656 l 257
 165 545.656 l 257
382 545.656 m 257
 382 670.656 l 257
 689 670.656 l 257
 689 545.656 l 257
 382 545.656 l 257
1520 123 m 257
 1642 123 l 257
 1642 -178 l 257
 1520 -178 l 257
 1520 123 l 257
1461 1 m 257
 1461 123 l 257
 1778 123 l 257
 1778 0 l 257
 1461 1 l 257
1461 158 m 257
 1461 280 l 257
 1778 280 l 256
 1778 158 l 257
 1461 158 l 257
1678 0 m 257
 1678 280 l 257
 1778 280 l 257
 1778 0 l 257
 1678 0 l 257
EndSplineSet
Validated: 37
EndChar

StartChar: tml_KSsUu
Encoding: 45 -1 45
GlifName: tml_K_S_sU_u
Width: 2271
VWidth: 0
GlyphClass: 2
Flags: HW
LayerCount: 2
Fore
SplineSet
1492 486 m 257
 1492 608 l 257
 1824 608 l 258
 1935 608 2031 585 2031 452 c 258
 2031 442 l 258
 2031 338 1943 287 1888 287 c 258
 1859 287 l 258
 1790 287 1719 357 1719 442 c 257
 1841 442 l 256
 1841 422 1853 409 1875 409 c 256
 1898 409 1909 423 1909 441 c 256
 1909 479 1876 486 1820 486 c 258
 1492 486 l 257
1719 604 m 256
 1719 714 1816 805 1948 805 c 256
 2094 805 2181 713 2181 608 c 258
 2181 284 l 258
 2181 179 2107 134 2002 134 c 258
 1943 134 l 256
 1943 226 l 256
 2002 226 l 258
 2040 226 2058 249 2058 284 c 258
 2058 608 l 258
 2058 668 1987 683 1948 683 c 256
 1910 683 1841 670 1841 604 c 257
 1719 604 l 256
939 412 m 257
 939 534 l 257
 1108 534 1195 403 1196 292 c 257
 1196 123 l 257
 1438 123 l 257
 1438 0 l 257
 1042 0 l 257
 1042 123 l 257
 1049 124 1075 127 1075 146 c 258
 1075 291 l 257
 1074 361 1016 412 939 412 c 257
70 151.65625 m 258
 70 212.65625 l 258
 70 320.65625 180 365.65625 266 365.65625 c 258
 730 365.65625 l 257
 730 243.65625 l 257
 269 243.65625 l 258
 205 243.65625 191 233.65625 191 182.65625 c 256
 191 121.65625 211 116.65625 300 116.65625 c 257
 300 -6.34375 l 257
 143 -5.34375 70 62.65625 70 151.65625 c 258
1257 334 m 258
 1257 433 l 258
 1257 570 1334 607 1438 607 c 257
 1438 485 l 257
 1393 485 1380 463 1380 424 c 258
 1380 340 l 258
 1380 287 1394 279 1438 279 c 257
 1438 158 l 257
 1334 158 1257 191 1257 334 c 258
628 151 m 258
 628 220 l 258
 627 324 750 359 800 359 c 257
 800 237 l 256
 771 237 753 218 753 181 c 256
 753 147 767 122 800 122 c 257
 800 0 l 256
 698 0 628 91 628 151 c 258
855 0 m 257
 855 122 l 257
 887 123 902 142 902 180 c 256
 902 218 886 237 855 237 c 257
 855 359 l 256
 951 359 1024 276 1024 224 c 258
 1024 152 l 258
 1025 89 964 0 855 0 c 257
353 -6.34375 m 257
 353 116.65625 l 257
 419 116.65625 450 135.65625 450 181.65625 c 258
 450 663.65625 l 257
 572 663.65625 l 257
 572 185.65625 l 258
 572 89.65625 520 -6.34375 353 -6.34375 c 257
1491 485 m 257
 1491 607 l 257
 1594 607 1672 561 1672 413 c 258
 1672 158 l 257
 1550 158 l 257
 1550 413 l 258
 1550 486 1530 485 1491 485 c 257
628 226 m 257
 628 268 l 257
 628 340 679 534 889 534 c 257
 889 412 l 257
 825 412 795 378 794 357 c 256
 628 226 l 257
195 342.65625 m 257
 195 661.65625 l 257
 318 661.65625 l 257
 317 342.65625 l 257
 195 342.65625 l 257
195 545.65625 m 257
 195 670.65625 l 257
 358 670.65625 l 257
 358 545.65625 l 257
 195 545.65625 l 257
412 545.65625 m 257
 412 670.65625 l 257
 719 670.65625 l 257
 719 545.65625 l 257
 412 545.65625 l 257
1550 123 m 257
 1672 123 l 257
 1672 -178 l 257
 1550 -178 l 257
 1550 123 l 257
1491 1 m 257
 1491 123 l 257
 1808 123 l 257
 1808 0 l 257
 1491 1 l 257
1491 158 m 257
 1491 280 l 257
 1808 280 l 256
 1808 158 l 257
 1491 158 l 257
1708 0 m 257
 1708 280 l 257
 1808 280 l 257
 1808 0 l 257
 1708 0 l 257
EndSplineSet
Validated: 37
EndChar

StartChar: tml_KSsa
Encoding: 46 -1 46
GlifName: tml_K_S_sa
Width: 1818
VWidth: 0
GlyphClass: 2
Flags: HW
AnchorPoint: "tml_virama" 1131 0 basechar 0
LayerCount: 2
Fore
SplineSet
909 412 m 257
 909 534 l 257
 1078 534 1165 403 1166 292 c 257
 1166 123 l 257
 1408 123 l 257
 1408 0 l 257
 1012 0 l 257
 1012 123 l 257
 1019 124 1045 127 1045 146 c 258
 1045 291 l 257
 1044 361 986 412 909 412 c 257
40 151.656 m 258
 40 212.656 l 258
 40 320.656 150 365.656 236 365.656 c 258
 700 365.656 l 257
 700 243.656 l 257
 239 243.656 l 258
 175 243.656 161 233.656 161 182.656 c 256
 161 121.656 181 116.656 270 116.656 c 257
 270 -6.34375 l 257
 113 -5.34375 40 62.6562 40 151.656 c 258
1227 334 m 258
 1227 433 l 258
 1227 570 1304 607 1408 607 c 257
 1408 485 l 257
 1363 485 1350 463 1350 424 c 258
 1350 340 l 258
 1350 287 1364 279 1408 279 c 257
 1408 158 l 257
 1304 158 1227 191 1227 334 c 258
598 151 m 258
 598 220 l 258
 597 324 720 359 770 359 c 257
 770 237 l 256
 741 237 723 218 723 181 c 256
 723 147 737 122 770 122 c 257
 770 0 l 256
 668 0 598 91 598 151 c 258
825 0 m 257
 825 122 l 257
 857 123 872 142 872 180 c 256
 872 218 856 237 825 237 c 257
 825 359 l 256
 921 359 994 276 994 224 c 258
 994 152 l 258
 995 89 934 0 825 0 c 257
323 -6.34375 m 257
 323 116.656 l 257
 389 116.656 420 135.656 420 181.656 c 258
 420 663.656 l 257
 542 663.656 l 257
 542 185.656 l 258
 542 89.6562 490 -6.34375 323 -6.34375 c 257
1461 485 m 257
 1461 607 l 257
 1564 607 1642 561 1642 413 c 258
 1642 158 l 257
 1520 158 l 257
 1520 413 l 258
 1520 486 1500 485 1461 485 c 257
598 226 m 257
 598 268 l 257
 598 340 649 534 859 534 c 257
 859 412 l 257
 795 412 765 378 764 357 c 256
 598 226 l 257
165 342.656 m 257
 165 661.656 l 257
 288 661.656 l 257
 287 342.656 l 257
 165 342.656 l 257
165 545.656 m 257
 165 670.656 l 257
 328 670.656 l 257
 328 545.656 l 257
 165 545.656 l 257
382 545.656 m 257
 382 670.656 l 257
 689 670.656 l 257
 689 545.656 l 257
 382 545.656 l 257
1520 123 m 257
 1642 123 l 257
 1642 -178 l 257
 1520 -178 l 257
 1520 123 l 257
1461 1 m 257
 1461 123 l 257
 1778 123 l 257
 1778 0 l 257
 1461 1 l 257
1461 158 m 257
 1461 280 l 257
 1778 280 l 256
 1778 158 l 257
 1461 158 l 257
1678 0 m 257
 1678 280 l 257
 1778 280 l 257
 1778 0 l 257
 1678 0 l 257
EndSplineSet
Validated: 37
EndChar

StartChar: tml_KU
Encoding: 47 -1 47
GlifName: tml_K_U_
Width: 1026
VWidth: 0
GlyphClass: 2
Flags: HW
LayerCount: 2
Fore
SplineSet
382.153320312 156 m 0
 255.252929688 156 l 0
 255.252929688 50 333.333988174 -1 485 -1 c 257
 485 122 l 257
 406 122 382.153320312 136 382.153320312 156 c 0
376.801494939 206 m 9
 255 206 l 1
 255 218 l 258
 255 326 366 371 452 371 c 256
 555 371 654 371 757 371 c 257
 757 249 l 257
 454 249 l 258
 398.383012676 249 380.525415965 241.448121877 376.801494939 206 c 9
47 30 m 258
 47 289 l 258
 47 452 161 499 246 499 c 256
 247 377 l 256
 173 377 170 320 170 284 c 258
 170 54 l 258
 170 -10 193 -88 257 -88 c 258
 435 -88 l 257
 435 -210 l 257
 241 -210 l 258
 132 -210 47 -109 47 30 c 258
488 -88 m 257
 787 -88 l 258
 856 -88 853 -5 853 38 c 258
 853 185 l 258
 853 235 833 247 811 248 c 257
 811 370 l 257
 873 364 975 337 975 219 c 258
 975 -47 l 258
 975 -114 914 -210 788 -210 c 258
 488 -210 l 257
 488 -88 l 257
538 -1 m 257
 538 122 l 257
 604 122 635 141 635 187 c 258
 635 591 l 257
 757 591 l 257
 757 191 l 258
 757 95 705 -1 538 -1 c 257
380 348 m 257
 380 589 l 257
 503 589 l 257
 502 348 l 257
 380 348 l 257
380 473 m 257
 380 595 l 257
 542 595 l 257
 542 473 l 257
 380 473 l 257
597 473 m 257
 597 595 l 257
 889 595 l 257
 889 473 l 257
 597 473 l 257
EndSplineSet
Validated: 37
EndChar

StartChar: tml_KUu
Encoding: 48 -1 48
GlifName: tml_K_U_u
Width: 1600
VWidth: 0
GlyphClass: 2
Flags: HW
HStem: -1 123<225.5 270 225.5 270 323 356 225.5 406.5> 21 120 249 122<236 239 239 538> 348 23<236 287> 470 122
VStem: 40 121<157.5 213.5 157.5 218 157.5 272> 165 163<473 589 473 595 589 589 473 595> 165 122<348 589> 420 122<187 191 191 591> 627 123<188 230 230 240.5>
LayerCount: 2
Fore
SplineSet
629 250 m 257
 629 370 l 257
 823 370 l 258
 913 370 990 310 990 186 c 256
 990 53 921.983398438 -1.5537109375 850 0 c 256
 711 3 706 130 706 216 c 257
 808 216 l 256
 808 196 810 93 843 93 c 256
 862 93 887 134 887 185 c 256
 887 216 877 250 819 250 c 258
 629 250 l 257
715 395 m 256
 715 505 771 596 903 596 c 256
 1049 596 1117 531 1117 389 c 258
 1117 144 l 258
 1117 103 1122 104 1187 102 c 256
 1187 -1 l 257
 1002 0 1014 8 1014 54 c 258
 1014 389 l 258
 1014 467 965 491 903 491 c 256
 842 491 818 461 818 395 c 257
 715 395 l 256
270 -1 m 257
 112 -1 40 68 40 157 c 258
 40 218 l 258
 40 326 150 371 236 371 c 258
 578 371 l 257
 578 249 l 257
 239 249 l 258
 175 249 161 239 161 188 c 256
 161 127 181 122 270 122 c 257
 270 -1 l 257
323 -1 m 257
 490 -0.718189001617 542 94.970787223 542 191 c 258
 542 591 l 257
 420 591 l 257
 420 187 l 258
 420 141 389 122 323 122 c 257
 323 -1 l 257
165 348 m 257
 165 589 l 257
 288 589 l 257
 287 348 l 257
 165 348 l 257
165 473 m 257
 165 595 l 257
 328 595 l 257
 328 473 l 257
 165 473 l 257
382 473 m 257
 382 595 l 257
 654 595 l 257
 654 473 l 257
 382 473 l 257
1236 -1 m 257
 1236 102 l 257
 1562 102 l 257
 1562 -1 l 257
 1376.66699219 -3.5322265625 1421.33300781 -0.84765625 1236 -1 c 257
EndSplineSet
PickledDataWithLists: "(dp1
S'com.fontlab.hintData'
p2
(dp3
S'vhints'
p4
(lp5
(dp6
S'position'
p7
L40L
sS'width'
p8
L121L
sa(dp9
g7
L165L
sg8
L163L
sa(dp10
g7
L165L
sg8
L122L
sa(dp11
g7
L420L
sg8
L122L
sa(dp12
g7
L627L
sg8
L123L
sasS'hhints'
p13
(lp14
(dp15
g7
L-1L
sg8
L123L
sa(dp16
g7
L21L
sg8
L120L
sa(dp17
g7
L249L
sg8
L122L
sa(dp18
g7
L348L
sg8
L23L
sa(dp19
g7
L470L
sg8
L122L
sass."
EndChar

StartChar: tml_Ka
Encoding: 49 2965 49
GlifName: tml_K_a
Width: 839
VWidth: 0
GlyphClass: 2
Flags: HW
HStem: -11 123<232.5 277 232.5 277 331 364 232.5 414.5> 2 124<571 609 571 636> 249 122<226 229 229 603 603 611> 348 23<226 295> 470 125<173 335 173 335 173 389 389 682> 470 71<389 550 428 550 428 682>
VStem: 48 121<157.5 213.5 157.5 240 157.5 293.5> 173 162<470 539 470 595 539 539 470 595> 173 122<348 539> 428 122<187 191 191 541> 664 122<157 212>
AnchorPoint: "tml_virama" 431 0 basechar 0
LayerCount: 2
Fore
SplineSet
173 348 m 257
 173 539 l 257
 296 539 l 257
 295 348 l 257
 173 348 l 257
48 226 m 17
 48 343.87543818 129.971490123 371 226 371 c 258
 603 371 l 258
 729.640851613 371 786 341.745263932 786 205 c 1
 662.547851562 205 l 17
 662.547851562 238 644.114565846 254 611 254 c 258
 229 254 l 258
 176 254 173.27826605 226 173.27826605 226 c 1
 48 226 l 17
785.998483508 155 m 1025
277 -11 m 257
 277 112 l 257
 192.550483966 112 171.12589573 125.505341671 169.155824829 179 c 9
 48 179 l 1
 48 71.0172501563 105.675229397 -11 277 -11 c 257
331 -11 m 257
 331 112 l 257
 397 112 428 141 428 187 c 258
 428 541 l 257
 550 541 l 257
 550 191 l 258
 550 95 498 -11 331 -11 c 257
389 470 m 257
 389 595 l 257
 682 595 l 257
 682 470 l 257
 389 470 l 257
173 470 m 257
 173 595 l 257
 335 595 l 257
 335 470 l 257
 173 470 l 257
569 -11 m 257
 571 103 l 256
 656 103 661.706625906 155 661.706625906 155 c 1
 785.998483508 155 l 17
 785.648107149 39.6838845291 724.55078125 -11 569 -11 c 257
EndSplineSet
Validated: 8912901
PickledDataWithLists: "(dp1
S'com.fontlab.hintData'
p2
(dp3
S'vhints'
p4
(lp5
(dp6
S'position'
p7
L48L
sS'width'
p8
L121L
sa(dp9
g7
L173L
sg8
L162L
sa(dp10
g7
L173L
sg8
L122L
sa(dp11
g7
L428L
sg8
L122L
sa(dp12
g7
L664L
sg8
L122L
sasS'hhints'
p13
(lp14
(dp15
g7
L-11L
sg8
L123L
sa(dp16
g7
L2L
sg8
L124L
sa(dp17
g7
L249L
sg8
L122L
sa(dp18
g7
L348L
sg8
L23L
sa(dp19
g7
L470L
sg8
L125L
sa(dp20
g7
L470L
sg8
L71L
sass."
EndChar

StartChar: tml_LAi
Encoding: 50 -1 50
GlifName: tml_L_A_i
Width: 1223
VWidth: 0
GlyphClass: 2
Flags: W
LayerCount: 2
Fore
SplineSet
443.415 41 m 257
 192.415 -132 -67.6143 65.3271 93.415 296.141 c 258
 291.959 580.727 l 256
 387.959 739 304.282 813.57 230.959 814 c 257
 173.959 814 162.959 780 162.959 765 c 256
 162.959 744 173.959 725 196.959 725 c 256
 221.959 725 230.959 742 230.959 758 c 256
 301.959 675 l 257
 291.959 632 244.959 604 199.959 604 c 256
 -25.7314 604 -7.04102 939 220.959 939 c 256
 414.565 939 511.415 738 427.959 582 c 257
 206.415 242 l 256
 100.956 70.9805 333.415 70 396.415 172 c 257
 443.415 41 l 257
680.415 484 m 257
 680.415 606 l 257
 848.415 606 922.415 456 923.415 353 c 258
 923.415 165 l 258
 923.415 138 939.415 123 964.415 123 c 257
 964.415 0 l 257
 849.415 0 801.415 84 801.415 165 c 258
 800.415 354 l 258
 799.415 418 758.415 484 680.415 484 c 257
1009.42 594 m 257
 1129.42 595 1183.42 541 1183.42 424 c 258
 1183.42 166 l 258
 1183.42 81 1127.42 0 1017.42 0 c 257
 1017.42 123 l 257
 1044.42 123 1060.42 139 1060.42 166 c 257
 1060.42 422 l 257
 1060.42 458 1048.42 471 1010.42 471 c 257
 1009.42 594 l 257
368.415 151 m 256
 368.415 193 369.415 140 368.415 220 c 256
 367.415 324 489.415 359 539.415 359 c 257
 539.415 237 l 256
 510.415 237 492.415 210 492.415 181 c 256
 492.415 149 506.415 122 539.415 122 c 257
 539.415 0 l 256
 437.415 0 368.415 91 368.415 151 c 256
594.415 0 m 257
 594.415 122 l 256
 635.415 122 641.415 150 640.415 181 c 256
 639.415 208 636.415 237 594.415 237 c 257
 594.415 359 l 256
 690.415 359 763.415 276 763.415 224 c 258
 763.415 152 l 258
 764.415 89 703.415 0 594.415 0 c 257
368.415 226 m 257
 368.415 323 l 258
 368.415 424 447.415 606 626.415 606 c 257
 626.415 485 l 257
 561.415 485 499.415 427 499.415 327 c 256
 499.415 270 374.415 256 368.415 226 c 257
EndSplineSet
Validated: 37
EndChar

StartChar: tml_LI
Encoding: 51 -1 51
GlifName: tml_L_I_
Width: 1086
VWidth: 0
GlyphClass: 2
Flags: HW
LayerCount: 2
Fore
SplineSet
851.006 688 m 257
 851.006 810 l 257
 998.006 810 1046.01 693 1046.01 592 c 258
 1046.00976562 0 l 261
 924.005859375 0 l 261
 924.006 589 l 258
 924.006 651 898.006 688 851.006 688 c 257
724.006 461 m 257
 724.006 590 l 258
 724.006 655 749.006 688 797.006 688 c 256
 797.006 688 l 256
 797.006 810 l 257
 797.006 810 l 257
 555.006 810 533.006 461 724.006 461 c 257
EndSplineSet
Refer: 55 2994 N 1 0 0 1 1.00611 0 2
Validated: 37
EndChar

StartChar: tml_LIi
Encoding: 52 -1 52
GlifName: tml_L_I_i
Width: 1040
VWidth: 0
GlyphClass: 2
Flags: W
LayerCount: 2
Fore
SplineSet
763.006 582.03 m 257
 852.006 555 855.006 508 855.006 424 c 258
 855.006 166 l 258
 855.006 81 799.006 0 689.006 0 c 257
 689.006 123 l 257
 716.006 123 735.006 139 735.006 166 c 257
 735.006 423 l 258
 734.227 445.874 718.065 454.937 682.006 474.656 c 256
 632.006 502 595.006 543 572.006 621 c 256
 537.215 738.986 613.548 919 803.006 919 c 256
 1063.01 919 1055.7 587 846.006 587 c 256
 801.006 587 751.006 625 739.006 648 c 257
 815.006 739 l 256
 815.006 723 824.006 706 849.006 706 c 256
 872.006 706 883.006 725 883.006 746 c 256
 883.006 761 867.006 795 810.006 795 c 257
 672.006 803 642.006 619 763.006 582.03 c 257
266.006 0 m 257
 266.006 122 l 256
 307.006 122 313.006 150 312.006 181 c 256
 311.006 208 308.006 237 266.006 237 c 257
 266.006 359 l 256
 362.006 359 435.006 276 435.006 224 c 258
 435.006 152 l 258
 436.006 89 375.006 0 266.006 0 c 257
40.0059 151 m 256
 40.0059 193 41.0059 140 40.0059 220 c 256
 39.0059 324 161.006 359 211.006 359 c 257
 211.006 237 l 256
 182.006 237 164.006 210 164.006 181 c 256
 164.006 149 178.006 122 211.006 122 c 257
 211.006 0 l 256
 109.006 0 40.0059 91 40.0059 151 c 256
40.0059 226 m 257
 40.0059 323 l 258
 40.0059 424 119.006 606 298.006 606 c 257
 298.006 485 l 257
 233.006 485 171.006 427 171.006 327 c 256
 171.006 270 46.0059 256 40.0059 226 c 257
352.006 484 m 257
 352.006 606 l 257
 520.006 606 594.006 456 595.006 353 c 258
 595.006 165 l 258
 595.006 138 611.006 123 636.006 123 c 257
 636.006 0 l 257
 521.006 0 473.006 84 473.006 165 c 258
 472.006 354 l 258
 471.006 418 430.006 484 352.006 484 c 257
EndSplineSet
Validated: 37
EndChar

StartChar: tml_LU
Encoding: 53 -1 53
GlifName: tml_L_U_
Width: 1100
VWidth: 0
GlyphClass: 2
Flags: HW
HStem: -257 94<182.5 417 199 417 199 471 471 700 700 701> 0 122 237 123 485 121
VStem: 61 124 61 131 61 171 333 123 493 122 753 122<-80 231>
LayerCount: 2
Fore
SplineSet
471 -257 m 257
 471 -163 l 257
 700 -163 l 258
 749 -163 753 -110 753 -80 c 258
 753 231 l 257
 875 231 l 257
 875 -80 l 258
 875 -146 854 -257 701 -257 c 258
 471 -257 l 257
49 -125 m 258
 49 -57 112 -27 200 -27 c 258
 929 -27 l 257
 929 583 l 256
 1051 583 l 256
 1051 -120 l 257
 200 -120 l 258
 160 -120 161 -163 199 -163 c 258
 417 -163 l 257
 417 -257 l 257
 199 -257 l 258
 166 -257 50 -253 49 -158 c 258
 49 -125 l 258
EndSplineSet
Refer: 55 2994 N 1 0 0 1 20 0 2
Validated: 37
PickledDataWithLists: "(dp1
S'com.fontlab.hintData'
p2
(dp3
S'vhints'
p4
(lp5
(dp6
S'position'
p7
L51L
sS'width'
p8
L124L
sa(dp9
g7
L51L
sg8
L131L
sa(dp10
g7
L51L
sg8
L171L
sa(dp11
g7
L323L
sg8
L123L
sa(dp12
g7
L483L
sg8
L122L
sa(dp13
g7
L743L
sg8
L122L
sasS'hhints'
p14
(lp15
(dp16
g7
L-257L
sg8
L94L
sa(dp17
g7
L0L
sg8
L122L
sa(dp18
g7
L237L
sg8
L123L
sa(dp19
g7
L485L
sg8
L121L
sass."
EndChar

StartChar: tml_LUu
Encoding: 54 -1 54
GlifName: tml_L_U_u
Width: 1448
VWidth: 0
GlyphClass: 2
Flags: HW
HStem: -257 94<172.5 407 189 407 461 690 690 691 189 461> 0 122 237 123 485 121
VStem: 51 124 51 131 51 171 323 123 483 122 743 122<-80 231>
LayerCount: 2
Fore
SplineSet
189 -257 m 258
 156 -257 40 -253 39 -158 c 258
 39 -125 l 258
 39 -57 102 -27 190 -27 c 258
 919 -27 l 257
 919 583 l 256
 1041 583 l 256
 1041 -120 l 257
 190 -120 l 258
 150 -120 151 -163 189 -163 c 258
 407 -163 l 257
 407 -257 l 257
 189 -257 l 258
461 -257 m 257
 461 -163 l 257
 690 -163 l 258
 739 -163 743 -110 743 -80 c 258
 743 231 l 257
 865 231 l 257
 865 -80 l 258
 865 -146 844 -257 691 -257 c 258
 461 -257 l 257
919 474 m 257
 919 596 l 257
 1098 596 l 257
 1098 474 l 257
 919 474 l 257
1203 1 m 257
 1203 594 l 257
 1325 594 l 257
 1325 1 l 257
 1203 1 l 257
1151 474 m 257
 1151 596 l 257
 1409 596 l 257
 1409 474 l 257
 1151 474 l 257
EndSplineSet
Refer: 55 2994 N 1 0 0 1 10 0 2
Validated: 37
PickledDataWithLists: "(dp1
S'com.fontlab.hintData'
p2
(dp3
S'vhints'
p4
(lp5
(dp6
S'position'
p7
L51L
sS'width'
p8
L124L
sa(dp9
g7
L51L
sg8
L131L
sa(dp10
g7
L51L
sg8
L171L
sa(dp11
g7
L323L
sg8
L123L
sa(dp12
g7
L483L
sg8
L122L
sa(dp13
g7
L743L
sg8
L122L
sasS'hhints'
p14
(lp15
(dp16
g7
L-257L
sg8
L94L
sa(dp17
g7
L0L
sg8
L122L
sa(dp18
g7
L237L
sg8
L123L
sa(dp19
g7
L485L
sg8
L121L
sass."
EndChar

StartChar: tml_La
Encoding: 55 2994 55
GlifName: tml_L_a
Width: 892
VWidth: 0
GlyphClass: 2
Flags: HW
HStem: 0 122<193.5 210 193.5 210 265 285.5 193.5 319.5> 237 123 485 121<264.5 297>
VStem: 39 171<0 220 237 323 323 359> 39 131<151 377 298.5 323 323 373.5> 39 124<165 195.5 165 220 165 323> 311 123 472 122<151.5 165 151.5 165> 731 122
AnchorPoint: "tml_virama" 551 0 basechar 0
LayerCount: 2
Fore
SplineSet
265 0 m 257
 265 122 l 256
 306 122 312 150 311 181 c 256
 310 208 307 237 265 237 c 257
 265 359 l 256
 361 359 434 276 434 224 c 258
 434 152 l 258
 435 89 374 0 265 0 c 257
39 151 m 256
 39 193 40 140 39 220 c 256
 38 324 160 359 210 359 c 257
 210 237 l 256
 181 237 163 210 163 181 c 256
 163 149 177 122 210 122 c 257
 210 0 l 256
 108 0 39 91 39 151 c 256
39 226 m 257
 39 323 l 258
 39 424 118 606 297 606 c 257
 297 485 l 257
 232 485 170 427 170 327 c 256
 170 270 45 256 39 226 c 257
351 484 m 257
 351 606 l 257
 519 606 593 456 594 353 c 258
 594 165 l 258
 594 138 610 123 635 123 c 257
 635 0 l 257
 520 0 472 84 472 165 c 258
 471 354 l 258
 470 418 429 484 351 484 c 257
680 594 m 257
 800 595 854 541 854 424 c 258
 854 166 l 258
 854 81 798 0 688 0 c 257
 688 123 l 257
 715 123 731 139 731 166 c 257
 731 422 l 257
 731 458 719 471 681 471 c 257
 680 594 l 257
EndSplineSet
Validated: 37
PickledDataWithLists: "(dp1
S'com.fontlab.hintData'
p2
(dp3
S'vhints'
p4
(lp5
(dp6
S'position'
p7
L39L
sS'width'
p8
L171L
sa(dp9
g7
L39L
sg8
L131L
sa(dp10
g7
L39L
sg8
L124L
sa(dp11
g7
L311L
sg8
L123L
sa(dp12
g7
L472L
sg8
L122L
sa(dp13
g7
L731L
sg8
L122L
sasS'hhints'
p14
(lp15
(dp16
g7
L0L
sg8
L122L
sa(dp17
g7
L237L
sg8
L123L
sa(dp18
g7
L485L
sg8
L121L
sass."
EndChar

StartChar: tml_LlAi
Encoding: 56 -1 56
GlifName: tml_L_lA_i
Width: 1304
VWidth: 0
GlyphClass: 2
Flags: W
LayerCount: 2
Fore
SplineSet
443.415 43 m 257
 192.415 -130 -67.6143 67.3271 93.415 298.141 c 258
 291.959 582.727 l 256
 387.959 741 302.282 815.57 230.959 816 c 257
 173.959 816 162.959 782 162.959 767 c 256
 162.959 746 173.959 727 196.959 727 c 256
 221.959 727 230.959 744 230.959 760 c 256
 301.959 677 l 257
 291.959 634 244.959 606 199.959 606 c 256
 -25.7314 606 -7.04102 941 220.959 941 c 256
 414.565 941 511.415 740 427.959 584 c 257
 206.415 244 l 256
 100.956 72.9805 333.415 72 396.415 174 c 257
 443.415 43 l 257
367.415 151 m 256
 367.415 193 368.415 140 367.415 220 c 256
 366.415 324 488.415 359 538.415 359 c 257
 538.415 237 l 256
 509.415 237 491.415 210 491.415 181 c 256
 491.415 149 505.415 122 538.415 122 c 257
 538.415 0 l 256
 436.415 0 367.415 91 367.415 151 c 256
593.415 0 m 257
 593.415 122 l 256
 634.415 122 640.415 150 639.415 181 c 256
 638.415 208 635.415 237 593.415 237 c 257
 593.415 359 l 256
 689.415 359 762.415 276 762.415 224 c 258
 762.415 152 l 258
 763.415 89 702.415 0 593.415 0 c 257
679.415 484 m 257
 679.415 605 l 257
 841.415 605 923.415 454 923.415 355 c 257
 927.415 0 l 257
 801.415 0 l 257
 800.415 354 l 257
 799.415 417 748.415 484 679.415 484 c 257
367.415 226 m 257
 367.415 326 l 258
 367.415 427 446.415 605 625.415 605 c 257
 625.415 484 l 257
 560.415 484 498.415 427 498.415 327 c 256
 498.415 270 373.415 256 367.415 226 c 257
800.415 325 m 257
 800.415 440 813.415 605 986.415 605 c 257
 986.415 482 l 257
 945.415 482 923.415 454 923.415 326 c 257
 800.415 325 l 257
1068.42 0 m 257
 1068.42 574 l 257
 1190.42 574 l 257
 1190.42 0 l 257
 1068.42 0 l 257
1040.42 482 m 257
 1040.42 605 l 257
 1264.42 605 l 257
 1264.42 482 l 257
 1040.42 482 l 257
EndSplineSet
Validated: 37
EndChar

StartChar: tml_LlI
Encoding: 57 -1 57
GlifName: tml_L_lI_
Width: 1154
VWidth: 0
GlyphClass: 2
Flags: HW
LayerCount: 2
Fore
SplineSet
40.0059 151 m 256
 40.0059 193 41.0059 140 40.0059 220 c 256
 39.0059 324 161.006 359 211.006 359 c 257
 211.006 237 l 256
 182.006 237 164.006 210 164.006 181 c 256
 164.006 149 178.006 122 211.006 122 c 257
 211.006 0 l 256
 109.006 0 40.0059 91 40.0059 151 c 256
266.006 0 m 257
 266.006 122 l 256
 307.006 122 313.006 150 312.006 181 c 256
 311.006 208 308.006 237 266.006 237 c 257
 266.006 359 l 256
 362.006 359 435.006 276 435.006 224 c 258
 435.006 152 l 258
 436.006 89 375.006 0 266.006 0 c 257
733.006 578 m 257
 733.006 578 l 257
 733.006 682 747.006 798 896.006 798 c 256
 896.006 798 l 257
 896.006 676 l 256
 896.006 676 l 256
 852.006 676 856.006 639 856.006 578 c 256
 733.006 578 l 257
352.006 484 m 257
 352.006 605 l 257
 514.006 605 596.006 454 596.006 355 c 257
 600.006 0 l 257
 474.006 0 l 257
 473.006 354 l 257
 472.006 417 421.006 484 352.006 484 c 257
950.006 676 m 257
 950.006 798 l 257
 1101.01 798 1114.01 683 1114.01 580 c 258
 1114.00976562 0 l 261
 992.005859375 0 l 261
 992.006 577 l 258
 992.006 639 997.006 676 950.006 676 c 257
40.0059 226 m 257
 40.0059 326 l 258
 40.0059 427 119.006 605 298.006 605 c 257
 298.006 484 l 257
 233.006 484 171.006 427 171.006 327 c 256
 171.006 270 46.0059 256 40.0059 226 c 257
473.006 325 m 257
 473.006 440 486.006 605 659.006 605 c 257
 659.006 482 l 257
 611.006 482 596.006 454 596.006 326 c 257
 473.006 325 l 257
741.006 0 m 257
 741.006 574 l 257
 863.006 574 l 257
 863.006 0 l 257
 741.006 0 l 257
710.006 482 m 257
 710.006 605 l 257
 937.006 605 l 257
 937.006 482 l 257
 710.006 482 l 257
EndSplineSet
Validated: 37
EndChar

StartChar: tml_LlIi
Encoding: 58 -1 58
GlifName: tml_L_lI_i
Width: 1150
VWidth: 0
GlyphClass: 2
Flags: HW
LayerCount: 2
Fore
SplineSet
740.006 482.656 m 257
 740.006 606 l 256
 666.006 765 737.399 953 940.006 953 c 256
 1168.01 953 1159.7 640 961.006 640 c 256
 916.006 640 869.006 678 859.006 699 c 257
 930.006 782 l 256
 930.006 766 939.006 749 964.006 749 c 256
 987.006 749 998.006 768 998.006 789 c 256
 998.006 804 987.006 838 930.006 838 c 257
 858.683 837.57 789.006 763 864.006 604.727 c 256
 864.006 482.656 l 257
 740.006 482.656 l 257
EndSplineSet
Refer: 61 2995 N 1 0 0 1 -0.993638 0 2
Validated: 37
EndChar

StartChar: tml_LlU
Encoding: 59 -1 59
GlifName: tml_L_lU_
Width: 1350
VWidth: 0
GlyphClass: 2
Flags: HW
LayerCount: 2
Fore
SplineSet
234 -178 m 258
 125 -178 40 -110 40 29 c 258
 40 292 l 258
 40 455 154 501 239 501 c 256
 240 379 l 256
 166 379 163 323 163 287 c 258
 163 28 l 258
 163 -36 186 -56 250 -56 c 258
 654 -56 l 257
 654 -178 l 257
 234 -178 l 258
708 -178 m 257
 708 -56 l 257
 1122 -56 l 258
 1191 -56 1188 -6 1188 37 c 258
 1188 187 l 258
 1188 237 1168 245 1146 245 c 257
 1146 372 l 257
 1208 366 1310 329 1310 221 c 258
 1310 -16 l 258
 1310 -83 1249 -178 1123 -178 c 258
 708 -178 l 257
EndSplineSet
Refer: 61 2995 N 1 0 0 1 228 -3 2
Validated: 37
EndChar

StartChar: tml_LlUu
Encoding: 60 -1 60
GlifName: tml_L_lU_u
Width: 1461
VWidth: 0
GlyphClass: 2
Flags: HW
LayerCount: 2
Fore
SplineSet
40.0283 29 m 258
 40.0283 356 l 258
 39.0283 447 64.0283 564 197.028 564 c 258
 207.028 564 l 258
 311.028 564 362.028 476 362.028 421 c 258
 362.028 393 l 258
 362.028 324 292.028 252 207.028 252 c 257
 207.028 374 l 256
 227.028 374 240.028 386 240.028 408 c 256
 240.028 431 226.028 442 208.028 442 c 256
 170.028 442 165.028 419 165.028 353 c 258
 165.028 28 l 258
 165.028 -34 187.028 -54 251.028 -54 c 258
 766.028 -54 l 257
 766.028 -176 l 257
 235.028 -176 l 258
 126.028 -176 40.0283 -108 40.0283 29 c 258
819.028 -54 m 257
 1233.03 -54 l 258
 1302.03 -54 1299.03 -4 1299.03 39 c 258
 1299.03 187 l 258
 1299.03 237 1279.03 245 1257.03 245 c 257
 1257.03 372 l 257
 1319.03 366 1421.03 329 1421.03 221 c 258
 1421.03 -14 l 258
 1421.03 -81 1360.03 -176 1234.03 -176 c 258
 819.028 -176 l 257
 819.028 -54 l 257
EndSplineSet
Refer: 61 2995 N 1 0 0 1 339.028 0 2
Validated: 37
EndChar

StartChar: tml_Lla
Encoding: 61 2995 61
GlifName: tml_L_la
Width: 976
VWidth: 0
GlyphClass: 2
Flags: HW
HStem: 0 122<195.5 212 195.5 212 267 287.5 195.5 321.5> 237 123 482 123<639.5 660 714 938>
VStem: 41 171<0 220 237 326 326 359> 41 131<151 377 298.5 326 326 376.5> 41 124<165 195.5 165 220 165 326> 313 123
AnchorPoint: "tml_virama" 531 0 basechar 0
LayerCount: 2
Fore
SplineSet
41 151 m 256
 41 193 42 140 41 220 c 256
 40 324 162 359 212 359 c 257
 212 237 l 256
 183 237 165 210 165 181 c 256
 165 149 179 122 212 122 c 257
 212 0 l 256
 110 0 41 91 41 151 c 256
267 0 m 257
 267 122 l 256
 308 122 314 150 313 181 c 256
 312 208 309 237 267 237 c 257
 267 359 l 256
 363 359 436 276 436 224 c 258
 436 152 l 258
 437 89 376 0 267 0 c 257
353 484 m 257
 353 605 l 257
 515 605 597 454 597 355 c 257
 601 0 l 257
 475 0 l 257
 474 354 l 257
 473 417 422 484 353 484 c 257
41 226 m 257
 41 326 l 258
 41 427 120 605 299 605 c 257
 299 484 l 257
 234 484 172 427 172 327 c 256
 172 270 47 256 41 226 c 257
474 325 m 257
 474 440 487 605 660 605 c 257
 660 482 l 257
 619 482 597 454 597 326 c 257
 474 325 l 257
742 0 m 257
 742 574 l 257
 864 574 l 257
 864 0 l 257
 742 0 l 257
714 482 m 257
 714 605 l 257
 938 605 l 257
 938 482 l 257
 714 482 l 257
EndSplineSet
Validated: 37
PickledDataWithLists: "(dp1
S'com.fontlab.hintData'
p2
(dp3
S'vhints'
p4
(lp5
(dp6
S'position'
p7
L41L
sS'width'
p8
L171L
sa(dp9
g7
L41L
sg8
L131L
sa(dp10
g7
L41L
sg8
L124L
sa(dp11
g7
L313L
sg8
L123L
sasS'hhints'
p12
(lp13
(dp14
g7
L0L
sg8
L122L
sa(dp15
g7
L237L
sg8
L123L
sa(dp16
g7
L482L
sg8
L123L
sass."
EndChar

StartChar: tml_LllI
Encoding: 62 -1 62
GlifName: tml_L_llI_
Width: 844
VWidth: 0
GlyphClass: 2
Flags: HW
LayerCount: 2
Fore
SplineSet
406 483 m 257
 372 483 366 459 366 434 c 258
 366 122 l 257
 244 122 l 256
 244 434 l 258
 243 571 325 605 406 605 c 257
 460 605 l 257
 548 605 625 564 625 434 c 258
 625 197 l 258
 625 51 541 0 460 0 c 256
 460 123 l 257
 500 123 503 157 503 179 c 258
 503 434 l 258
 503 457 501 483 460 483 c 257
 406 483 l 257
363 594.289 m 257
 363 594.289 l 257
 363 698.289 405 814.289 554 814.289 c 256
 554 814.289 l 257
 554 692.289 l 256
 554 692.289 l 256
 503 692.289 486 655.289 486 594.289 c 256
 363 594.289 l 257
608 692.289 m 257
 608 814.289 l 257
 759 814.289 804 699.289 804 596.289 c 258
 804 0.2890625 l 257
 682 0.2890625 l 257
 682 593.289 l 258
 682 655.289 661 692.289 608 692.289 c 257
244 1 m 257
 366 1 l 257
 366 -29 402 -22 560 -22 c 257
 560 -146 l 256
 430 -145 l 257
 266 -146 244 -60 244 1 c 257
40 107 m 257
 40 595 l 257
 162 595 l 257
 162 107 l 257
 40 107 l 257
176 -67 m 257
 54 -67 l 257
 54 -191 184 -260 328 -165 c 257
 282 -160 236 -119 232 -87 c 257
 214 -103 177 -91 176 -67 c 257
40 0 m 257
 40 123 l 257
 406 123 l 257
 406 0 l 257
 284 -0 162 0 40 0 c 257
EndSplineSet
Validated: 37
EndChar

StartChar: tml_LllIi
Encoding: 63 -1 63
GlifName: tml_L_llI_i
Width: 779
VWidth: 0
GlyphClass: 2
Flags: HW
LayerCount: 2
Fore
SplineSet
406 483 m 257
 372 483 366 459 366 434 c 258
 366 122 l 257
 244 122 l 256
 244 434 l 258
 243 571 325 605 406 605 c 257
 460 605 l 257
 548 605 625 564 625 434 c 258
 625 197 l 258
 625 51 541 0 460 0 c 256
 460 123 l 257
 500 123 503 157 503 179 c 258
 503 434 l 258
 503 457 501 483 460 483 c 257
 406 483 l 257
369 517.656 m 257
 369 597 l 256
 295 756 366.394 944 569 944 c 256
 797 944 788.69 631 590 631 c 256
 545 631 498 669 488 690 c 257
 559 773 l 256
 559 757 568 740 593 740 c 256
 616 740 627 759 627 780 c 256
 627 795 616 829 559 829 c 257
 487.677 828.57 418 754 493 595.727 c 256
 493 517.656 l 257
 369 517.656 l 257
244 1 m 257
 366 1 l 257
 366 -29 402 -22 560 -22 c 257
 560 -146 l 256
 430 -145 l 257
 266 -146 244 -60 244 1 c 257
40 107 m 257
 40 595 l 257
 162 595 l 257
 162 107 l 257
 40 107 l 257
176 -67 m 257
 54 -67 l 257
 54 -191 184 -260 328 -165 c 257
 282 -160 236 -119 232 -87 c 257
 214 -103 177 -91 176 -67 c 257
40 0 m 257
 40 123 l 257
 406 123 l 257
 406 0 l 257
 40 0 l 257
EndSplineSet
Validated: 37
EndChar

StartChar: tml_LllU
Encoding: 64 -1 64
GlifName: tml_L_llU_
Width: 892
VWidth: 0
GlyphClass: 2
Flags: HW
HStem: -258 93<191.5 377 262 377 262 377 262 431 431 653> -146 179 0 123 107 17 122 1 483 122
VStem: 52 123<-85 -53 -85 -52> 267 122 470 122<-146 32 -146 32> 471 122 587 5<-120 -27 -27 -27> 653 93<-165 -120 -120 -120> 730 123
LayerCount: 2
Fore
SplineSet
49 532 m 258
 48 623 75 740 208 740 c 258
 286 740 l 257
 286 619 l 256
 219 619 l 257
 181 619 176 595 176 529 c 258
 175 -53 l 258
 175 -117 198 -165 262 -165 c 258
 377 -165 l 257
 377 -258 l 257
 246 -258 l 258
 137 -258 52 -191 52 -52 c 258
 49 532 l 258
431 -165 m 256
 653 -165 l 256
 653 -120 l 256
 587 -120 l 256
 587 -27 l 257
 663 -27 l 258
 727 -27 746 -57 746 -107 c 258
 746 -174 l 258
 746 -226 720 -258 657 -258 c 258
 431 -258 l 257
 431 -165 l 256
470 32 m 257
 592 32 l 257
 592 -146 l 257
 470 -146 l 257
 470 32 l 257
EndSplineSet
Refer: 71 2990 N 1 0 0 1 228 0 2
Validated: 37
PickledDataWithLists: "(dp1
S'com.fontlab.hintData'
p2
(dp3
S'vhints'
p4
(lp5
(dp6
S'position'
p7
L52L
sS'width'
p8
L123L
sa(dp9
g7
L267L
sg8
L122L
sa(dp10
g7
L470L
sg8
L122L
sa(dp11
g7
L471L
sg8
L122L
sa(dp12
g7
L587L
sg8
L5L
sa(dp13
g7
L653L
sg8
L93L
sa(dp14
g7
L730L
sg8
L123L
sasS'hhints'
p15
(lp16
(dp17
g7
L-258L
sg8
L93L
sa(dp18
g7
L-146L
sg8
L179L
sa(dp19
g7
L0L
sg8
L123L
sa(dp20
g7
L107L
sg8
L17L
sa(dp21
g7
L122L
sg8
L1L
sa(dp22
g7
L483L
sg8
L122L
sass."
EndChar

StartChar: tml_LllUu
Encoding: 65 -1 65
GlifName: tml_L_llU_u
Width: 1003
VWidth: 0
GlyphClass: 2
Flags: HW
HStem: -258 93<179.5 488 250 488 250 488 250 542 542 765> -146 179 2 123 108 17 124 1 442 122<196 206 206 216> 485 122
VStem: 39 125<-52 353> 239 122<397 419.5> 378 122 581 122<-146 32 -146 32> 582 122 698 5<-120 -27 -27 -27> 765 93 842 123
LayerCount: 2
Fore
SplineSet
39 -52 m 258
 39 356 l 258
 38 447 63 564 196 564 c 258
 206 564 l 258
 310 564 361 476 361 421 c 258
 361 393 l 258
 361 324 291 252 206 252 c 257
 206 374 l 256
 226 374 239 386 239 408 c 256
 239 431 225 442 207 442 c 256
 169 442 164 419 164 353 c 258
 164 -53 l 258
 164 -117 186 -165 250 -165 c 258
 488 -165 l 257
 488 -258 l 257
 234 -258 l 258
 125 -258 39 -191 39 -52 c 258
542 -165 m 256
 765 -165 l 256
 765 -120 l 256
 698 -120 l 256
 698 -27 l 257
 774 -27 l 258
 838 -27 857 -57 857 -107 c 258
 857 -174 l 258
 857 -226 832 -258 769 -258 c 258
 542 -258 l 257
 542 -165 l 256
581 32 m 257
 703 32 l 257
 703 -146 l 257
 581 -146 l 257
 581 32 l 257
EndSplineSet
Refer: 71 2990 N 1 0 0 1 339 2 2
Validated: 37
PickledDataWithLists: "(dp1
S'com.fontlab.hintData'
p2
(dp3
S'vhints'
p4
(lp5
(dp6
S'position'
p7
L39L
sS'width'
p8
L125L
sa(dp9
g7
L239L
sg8
L122L
sa(dp10
g7
L378L
sg8
L122L
sa(dp11
g7
L581L
sg8
L122L
sa(dp12
g7
L582L
sg8
L122L
sa(dp13
g7
L698L
sg8
L5L
sa(dp14
g7
L765L
sg8
L93L
sa(dp15
g7
L842L
sg8
L123L
sasS'hhints'
p16
(lp17
(dp18
g7
L-258L
sg8
L93L
sa(dp19
g7
L-146L
sg8
L179L
sa(dp20
g7
L2L
sg8
L123L
sa(dp21
g7
L108L
sg8
L17L
sa(dp22
g7
L124L
sg8
L1L
sa(dp23
g7
L442L
sg8
L122L
sa(dp24
g7
L485L
sg8
L122L
sass."
EndChar

StartChar: tml_Llla
Encoding: 66 2996 66
GlifName: tml_L_lla
Width: 663
VWidth: 0
GlyphClass: 2
Flags: HW
HStem: -145 123<429 559> 0 123 107 17 122 1 483 122
VStem: 39 122 243 122<-14 1 -14 1> 503 123
AnchorPoint: "tml_virama" 441 0 basechar 0
LayerCount: 2
Fore
SplineSet
53 -67 m 257
 53 -191 183 -260 327 -165 c 257
 281 -160 235 -119 231 -87 c 257
 213 -103 176 -91 175 -67 c 257
 53 -67 l 257
243 1 m 257
 365 1 l 257
 365 -29 401 -22 559 -22 c 257
 559 -146 l 256
 429 -145 l 257
 265 -146 243 -60 243 1 c 257
EndSplineSet
Refer: 71 2990 N 1 0 0 1 0 0 2
Validated: 37
PickledDataWithLists: "(dp1
S'com.fontlab.hintData'
p2
(dp3
S'vhints'
p4
(lp5
(dp6
S'position'
p7
L39L
sS'width'
p8
L122L
sa(dp9
g7
L243L
sg8
L122L
sa(dp10
g7
L503L
sg8
L123L
sasS'hhints'
p11
(lp12
(dp13
g7
L-145L
sg8
L123L
sa(dp14
g7
L0L
sg8
L123L
sa(dp15
g7
L107L
sg8
L17L
sa(dp16
g7
L122L
sg8
L1L
sa(dp17
g7
L483L
sg8
L122L
sass."
EndChar

StartChar: tml_MI
Encoding: 67 -1 67
GlifName: tml_M_I_
Width: 844
VWidth: 0
GlyphClass: 2
Flags: HW
LayerCount: 2
Fore
SplineSet
608 692.289 m 257
 608 814.289 l 257
 759 814.289 804 699.289 804 596.289 c 258
 804 0.2890625 l 261
 682 0.2890625 l 261
 682 593.289 l 258
 682 655.289 661 692.289 608 692.289 c 257
363 594.289 m 257
 363 594.289 l 257
 363 698.289 405 814.289 554 814.289 c 256
 554 814.289 l 257
 554 692.289 l 256
 554 692.289 l 256
 503 692.289 486 655.289 486 594.289 c 256
 363 594.289 l 257
406 483 m 257
 372 483 366 459 366 434 c 258
 366 122 l 257
 244 122 l 256
 244 434 l 258
 243 571 325 605 406 605 c 257
 460 605 l 257
 548 605 625 564 625 434 c 258
 625 197 l 258
 625 51 541 0 460 0 c 256
 460 123 l 257
 500 123 503 157 503 179 c 258
 503 434 l 258
 503 457 501 483 460 483 c 257
 406 483 l 257
40 107 m 257
 40 595 l 257
 162 595 l 257
 162 107 l 257
 40 107 l 257
40 0 m 257
 40 123 l 257
 406 123 l 257
 406 0 l 257
 40 0 l 257
EndSplineSet
Validated: 37
EndChar

StartChar: tml_MIi
Encoding: 68 -1 68
GlifName: tml_M_I_i
Width: 783
VWidth: 0
GlyphClass: 2
Flags: W
LayerCount: 2
Fore
SplineSet
406 483 m 257
 372 483 366 459 366 434 c 258
 366 122 l 257
 244 122 l 256
 244 434 l 258
 243 571 325 605 406 605 c 257
 460 605 l 257
 548 605 625 564 625 434 c 258
 625 197 l 258
 625 51 541 0 460 0 c 256
 460 123 l 257
 500 123 503 157 503 179 c 258
 503 434 l 258
 503 457 501 483 460 483 c 257
 406 483 l 257
373 497.656 m 257
 373 595 l 256
 299 754 370.394 942 573 942 c 256
 801 942 792.69 629 594 629 c 256
 549 629 502 667 492 688 c 257
 563 771 l 256
 563 755 572 738 597 738 c 256
 620 738 631 757 631 778 c 256
 631 793 620 827 563 827 c 257
 491.677 826.57 422 752 497 593.727 c 256
 497 497.656 l 257
 373 497.656 l 257
40 107 m 257
 40 595 l 257
 162 595 l 257
 162 107 l 257
 40 107 l 257
40 0 m 257
 40 123 l 257
 406 123 l 257
 406 0 l 257
 40 0 l 257
EndSplineSet
Validated: 37
EndChar

StartChar: tml_MU
Encoding: 69 -1 69
GlifName: tml_M_U_
Width: 915
VWidth: 0
GlyphClass: 2
Flags: HW
HStem: -151 122 0 123 107 17 122 1 483 122 634 122<201 238>
VStem: 39 123 289 122 493 122<-56 15 -91.5 15> 753 123
LayerCount: 2
Fore
SplineSet
233 -178 m 262
 124 -178 39 -111 39 28 c 262
 39 546 l 262
 39 709 153 756 238 756 c 260
 238 634 l 260
 164 634 161 577 161 541 c 262
 161 27 l 262
 161 -37 185 -56 249 -56 c 262
 340 -56 l 261
 340 -178 l 261
 233 -178 l 262
394 -56 m 256
 493 -56 l 256
 493 15 l 257
 615 15 l 257
 615 -57 l 258
 615 -126 575 -178 494 -178 c 258
 394 -178 l 257
 394 -56 l 256
EndSplineSet
Refer: 71 2990 N 1 0 0 1 250 0 2
Validated: 5
PickledDataWithLists: "(dp1
S'com.fontlab.hintData'
p2
(dp3
S'vhints'
p4
(lp5
(dp6
S'position'
p7
L39L
sS'width'
p8
L123L
sa(dp9
g7
L289L
sg8
L122L
sa(dp10
g7
L493L
sg8
L122L
sa(dp11
g7
L753L
sg8
L123L
sasS'hhints'
p12
(lp13
(dp14
g7
L-151L
sg8
L122L
sa(dp15
g7
L0L
sg8
L123L
sa(dp16
g7
L107L
sg8
L17L
sa(dp17
g7
L122L
sg8
L1L
sa(dp18
g7
L483L
sg8
L122L
sa(dp19
g7
L634L
sg8
L122L
sass."
EndChar

StartChar: tml_MUu
Encoding: 70 -1 70
GlifName: tml_M_U_u
Width: 1016
VWidth: 0
GlyphClass: 2
Flags: HW
HStem: -151 122 0 123 107 17 122 1 442 122<196 206 206 216> 483 122
VStem: 39 125<27 353> 239 122<397 419.5> 391 122 595 122<-56 15 -91.5 15> 854 123
LayerCount: 2
Fore
SplineSet
39 27 m 258
 39 356 l 258
 38 447 63 564 196 564 c 258
 206 564 l 258
 310 564 361 476 361 421 c 258
 361 393 l 258
 361 324 291 252 206 252 c 257
 206 374 l 256
 226 374 239 386 239 408 c 256
 239 431 225 442 207 442 c 256
 169 442 164 419 164 353 c 258
 164 26 l 258
 164 -37 186 -56 250 -56 c 258
 441 -56 l 257
 441 -178 l 257
 234 -178 l 258
 125 -178 39 -111 39 27 c 258
495 -56 m 256
 595 -56 l 256
 595 15 l 257
 717 15 l 257
 717 -57 l 258
 717 -126 677 -178 596 -178 c 258
 495 -178 l 257
 495 -56 l 256
EndSplineSet
Refer: 71 2990 N 1 0 0 1 352 0 2
Validated: 37
PickledDataWithLists: "(dp1
S'com.fontlab.hintData'
p2
(dp3
S'vhints'
p4
(lp5
(dp6
S'position'
p7
L39L
sS'width'
p8
L125L
sa(dp9
g7
L239L
sg8
L122L
sa(dp10
g7
L391L
sg8
L122L
sa(dp11
g7
L595L
sg8
L122L
sa(dp12
g7
L854L
sg8
L123L
sasS'hhints'
p13
(lp14
(dp15
g7
L-151L
sg8
L122L
sa(dp16
g7
L0L
sg8
L123L
sa(dp17
g7
L107L
sg8
L17L
sa(dp18
g7
L122L
sg8
L1L
sa(dp19
g7
L442L
sg8
L122L
sa(dp20
g7
L483L
sg8
L122L
sass."
EndChar

StartChar: tml_Ma
Encoding: 71 2990 71
GlifName: tml_M_a
Width: 663
VWidth: 0
GlyphClass: 2
Flags: HW
HStem: 0 123<39 405 39 405 459 479 39 499.5> 107 17 122 1<243 243 243 365> 483 122<388 405 459 479.5>
VStem: 39 122<107 123 107 595 123 123 107 595> 243 122<122 434 122 434> 503 123
AnchorPoint: "tml_virama" 411 0 basechar 0
LayerCount: 2
Fore
SplineSet
459 0 m 256
 459 123 l 257
 499 123 502 157 502 179 c 258
 502 434 l 258
 502 457 500 483 459 483 c 257
 459 605 l 257
 547 605 624 564 624 434 c 258
 624 197 l 258
 624 51 540 0 459 0 c 256
243 122 m 256
 243 434 l 258
 242 571 324 605 405 605 c 257
 405 483 l 257
 371 483 365 459 365 434 c 258
 365 122 l 257
 243 122 l 256
39 107 m 257
 39 595 l 257
 161 595 l 257
 161 107 l 257
 39 107 l 257
39 0 m 257
 39 123 l 257
 405 123 l 257
 405 0 l 257
 39 0 l 257
EndSplineSet
Validated: 37
PickledDataWithLists: "(dp1
S'com.fontlab.hintData'
p2
(dp3
S'vhints'
p4
(lp5
(dp6
S'position'
p7
L39L
sS'width'
p8
L122L
sa(dp9
g7
L243L
sg8
L122L
sa(dp10
g7
L503L
sg8
L123L
sasS'hhints'
p11
(lp12
(dp13
g7
L0L
sg8
L123L
sa(dp14
g7
L107L
sg8
L17L
sa(dp15
g7
L122L
sg8
L1L
sa(dp16
g7
L483L
sg8
L122L
sass."
EndChar

StartChar: tml_MatraAa
Encoding: 72 3006 72
GlifName: tml_M_atraA_a
Width: 568
VWidth: 0
GlyphClass: 2
Flags: W
HStem: 0 21<39 39 39 161 323 323 323 445> 473 122<39 218 39 218 39 271 271 529>
VStem: 39 179<473 592 473 595 592 592 473 595> 39 122<0 592 473 593 0 595 592 592 0 595>
LayerCount: 2
Fore
SplineSet
323 0 m 257
 323 593 l 257
 445 593 l 257
 445 0 l 257
 323 0 l 257
39 0 m 257
 39 592 l 257
 161 593 l 257
 161 0 l 257
 39 0 l 257
271 473 m 257
 271 595 l 257
 529 595 l 257
 529 473 l 257
 271 473 l 257
39 473 m 257
 39 595 l 257
 218 595 l 257
 218 473 l 257
 39 473 l 257
EndSplineSet
Validated: 5
PickledDataWithLists: "(dp1
S'com.fontlab.hintData'
p2
(dp3
S'vhints'
p4
(lp5
(dp6
S'position'
p7
L39L
sS'width'
p8
L179L
sa(dp9
g7
L39L
sg8
L122L
sasS'hhints'
p10
(lp11
(dp12
g7
L0L
sg8
L21L
sa(dp13
g7
L473L
sg8
L122L
sass."
EndChar

StartChar: tml_MatraAi
Encoding: 73 3016 73
GlifName: tml_M_atraA_i
Width: 1043
VWidth: 0
GlyphClass: 2
Flags: W
LayerCount: 2
Fore
SplineSet
423 157 m 257
 423 288 l 258
 423 591 689 606 748 606 c 257
 748 484 l 257
 667 484 545 477 545 290 c 258
 545 158 l 258
 545 146 543 112 568 112 c 257
 568 -11 l 256
 473 -11 423 72 423 157 c 257
389 483 m 257
 389 605 l 257
 531 605 768 586 768 301 c 258
 768 157 l 258
 768 65 719 -11 622 -11 c 257
 622 112 l 256
 650 112 646 146 646 157 c 258
 646 290 l 258
 646 476 522 482 389 483 c 257
40 156 m 257
 40 290 l 258
 40 596 266 605 335 605 c 257
 335 483 l 257
 255 483 162 476 162 290 c 258
 162 157 l 258
 162 145 161 111 186 111 c 257
 186 -11 l 256
 91 -11 40 71 40 156 c 257
210 342 m 257
 207 376 238 432 295 437 c 257
 362 437 385 378 385 290 c 258
 385 156 l 258
 385 64 336 -11 239 -11 c 257
 239 112 l 256
 267 112 263 145 263 156 c 258
 263 290 l 258
 263 342 231 342 210 342 c 257
802 474 m 257
 802 596 l 257
 898 590 995 483 995 303 c 258
 995 162 l 258
 995 70 945 -5 841 -5 c 257
 841 117 l 256
 877 117 872 151 872 162 c 258
 872 303 l 258
 872 395 841 453 802 474 c 257
EndSplineSet
Validated: 37
EndChar

StartChar: tml_MatraE
Encoding: 75 3014 75
GlifName: tml_M_atraE_
Width: 633
VWidth: 0
GlyphClass: 2
Flags: W
LayerCount: 2
Fore
SplineSet
265 0 m 257
 265 122 l 256
 306 122 312 150 311 181 c 256
 310 208 307 237 265 237 c 257
 265 359 l 256
 361 359 434 276 434 224 c 258
 434 152 l 258
 435 89 374 0 265 0 c 257
39 151 m 256
 39 193 40 140 39 220 c 256
 38 324 160 359 210 359 c 257
 210 237 l 256
 181 237 163 210 163 181 c 256
 163 149 177 122 210 122 c 257
 210 0 l 256
 108 0 39 91 39 151 c 256
350 596 m 257
 350 718 l 257
 522 718 595 592 595 451 c 258
 595 -10 l 257
 473 -10 l 257
 473 451 l 258
 473 514 461 596 350 596 c 257
39 214 m 257
 39 268 l 257
 39 451 l 258
 39 591 116 718 296 718 c 256
 296 718 l 257
 296 596 l 256
 296 596 l 256
 200 596 162 543 162 451 c 258
 162 315 l 258
 163 258 45 244 39 214 c 257
EndSplineSet
Validated: 37
EndChar

StartChar: tml_MatraEe
Encoding: 76 3015 76
GlifName: tml_M_atraE_e
Width: 621
VWidth: 0
GlyphClass: 2
Flags: W
HStem: -42 121<331 351 331 356 331 358 351 356 331 467.5> 194 123<343.5 358 413 434> 346 122<341.5 358 341.5 358 413 433.5 341.5 467.5> 582 123<343.5 354 354 358 413 434>
VStem: 39 121<195 208 208 462> 187 125 459 123
LayerCount: 2
Fore
SplineSet
413 346 m 257
 413 468 l 256
 454 468 460 495 459 526 c 256
 458 553 455 582 413 582 c 257
 413 705 l 256
 509 705 582 621 582 569 c 258
 582 498 l 258
 583 435 522 346 413 346 c 257
187 497 m 256
 187 539 188 486 187 566 c 256
 186 670 308 705 358 705 c 257
 358 582 l 256
 329 582 311 555 311 526 c 256
 311 494 325 468 358 468 c 257
 358 346 l 256
 256 346 187 437 187 497 c 256
413 -42 m 257
 413 80 l 256
 454 80 460 107 459 138 c 256
 458 165 455 194 413 194 c 257
 413 317 l 256
 509 317 582 233 582 181 c 258
 582 110 l 258
 583 47 522 -42 413 -42 c 257
187 109 m 256
 187 151 188 98 187 178 c 256
 186 282 308 317 358 317 c 257
 358 194 l 256
 329 194 311 167 311 138 c 256
 311 106 325 80 358 80 c 257
 358 -42 l 256
 256 -42 187 49 187 109 c 256
39 195 m 257
 39 466 l 257
 39 676 281 705 354 705 c 256
 354 584 l 257
 299 582 160 571 160 462 c 258
 160 208 l 258
 160 113 306 79 356 79 c 257
 356 -42 l 256
 351 -42 l 258
 255 -42 39 -5 39 195 c 257
EndSplineSet
Validated: 37
PickledDataWithLists: "(dp1
S'com.fontlab.hintData'
p2
(dp3
S'vhints'
p4
(lp5
(dp6
S'position'
p7
L39L
sS'width'
p8
L121L
sa(dp9
g7
L187L
sg8
L125L
sa(dp10
g7
L459L
sg8
L123L
sasS'hhints'
p11
(lp12
(dp13
g7
L-42L
sg8
L121L
sa(dp14
g7
L194L
sg8
L123L
sa(dp15
g7
L346L
sg8
L122L
sa(dp16
g7
L582L
sg8
L123L
sass."
EndChar

StartChar: tml_MatraI
Encoding: 77 3007 77
GlifName: tml_M_atraI_
Width: 359
VWidth: 0
GlyphClass: 2
Flags: HW
LayerCount: 2
Fore
SplineSet
85 678 m 257
 85 800 l 257
 267 800 300 684 300 582 c 258
 300 69 l 257
 178 69 l 257
 178 579 l 258
 178 641 151 678 85 678 c 257
-176 580 m 257
 -176 580 l 257
 -176 684 -137 800 31 800 c 256
 31 800 l 257
 31 678 l 256
 31 678 l 256
 -30 678 -53 641 -53 580 c 256
 -176 580 l 257
EndSplineSet
Validated: 5
EndChar

StartChar: tml_MatraIi
Encoding: 78 3008 78
GlifName: tml_M_atraI_i
Width: 513
VWidth: 0
GlyphClass: 2
Flags: HW
LayerCount: 2
Fore
SplineSet
165 410 m 257
 -23 564 24 918 259 918 c 256
 334 917 437 885 437 756 c 256
 437 662 360 601 294 601 c 256
 231 601 180 652 176 673 c 257
 247 756 l 256
 247 740 256 723 281 723 c 256
 304 723 315 741 315 755 c 256
 315 793 282 796 259 796 c 257
 126 785 152 547 319 423 c 257
 165 410 l 257
EndSplineSet
Validated: 33
EndChar

StartChar: tml_MatraU
Encoding: 81 3009 81
GlifName: tml_M_atraU_
Width: 569
VWidth: 0
GlyphClass: 2
Flags: W
LayerCount: 2
Fore
SplineSet
39 574 m 257
 39 696 l 257
 323 696 l 258
 434 696 530 673 530 540 c 258
 530 530 l 258
 530 426 442 375 387 375 c 258
 358 375 l 258
 289 375 218 445 218 530 c 257
 340 530 l 256
 340 510 352 497 374 497 c 256
 397 497 408 511 408 529 c 256
 408 567 375 574 319 574 c 258
 39 574 l 257
EndSplineSet
Validated: 1
EndChar

StartChar: tml_MatraUu
Encoding: 82 3010 82
GlifName: tml_M_atraU_u
Width: 768
VWidth: 0
GlyphClass: 2
Flags: HW
LayerCount: 2
Fore
SplineSet
57 574 m 257
 57 696 l 257
 341 696 l 258
 452 696 548 673 548 540 c 258
 548 530 l 258
 548 426 460 375 405 375 c 258
 376 375 l 258
 307 375 236 445 236 530 c 257
 358 530 l 256
 358 510 370 497 392 497 c 256
 415 497 426 511 426 529 c 256
 426 567 393 574 337 574 c 258
 57 574 l 257
236 692 m 256
 236 802 333 893 465 893 c 256
 611 893 698 801 698 696 c 258
 698 372 l 258
 698 267 624 222 519 222 c 258
 460 222 l 256
 460 314 l 256
 519 314 l 258
 557 314 575 337 575 372 c 258
 575 696 l 258
 575 756 504 771 465 771 c 256
 427 771 358 758 358 692 c 257
 236 692 l 256
EndSplineSet
Validated: 5
EndChar

StartChar: tml_Month
Encoding: 83 3060 83
GlifName: tml_M_onth
Width: 1084
VWidth: 0
GlyphClass: 2
Flags: HW
LayerCount: 2
Fore
SplineSet
346 620 m 258
 371 514 l 257
 184 514 176 840 407 840 c 257
 407 840 l 257
 407 718 l 256
 407 718 l 256
 356 718 334.29296875 669.635742188 346 620 c 258
848 684 m 256
 848 606 780 558 708 558 c 256
 649 558 574 598 574 684 c 257
 676 684 l 256
 676 664 694 651 712 651 c 256
 731 651 745 669 745 683 c 256
 745 714 720 718 677 718 c 258
 457 718 l 257
 457 838 l 257
 681 838 l 258
 771 838 848 808 848 684 c 256
1045 630 m 257
 952 630 872 665 872 775 c 258
 872 860 l 258
 872 938 823 962 761 962 c 256
 700 962 676 922 676 856 c 257
 573 856 l 256
 573 966 629 1067 761 1067 c 256
 907 1067 975 1002 975 860 c 258
 975 775 l 258
 975 734 980 735 1045 733 c 256
 1045 630 l 257
459 0 m 256
 459 123 l 257
 499 123 502 157 502 179 c 258
 502 434 l 258
 502 457 500 483 459 483 c 257
 459 605 l 257
 547 605 624 564 624 434 c 258
 624 197 l 258
 624 51 540 0 459 0 c 256
243 122 m 256
 243 434 l 258
 242 571 324 605 405 605 c 257
 405 483 l 257
 371 483 365 459 365 434 c 258
 365 122 l 257
 243 122 l 256
39 107 m 257
 39 595 l 257
 161 595 l 257
 161 107 l 257
 39 107 l 257
39 0 m 257
 39 123 l 257
 405 123 l 257
 405 0 l 257
 39 0 l 257
EndSplineSet
Validated: 37
EndChar

StartChar: tml_NI
Encoding: 84 -1 84
GlifName: tml_N_I_
Width: 861
VWidth: 0
GlyphClass: 2
Flags: HW
LayerCount: 2
Fore
SplineSet
591 690 m 257
 591 812 l 257
 766 812 821 697 821 594 c 258
 821 -1 l 257
 699 -1 l 257
 699 591 l 258
 699 653 665 690 591 690 c 257
314 592 m 257
 314 592 l 257
 314 696 364 812 537 812 c 256
 537 812 l 257
 537 690 l 256
 537 690 l 256
 465 690 437 653 437 592 c 256
 314 592 l 257
EndSplineSet
Refer: 88 2984 N 1 0 0 1 1 0 2
Validated: 5
EndChar

StartChar: tml_NIi
Encoding: 85 -1 85
GlifName: tml_N_I_i
Width: 723
VWidth: 0
GlyphClass: 2
Flags: HW
LayerCount: 2
Fore
SplineSet
313 476.656 m 257
 313 596 l 256
 239 755 310.394 943 513 943 c 256
 741 943 732.69 630 534 630 c 256
 489 630 442 668 432 689 c 257
 503 772 l 256
 503 756 512 739 537 739 c 256
 560 739 571 758 571 779 c 256
 571 794 560 828 503 828 c 257
 431.677 827.57 362 753 437 594.727 c 256
 437 476.656 l 257
 313 476.656 l 257
EndSplineSet
Refer: 88 2984 N 1 0 0 1 1 0 2
Validated: 524325
EndChar

StartChar: tml_NU
Encoding: 86 -1 86
GlifName: tml_N_U_
Width: 871
VWidth: 0
GlyphClass: 2
Flags: HW
HStem: -256 94<173.5 453 190 453 507 812 812 813 190 507> -119 93<171 1053 191 1053 191 1175> 3 122 489 123 489 32
VStem: 264 122<166 300> 424 122<167 168 168 298 298 300> 647 122<167 300 300 311> 803 139 819 122 995 122
LayerCount: 2
Fore
SplineSet
50 -126 m 262
 50 -58 113 -28 201 -28 c 262
 699 -28 l 261
 699 582 l 260
 821 582 l 260
 821 -121 l 261
 201 -121 l 262
 161 -121 162 -164 200 -164 c 262
 314 -164 l 261
 314 -258 l 261
 200 -257 l 262
 167 -257 51 -254 50 -159 c 262
 50 -126 l 262
367 -258 m 261
 367 -164 l 261
 470 -164 l 262
 519 -164 522 -111 522 -81 c 262
 523 151 l 261
 645 151 l 261
 645 -81 l 262
 645 -147 624 -258 471 -258 c 262
 367 -258 l 261
72 1 m 261
 72 590 l 261
 194 590 l 261
 194 1 l 261
 72 1 l 261
312 1 m 261
 314 588 l 261
 436 588 l 261
 437 1 l 261
 312 1 l 261
72 595 m 261
 580 595 l 261
 580 473 l 261
 73 473 l 261
 72 595 l 261
476 252 m 260
 476 374 l 261
 567 374 645 352 645 205 c 261
 523 205 l 260
 523 251 518 252 476 252 c 260
EndSplineSet
Validated: 37
PickledDataWithLists: "(dp1
S'com.fontlab.hintData'
p2
(dp3
S'vhints'
p4
(lp5
(dp6
S'position'
p7
L264L
sS'width'
p8
L122L
sa(dp9
g7
L424L
sg8
L122L
sa(dp10
g7
L647L
sg8
L122L
sa(dp11
g7
L803L
sg8
L139L
sa(dp12
g7
L819L
sg8
L122L
sa(dp13
g7
L995L
sg8
L122L
sasS'hhints'
p14
(lp15
(dp16
g7
L-256L
sg8
L94L
sa(dp17
g7
L-119L
sg8
L93L
sa(dp18
g7
L3L
sg8
L122L
sa(dp19
g7
L489L
sg8
L123L
sa(dp20
g7
L489L
sg8
L32L
sass."
EndChar

StartChar: tml_NUu
Encoding: 87 -1 87
GlifName: tml_N_U_u
Width: 1583
VWidth: 0
GlyphClass: 2
Flags: HW
HStem: -256 94 -119 93 3 122 473 122<1053 1232 1053 1232 1053 1286 1286 1543> 473 111 489 123 489 32
VStem: 263 122 423 122 646 122 802 139 818 122 994 179 994 122
LayerCount: 2
Fore
SplineSet
984 -113 m 257
 984 593 l 257
 1106 593 l 257
 1106 -113 l 257
 984 -113 l 257
933 473 m 257
 933 595 l 257
 1190 595 l 257
 1190 473 l 257
 933 473 l 257
700 473 m 257
 700 595 l 257
 879 595 l 257
 879 473 l 257
 700 473 l 257
EndSplineSet
Refer: 86 -1 N 1 0 0 1 0 0 2
Validated: 5
PickledDataWithLists: "(dp1
S'com.fontlab.hintData'
p2
(dp3
S'vhints'
p4
(lp5
(dp6
S'position'
p7
L263L
sS'width'
p8
L122L
sa(dp9
g7
L423L
sg8
L122L
sa(dp10
g7
L646L
sg8
L122L
sa(dp11
g7
L802L
sg8
L139L
sa(dp12
g7
L818L
sg8
L122L
sa(dp13
g7
L994L
sg8
L179L
sa(dp14
g7
L994L
sg8
L122L
sasS'hhints'
p15
(lp16
(dp17
g7
L-256L
sg8
L94L
sa(dp18
g7
L-119L
sg8
L93L
sa(dp19
g7
L3L
sg8
L122L
sa(dp20
g7
L473L
sg8
L122L
sa(dp21
g7
L473L
sg8
L111L
sa(dp22
g7
L489L
sg8
L123L
sa(dp23
g7
L489L
sg8
L32L
sass."
EndChar

StartChar: tml_Na
Encoding: 88 2984 88
GlifName: tml_N_a
Width: 696
VWidth: 0
GlyphClass: 2
Flags: HW
HStem: -157 122<205 468 247 468 468 469>
VStem: 39 128<-257 -219.5 -257 -182> 520 123<10 25>
AnchorPoint: "tml_virama" 331 0 basechar 0
LayerCount: 2
Fore
SplineSet
71 0 m 257
 71 590 l 257
 193 590 l 257
 193 0 l 257
 71 0 l 257
286 474 m 257
 286 595 l 257
 575 595 l 257
 575 474 l 257
 286 474 l 257
312 0 m 257
 313 588 l 257
 436 588 l 257
 437 0 l 257
 312 0 l 257
71 474 m 257
 71 595 l 257
 221 595 l 257
 221 474 l 257
 71 474 l 257
489 253 m 256
 489 375 l 257
 565 375 643 353 643 206 c 258
 643 25 l 258
 643 -41 622 -208 469 -208 c 258
 226 -208 l 258
 184 -208 167 -233 167 -308 c 257
 39 -308 l 257
 39 -158 110 -86 247 -86 c 258
 468 -86 l 258
 517 -86 520 -5 520 25 c 258
 521 206 l 258
 521 252 516 253 489 253 c 256
EndSplineSet
Validated: 5
PickledDataWithLists: "(dp1
S'com.fontlab.hintData'
p2
(dp3
S'vhints'
p4
(lp5
(dp6
S'position'
p7
L39L
sS'width'
p8
L128L
sa(dp9
g7
L520L
sg8
L123L
sasS'hhints'
p10
(lp11
(dp12
g7
L-157L
sg8
L122L
sass."
EndChar

StartChar: tml_NgI
Encoding: 89 -1 89
GlifName: tml_N_gI_
Width: 1098
VWidth: 0
GlyphClass: 2
Flags: HW
LayerCount: 2
Fore
SplineSet
863 681 m 257
 863 803 l 257
 1010 803 1058 686 1058 585 c 258
 1058 0 l 257
 936 0 l 257
 936 582 l 258
 936 644 910 681 863 681 c 257
809 803 m 257
 809 681 l 256
 809 681 l 256
 761 681 736 648 736 583 c 258
 736 454 l 257
 545 454 567 803 809 803 c 257
 809 803 l 257
EndSplineSet
Refer: 93 2969 N 1 0 0 1 1 0 2
Validated: 37
EndChar

StartChar: tml_NgIi
Encoding: 90 -1 90
GlifName: tml_N_gI_i
Width: 1092
VWidth: 0
GlyphClass: 2
Flags: HW
LayerCount: 2
Fore
SplineSet
862 826 m 257
 711 826 695 629 842 595 c 257
 735 502 l 257
 542 610 594 950 855 950 c 257
 1115 950 1107.69 618 898 618 c 256
 853 618 803 656 791 679 c 257
 867 770 l 256
 867 754 876 737 901 737 c 256
 924 737 935 756 935 777 c 256
 935 792 919 826 862 826 c 257
EndSplineSet
Refer: 93 2969 N 1 0 0 1 1 0 2
Validated: 37
EndChar

StartChar: tml_NgU
Encoding: 91 -1 91
GlifName: tml_N_gU_
Width: 827
VWidth: 0
GlyphClass: 2
Flags: W
LayerCount: 2
Fore
SplineSet
665 -257 m 257
 665 595 l 257
 787 595 l 257
 787 -257 l 257
 665 -257 l 257
319 0 m 257
 319 122 l 257
 667 122 l 257
 667 0 l 257
 319 0 l 257
276 0 m 257
 276 122 l 257
 435 122 l 258
 493 122 489 126 489 145 c 258
 489 211 l 258
 489 232 493 230 458 231 c 256
 458 354 l 257
 528 354 612 322 612 229 c 258
 612 111 l 258
 612 43 551 0 457 0 c 258
 276 0 l 257
282 176 m 257
 282 589 l 257
 404 589 l 257
 404 176 l 257
 282 176 l 257
40 0 m 257
 40 591 l 257
 162 591 l 257
 162 0 l 257
 40 0 l 257
40 595 m 257
 513 595 l 257
 513 473 l 257
 41 473 l 257
 40 595 l 257
EndSplineSet
Validated: 37
EndChar

StartChar: tml_NgUu
Encoding: 92 -1 92
GlifName: tml_N_gU_u
Width: 1067
VWidth: 0
GlyphClass: 2
Flags: HW
HStem: -321 113<135.076 492 546 911> -106 92<130.023 196.854> -2 92<845 911> 0 122<337 518 673 728> 473 122<102 573>
VStem: 30 94<-201.755 -111.282> 101 122<0 473> 200 88<-142 -111.007> 343 122<176 589> 550 123<122.922 230.746> 726 2<0 122> 845 3<-2 90> 911 109<-208 -2>
LayerCount: 2
Fore
SplineSet
164 -331 m 258xcdf8
 70 -331 20 -288 20 -204 c 258
 20 -128 l 258
 20 -54 95 -14 166 -14 c 257
 241 -14 288 -61 288 -134 c 258
 288 -142 l 256
 200 -142 l 256
 200 -120 188 -107 166 -106 c 257
 144 -106 124 -122 124 -154 c 256
 124 -188 144 -208 162 -208 c 258
 492 -208 l 257
 492 -331 l 257
 164 -331 l 258xcdf8
546 -208 m 256
 911 -208 l 256
 911 -2 l 256
 845 -2 l 256
 845 120 l 257
 917 120 l 258xe8f8
 981 120 1030 90 1030 40 c 258
 1030 -227 l 258
 1030 -279 974 -331 911 -331 c 258
 546 -331 l 257
 546 -208 l 256
726 -153 m 257
 726 595 l 257
 848 595 l 257
 848 -153 l 257
 726 -153 l 257
380 0 m 257xd8f8
 380 122 l 257
 728 122 l 257
 728 0 l 257
 380 0 l 257xd8f8
337 0 m 257
 337 122 l 257
 495 122 l 258
 553 122 550 126 550 145 c 258
 550 211 l 258
 550 232 554 230 519 231 c 256
 519 354 l 257
 589 354 673 322 673 229 c 258
 673 111 l 258
 673 43 612 0 518 0 c 258
 337 0 l 257
343 176 m 257
 343 589 l 257
 465 589 l 257
 465 176 l 257
 343 176 l 257
101 0 m 257xdaf8
 101 591 l 257
 223 591 l 257
 223 0 l 257
 101 0 l 257xdaf8
101 595 m 257
 573 595 l 257
 573 473 l 257
 102 473 l 257
 101 595 l 257
EndSplineSet
Validated: 37
PickledDataWithLists: "(dp1
S'com.fontlab.hintData'
p2
(dp3
S'vhints'
p4
(lp5
(dp6
S'position'
p7
L40L
sS'width'
p8
L88L
sa(dp9
g7
L200L
sg8
L88L
sa(dp10
g7
L550L
sg8
L123L
sa(dp11
g7
L726L
sg8
L122L
sa(dp12
g7
L845L
sg8
L3L
sa(dp13
g7
L911L
sg8
L89L
sasS'hhints'
p14
(lp15
(dp16
g7
L-258L
sg8
L93L
sa(dp17
g7
L-106L
sg8
L93L
sa(dp18
g7
L0L
sg8
L122L
sass."
EndChar

StartChar: tml_Nga
Encoding: 93 2969 93
GlifName: tml_N_ga
Width: 895
VWidth: 0
GlyphClass: 2
Flags: HW
HStem: 0 122<39 448 161 448 275 448 275 448 448 471 333 333 333 448 448 681>
VStem: 503 123<145 211 211 221.5> 734 122<0 595 0 595>
AnchorPoint: "tml_virama" 301 0 basechar 0
LayerCount: 2
Fore
SplineSet
734 0 m 257
 734 595 l 257
 856 595 l 257
 856 0 l 257
 734 0 l 257
333 0 m 257
 333 122 l 257
 681 122 l 257
 681 0 l 257
 333 0 l 257
275 0 m 257
 275 122 l 257
 308 122 381 122 448 122 c 256
 506 122 503 126 503 145 c 258
 503 211 l 258
 503 232 507 231 457 231 c 256
 457 354 l 257
 543 354 626 322 626 229 c 258
 626 111 l 258
 626 43 565 0 471 0 c 258
 275 0 l 257
281 162 m 257
 403 162 l 257
 403 589 l 257
 281 589 l 257
 281 162 l 257
39 0 m 257
 161 0 l 257
 161 591 l 257
 39 591 l 257
 39 0 l 257
39 595 m 257
 40 473 l 257
 512 473 l 257
 512 595 l 257
 39 595 l 257
EndSplineSet
Validated: 37
PickledDataWithLists: "(dp1
S'com.fontlab.hintData'
p2
(dp3
S'vhints'
p4
(lp5
(dp6
S'position'
p7
L503L
sS'width'
p8
L123L
sa(dp9
g7
L734L
sg8
L122L
sasS'hhints'
p10
(lp11
(dp12
g7
L0L
sg8
L122L
sass."
EndChar

StartChar: tml_Nine
Encoding: 94 3055 94
GlifName: tml_N_ine
Width: 977
VWidth: 0
GlyphClass: 2
Flags: W
LayerCount: 2
Fore
SplineSet
555 249 m 257
 555 371 l 257
 731 371 l 258
 842 371 938 348 938 215 c 258
 938 205 l 258
 938 101 850 50 795 50 c 258
 767 50 l 258
 698 50 626 120 626 205 c 257
 748 205 l 256
 748 185 760 172 782 172 c 256
 805 172 816 186 816 204 c 256
 816 242 784 249 728 249 c 258
 555 249 l 257
39 157 m 258
 39 218 l 258
 39 326 149 371 235 371 c 258
 643 371 l 257
 643 249 l 257
 238 249 l 258
 174 249 160 239 160 188 c 256
 160 127 180 122 269 122 c 257
 269 -1 l 257
 112 0 39 68 39 157 c 258
322 -1 m 257
 322 122 l 257
 388 122 419 141 419 187 c 258
 419 588 l 257
 541 588 l 257
 541 191 l 258
 541 95 489 -1 322 -1 c 257
164 348 m 257
 164 586 l 257
 287 586 l 257
 286 348 l 257
 164 348 l 257
164 470 m 257
 164 595 l 257
 327 595 l 257
 327 470 l 257
 164 470 l 257
381 470 m 257
 381 595 l 257
 688 595 l 257
 688 470 l 257
 381 470 l 257
EndSplineSet
Validated: 5
EndChar

StartChar: tml_NnAa.alt
Encoding: 95 -1 95
GlifName: tml_N_nA_a.alt
Width: 1616
VWidth: 0
GlyphClass: 2
Flags: HW
LayerCount: 2
Fore
SplineSet
40 6 m 258
 40 513 l 258
 40 676 154 726 239 726 c 257
 328 726 l 257
 292 603 l 257
 240 603 l 257
 166 603 163 549 163 513 c 258
 163 6 l 258
 163 -58 186 -78 250 -78 c 258
 797 -78 l 257
 797 -200 l 257
 234 -200 l 258
 125 -200 40 -133 40 6 c 258
852 -78 m 257
 1388 -78 l 258
 1457 -78 1454 -37 1454 6 c 258
 1454 107 l 258
 1454 157 1434 165 1412 165 c 257
 1412 292 l 257
 1474 286 1576 249 1576 141 c 258
 1576 -38 l 258
 1576 -105 1515 -200 1389 -200 c 258
 852 -200 l 257
 852 -78 l 257
218 166 m 257
 218 289 l 258
 218 595 444 595 513 595 c 257
 513 472 l 257
 433 472 340 475 340 289 c 258
 340 167 l 258
 340 155 338 121 363 121 c 257
 363 -1 l 256
 268 -1 218 81 218 166 c 257
388 341 m 257
 385 375 416 431 473 436 c 257
 540 436 563 377 563 289 c 258
 563 166 l 258
 563 74 514 -1 417 -1 c 257
 417 121 l 256
 445 121 441 155 441 166 c 258
 441 289 l 258
 441 341 409 341 388 341 c 257
601 167 m 257
 601 287 l 258
 601 590 869 595 934 595 c 257
 934 472 l 257
 845 472 723 475 723 289 c 258
 723 168 l 258
 723 156 721 122 746 122 c 257
 746 0 l 256
 651 0 601 82 601 167 c 257
567 472 m 257
 567 595 l 257
 709 595 946 585 946 300 c 258
 946 167 l 258
 946 75 896 0 799 0 c 257
 799 122 l 256
 827 122 824 156 824 167 c 258
 824 289 l 258
 824 475 700 471 567 472 c 257
986 168 m 257
 986 288 l 258
 986 591 1254 595 1318 595 c 257
 1318 473 l 257
 1230 473 1108 476 1108 290 c 258
 1108 169 l 258
 1108 157 1106 123 1131 123 c 257
 1131 1 l 256
 1036 1 986 83 986 168 c 257
988 473 m 257
 988 595 l 257
 1120 595 1331 586 1331 301 c 258
 1331 168 l 258
 1331 76 1282 1 1185 1 c 257
 1185 123 l 256
 1213 123 1208 157 1208 168 c 258
 1208 290 l 258
 1208 476 1111 473 988 473 c 257
1412 169 m 257
 1412 291 l 256
 1448 291 1443 325 1443 336 c 258
 1443 413 l 258
 1443 432 1434 464 1373 468 c 257
 1373 590 l 257
 1469 584 1566 555 1566 413 c 258
 1566 336 l 258
 1566 244 1516 169 1412 169 c 257
EndSplineSet
Validated: 37
EndChar

StartChar: tml_NnAi
Encoding: 96 -1 96
GlifName: tml_N_nA_i
Width: 1795
VWidth: 0
GlyphClass: 2
Flags: HW
LayerCount: 2
Fore
SplineSet
443.415 43 m 257
 192.415 -130 -67.6143 67.3271 93.415 298.141 c 258
 291.959 582.727 l 256
 387.959 741 302.282 815.57 230.959 816 c 257
 173.959 816 162.959 782 162.959 767 c 256
 162.959 746 173.959 727 196.959 727 c 256
 221.959 727 230.959 744 230.959 760 c 256
 301.959 677 l 257
 291.959 634 244.959 606 199.959 606 c 256
 -25.7314 606 -7.04102 941 220.959 941 c 256
 414.565 941 511.415 740 427.959 584 c 257
 206.415 244 l 256
 100.956 72.9805 333.415 72 396.415 174 c 257
 443.415 43 l 257
372.415 166 m 257
 372.415 289 l 258
 372.415 595 598.415 595 667.415 595 c 257
 667.415 472 l 257
 587.415 472 494.415 475 494.415 289 c 258
 494.415 167 l 258
 494.415 155 492.415 121 517.415 121 c 257
 517.415 -1 l 256
 422.415 -1 372.415 81 372.415 166 c 257
542.415 341 m 257
 539.415 375 570.415 431 627.415 436 c 257
 694.415 436 717.415 377 717.415 289 c 258
 717.415 166 l 258
 717.415 74 668.415 -1 571.415 -1 c 257
 571.415 121 l 256
 599.415 121 595.415 155 595.415 166 c 258
 595.415 289 l 258
 595.415 341 563.415 341 542.415 341 c 257
721.415 472 m 257
 721.415 595 l 257
 863.415 595 1100.42 585 1100.42 300 c 258
 1100.42 167 l 258
 1100.42 75 1050.42 0 953.415 0 c 257
 953.415 122 l 256
 981.415 122 978.415 156 978.415 167 c 258
 978.415 289 l 258
 978.415 475 854.415 471 721.415 472 c 257
755.415 167 m 257
 755.415 287 l 258
 755.415 590 1023.42 595 1088.42 595 c 257
 1088.42 472 l 257
 999.415 472 877.415 475 877.415 289 c 258
 877.415 168 l 258
 877.415 156 875.415 122 900.415 122 c 257
 900.415 0 l 256
 805.415 0 755.415 82 755.415 167 c 257
1140.42 168 m 257
 1140.42 288 l 258
 1140.42 591 1408.42 595 1472.42 595 c 257
 1472.42 473 l 257
 1384.42 473 1262.42 476 1262.42 290 c 258
 1262.42 169 l 258
 1262.42 157 1260.42 123 1285.42 123 c 257
 1285.42 1 l 256
 1190.42 1 1140.42 83 1140.42 168 c 257
1142.42 473 m 257
 1142.42 595 l 257
 1274.42 595 1485.42 586 1485.42 301 c 258
 1485.42 168 l 258
 1485.42 76 1436.42 1 1339.42 1 c 257
 1339.42 123 l 256
 1367.42 123 1362.42 157 1362.42 168 c 258
 1362.42 290 l 258
 1362.42 476 1265.42 473 1142.42 473 c 257
1536.42 1 m 257
 1536.42 563 l 257
 1658.42 563 l 257
 1658.42 1 l 257
 1536.42 1 l 257
1527.42 473 m 257
 1527.42 595 l 257
 1755.42 595 l 257
 1755.42 472 l 257
 1527.42 473 l 257
EndSplineSet
Validated: 37
EndChar

StartChar: tml_NnI
Encoding: 97 -1 97
GlifName: tml_N_nI_
Width: 1660
VWidth: 0
GlyphClass: 2
Flags: HW
LayerCount: 2
Fore
SplineSet
1140 473 m 257
 1052 473 930 476 930 290 c 258
 930 169 l 258
 930 157 928 123 953 123 c 257
 953 1 l 256
 858 1 808 83 808 168 c 257
 808 288 l 258
 808 591 1076 595 1140 595 c 257
 1423 595 l 257
 1423 472 l 257
 1140 473 l 257
40 166 m 257
 40 289 l 258
 40 595 266 595 335 595 c 257
 335 472 l 257
 255 472 162 475 162 289 c 258
 162 167 l 258
 162 155 160 121 185 121 c 257
 185 -1 l 256
 90 -1 40 81 40 166 c 257
210 341 m 257
 207 375 238 431 295 436 c 257
 362 436 385 377 385 289 c 258
 385 166 l 258
 385 74 336 -1 239 -1 c 257
 239 121 l 256
 267 121 263 155 263 166 c 258
 263 289 l 258
 263 341 231 341 210 341 c 257
423 167 m 257
 423 287 l 258
 423 590 691 595 756 595 c 257
 756 472 l 257
 667 472 545 475 545 289 c 258
 545 168 l 258
 545 156 543 122 568 122 c 257
 568 0 l 256
 473 0 423 82 423 167 c 257
389 472 m 257
 389 595 l 257
 531 595 768 585 768 300 c 258
 768 167 l 258
 768 75 718 0 621 0 c 257
 621 122 l 256
 649 122 646 156 646 167 c 258
 646 289 l 258
 646 475 522 471 389 472 c 257
810 473 m 257
 810 595 l 257
 942 595 1153 586 1153 301 c 258
 1153 168 l 258
 1153 76 1104 1 1007 1 c 257
 1007 123 l 256
 1035 123 1030 157 1030 168 c 258
 1030 290 l 258
 1030 476 933 473 810 473 c 257
1204 583 m 257
 1204 583 l 257
 1204 687 1225 803 1376 803 c 256
 1376 803 l 257
 1376 681 l 256
 1376 681 l 256
 1327 681 1327 644 1327 583 c 256
 1204 583 l 257
1430 681 m 257
 1430 803 l 257
 1583 803 1600 688 1600 585 c 258
 1600 0 l 257
 1478 0 l 257
 1478 582 l 258
 1478 644 1483 681 1430 681 c 257
1204 1 m 257
 1204 563 l 257
 1326 563 l 257
 1326 1 l 257
 1204 1 l 257
EndSplineSet
Validated: 37
EndChar

StartChar: tml_NnIi
Encoding: 98 -1 98
GlifName: tml_N_nI_i
Width: 1678
VWidth: 0
GlyphClass: 2
Flags: HW
LayerCount: 2
Fore
SplineSet
1251 476.887 m 257
 1251 596.23 l 256
 1177 755.23 1248.39 943.23 1451 943.23 c 256
 1679 943.23 1670.69 630.23 1472 630.23 c 256
 1427 630.23 1380 668.23 1370 689.23 c 257
 1441 772.23 l 256
 1441 756.23 1450 739.23 1475 739.23 c 256
 1498 739.23 1509 758.23 1509 779.23 c 256
 1509 794.23 1498 828.23 1441 828.23 c 257
 1369.68 827.801 1300 753.23 1375 594.957 c 256
 1375 476.887 l 257
 1251 476.887 l 257
1188 473 m 257
 1100 473 978 476 978 290 c 258
 978 169 l 258
 978 157 976 123 1001 123 c 257
 1001 1 l 256
 906 1 856 83 856 168 c 257
 856 288 l 258
 856 591 1124 595 1188 595 c 257
 1471 595 l 257
 1471 473 l 257
 1188 473 l 257
88 166 m 257
 88 289 l 258
 88 595 314 595 383 595 c 257
 383 472 l 257
 303 472 210 475 210 289 c 258
 210 167 l 258
 210 155 208 121 233 121 c 257
 233 -1 l 256
 138 -1 88 81 88 166 c 257
258 341 m 257
 255 375 286 431 343 436 c 257
 410 436 433 377 433 289 c 258
 433 166 l 258
 433 74 384 -1 287 -1 c 257
 287 121 l 256
 315 121 311 155 311 166 c 258
 311 289 l 258
 311 341 279 341 258 341 c 257
471 167 m 257
 471 287 l 258
 471 590 739 595 804 595 c 257
 804 472 l 257
 715 472 593 475 593 289 c 258
 593 168 l 258
 593 156 591 122 616 122 c 257
 616 0 l 256
 521 0 471 82 471 167 c 257
437 472 m 257
 437 595 l 257
 579 595 816 585 816 300 c 258
 816 167 l 258
 816 75 766 0 669 0 c 257
 669 122 l 256
 697 122 694 156 694 167 c 258
 694 289 l 258
 694 475 570 471 437 472 c 257
858 473 m 257
 858 595 l 257
 990 595 1201 586 1201 301 c 258
 1201 168 l 258
 1201 76 1152 1 1055 1 c 257
 1055 123 l 256
 1083 123 1078 157 1078 168 c 258
 1078 290 l 258
 1078 476 981 473 858 473 c 257
1252 1 m 257
 1252 563 l 257
 1374 563 l 257
 1374 1 l 257
 1252 1 l 257
EndSplineSet
Validated: 37
EndChar

StartChar: tml_NnU
Encoding: 99 -1 99
GlifName: tml_N_nU_
Width: 1596
VWidth: 0
GlyphClass: 2
Flags: W
HStem: -256 94<187.5 679 204 679> -119 93<185 1434 205 1434 205 1556> 0 122<555.5 568 555.5 568 621 635 555.5 669.5> 470 52 472 122
VStem: 40 122<166 167 167 289> 263 122<166 289> 423 122<167 168 168 287 287 289 162 438.5> 646 122<167 289 289 300> 808 122<168 169 169 288 288 290 163 439.5> 1030 122 1193 133 1204 122 1380 122
LayerCount: 2
Fore
SplineSet
54 -124 m 262
 54 -56 117 -26 205 -26 c 262
 1434 -26 l 261
 1434 584 l 260
 1556 584 l 260
 1556 -119 l 261
 205 -119 l 262
 165 -119 166 -162 204 -162 c 262
 679 -162 l 261
 679 -256 l 261
 204 -256 l 262
 171 -256 55 -252 54 -157 c 262
 54 -124 l 262
734 -255.727 m 261
 734 -161.727 l 261
 1192 -161.727 l 262
 1241 -161.727 1244 -108.727 1244 -78.7266 c 261
 1244 382 l 262
 1244 472.35 1219.39 472.503 1193 473 c 261
 1193 595 l 261
 1258.94 595 1369 588.694 1369 389 c 261
 1369 -78.7266 l 261
 1369 -144.727 1348.65 -255.727 1193 -255.727 c 262
 734 -255.727 l 261
40 166 m 261
 40 289 l 262
 40 595 266 595 335 595 c 261
 335 472 l 261
 255 472 162 475 162 289 c 262
 162 167 l 262
 162 155 160 121 185 121 c 261
 185 -1 l 260
 90 -1 40 81 40 166 c 261
224 361 m 261
 309 434 l 261
 354.721 434 385 375.803 385 289 c 262
 385 166 l 262
 385 74 336 -1 239 -1 c 261
 239 121 l 260
 267 121 263 155 263 166 c 262
 263 289 l 262
 263 337.774 251.271 361 224 361 c 261
423 167 m 261
 423 287 l 262
 423 590 691 595 756 595 c 261
 756 472 l 261
 667 472 545 475 545 289 c 262
 545 168 l 262
 545 156 543 122 568 122 c 261
 568 0 l 260
 473 0 423 82 423 167 c 261
389 472 m 261
 389 595 l 261
 531 595 768 585 768 300 c 262
 768 167 l 262
 768 75 718 0 621 0 c 261
 621 122 l 260
 649 122 646 156 646 167 c 262
 646 289 l 262
 646 475 522 471 389 472 c 261
953 1 m 260
 858 1 808 83 808 168 c 261
 808 288 l 262
 808 591 1076 595 1140 595 c 261
 1140 473 l 261
 1052 473 930 476 930 290 c 262
 930 169 l 262
 930 157 928 123 953 123 c 261
 953 1 l 260
810 473 m 261
 810 595 l 261
 942 595 1153 586 1153 301 c 262
 1153 168 l 262
 1153 76 1104 1 1007 1 c 261
 1007 123 l 260
 1035 123 1030 157 1030 168 c 262
 1030 290 l 262
 1030 476 933 473 810 473 c 261
EndSplineSet
Validated: 37
PickledDataWithLists: "(dp1
S'com.fontlab.hintData'
p2
(dp3
S'vhints'
p4
(lp5
(dp6
S'position'
p7
L512L
sS'width'
p8
L122L
sa(dp9
g7
L688L
sg8
L122L
sasS'hhints'
p10
(lp11
(dp12
g7
L-258L
sg8
L94L
sa(dp13
g7
L-121L
sg8
L93L
sass."
EndChar

StartChar: tml_NnUu
Encoding: 100 -1 100
GlifName: tml_N_nU_u
Width: 1959
VWidth: 0
GlyphClass: 2
Flags: HW
LayerCount: 2
Fore
SplineSet
1718 -113 m 257
 1718 593 l 257
 1840 593 l 257
 1840 -113 l 257
 1718 -113 l 257
1667 473 m 257
 1667 595 l 257
 1924 595 l 257
 1924 473 l 257
 1667 473 l 257
1434 473 m 257
 1434 595 l 257
 1613 595 l 257
 1613 473 l 257
 1434 473 l 257
EndSplineSet
Refer: 99 -1 N 1 0 0 1 0 0 2
Validated: 5
EndChar

StartChar: tml_Nna
Encoding: 101 2979 101
GlifName: tml_N_na
Width: 1460
VWidth: 0
GlyphClass: 2
Flags: HW
HStem: -12 122 1 21<904.5 952 1006 1054.5 1203 1325 1203 1203> 484 122 484 90
VStem: 39 122<166 167 167 289> 262 122<166 289> 422 122<167 168 168 287 287 289 162 438.5> 645 122<167 289 289 300> 807 122<168 169 169 288 288 290 163 439.5> 1029 122 1203 122<1 563 1 563>
AnchorPoint: "tml_virama" 781 0 basechar 0
LayerCount: 2
Fore
SplineSet
39 166 m 257
 39 289 l 258
 39 595 265 595 334 595 c 257
 334 472 l 257
 254 472 161 475 161 289 c 258
 161 167 l 258
 161 155 159 121 184 121 c 257
 184 -1 l 256
 89 -1 39 81 39 166 c 257
209 341 m 257
 206 375 237 431 294 436 c 257
 361 436 384 377 384 289 c 258
 384 166 l 258
 384 74 335 -1 238 -1 c 257
 238 121 l 256
 266 121 262 155 262 166 c 258
 262 289 l 258
 262 341 230 341 209 341 c 257
422 167 m 257
 422 287 l 258
 422 590 690 595 755 595 c 257
 755 472 l 257
 666 472 544 475 544 289 c 258
 544 168 l 258
 544 156 542 122 567 122 c 257
 567 0 l 256
 472 0 422 82 422 167 c 257
388 472 m 257
 388 595 l 257
 530 595 767 585 767 300 c 258
 767 167 l 258
 767 75 717 0 620 0 c 257
 620 122 l 256
 648 122 645 156 645 167 c 258
 645 289 l 258
 645 475 521 471 388 472 c 257
809 473 m 257
 809 595 l 257
 941 595 1152 586 1152 301 c 258
 1152 168 l 258
 1152 76 1103 1 1006 1 c 257
 1006 123 l 256
 1034 123 1029 157 1029 168 c 258
 1029 290 l 258
 1029 476 932 473 809 473 c 257
807 168 m 257
 807 288 l 258
 807 591 1075 595 1139 595 c 257
 1139 473 l 257
 1051 473 929 476 929 290 c 258
 929 169 l 258
 929 157 927 123 952 123 c 257
 952 1 l 256
 857 1 807 83 807 168 c 257
1203 1 m 257
 1203 563 l 257
 1325 563 l 257
 1325 1 l 257
 1203 1 l 257
1194 473 m 257
 1194 595 l 257
 1422 595 l 257
 1422 472 l 257
 1194 473 l 257
EndSplineSet
Validated: 37
PickledDataWithLists: "(dp1
S'com.fontlab.hintData'
p2
(dp3
S'vhints'
p4
(lp5
(dp6
S'position'
p7
L39L
sS'width'
p8
L122L
sa(dp9
g7
L262L
sg8
L122L
sa(dp10
g7
L422L
sg8
L122L
sa(dp11
g7
L645L
sg8
L122L
sa(dp12
g7
L807L
sg8
L122L
sa(dp13
g7
L1029L
sg8
L122L
sa(dp14
g7
L1203L
sg8
L122L
sasS'hhints'
p15
(lp16
(dp17
g7
L-12L
sg8
L122L
sa(dp18
g7
L1L
sg8
L21L
sa(dp19
g7
L484L
sg8
L122L
sa(dp20
g7
L484L
sg8
L90L
sass."
EndChar

StartChar: tml_NnnAa.alt
Encoding: 102 -1 102
GlifName: tml_N_nnA_a.alt
Width: 1616
VWidth: 0
GlyphClass: 2
Flags: HW
LayerCount: 2
Fore
SplineSet
40 6 m 262
 40 519 l 262
 40 682 154 732 239 732 c 261
 328 732 l 261
 292 609 l 261
 240 609 l 261
 166 609 163 555 163 519 c 262
 163 6 l 262
 163 -58 186 -78 250 -78 c 262
 632 -78 l 261
 632 -200 l 261
 234 -200 l 262
 125 -200 40 -133 40 6 c 262
701 -78 m 261
 992 -78 l 262
 1061 -78 1058 -37 1058 6 c 262
 1058 113 l 262
 1058 163 1038 171 1016 171 c 261
 1016 298 l 261
 1078 292 1180 255 1180 147 c 262
 1180 -38 l 262
 1180 -105 1119 -200 993 -200 c 262
 701 -200 l 261
 701 -78 l 261
215 156 m 261
 215 290 l 262
 215 596 441 605 510 605 c 261
 510 483 l 261
 430 483 337 476 337 290 c 262
 337 157 l 262
 337 145 336 111 361 111 c 261
 361 -11 l 260
 266 -11 215 71 215 156 c 261
385 342 m 261
 382 376 413 432 470 437 c 261
 537 437 560 378 560 290 c 262
 560 156 l 262
 560 64 511 -11 414 -11 c 261
 414 112 l 260
 442 112 438 145 438 156 c 262
 438 290 l 262
 438 342 406 342 385 342 c 261
564 483 m 261
 564 605 l 261
 706 605 943 586 943 301 c 262
 943 157 l 262
 943 65 894 -11 797 -11 c 261
 797 112 l 260
 825 112 821 146 821 157 c 262
 821 290 l 262
 821 476 697 482 564 483 c 261
598 157 m 261
 598 288 l 262
 598 591 864 606 923 606 c 261
 923 484 l 261
 842 484 720 477 720 290 c 262
 720 158 l 262
 720 146 718 112 743 112 c 261
 743 -11 l 260
 648 -11 598 72 598 157 c 261
1016 175 m 261
 1016 297 l 260
 1052 297 1047 331 1047 342 c 262
 1047 419 l 262
 1047 438 1038 470 977 474 c 261
 977 596 l 261
 1073 590 1170 561 1170 419 c 262
 1170 342 l 262
 1170 250 1120 175 1016 175 c 261
EndSplineSet
Validated: 37
EndChar

StartChar: tml_NnnAi
Encoding: 103 -1 103
GlifName: tml_N_nnA_i
Width: 1795
VWidth: 0
GlyphClass: 2
Flags: HW
LayerCount: 2
Fore
SplineSet
443.415 43 m 261
 192.415 -130 -67.6143 67.3271 93.415 298.141 c 262
 291.959 582.727 l 260
 387.959 741 302.282 815.57 230.959 816 c 261
 173.959 816 162.959 782 162.959 767 c 260
 162.959 746 173.959 727 196.959 727 c 260
 221.959 727 230.959 744 230.959 760 c 260
 301.959 677 l 261
 291.959 634 244.959 606 199.959 606 c 260
 -25.7314 606 -7.04102 941 220.959 941 c 260
 414.565 941 511.415 740 427.959 584 c 261
 206.415 244 l 260
 100.956 72.9805 333.415 72 396.415 174 c 261
 443.415 43 l 261
368.959 153 m 261
 368.959 290 l 262
 368.959 596 594.959 605 663.959 605 c 261
 663.959 483 l 261
 583.959 483 490.959 476 490.959 290 c 262
 490.959 154 l 262
 490.959 142 489.959 108 514.959 108 c 261
 514.959 -14 l 260
 419.959 -14 368.959 68 368.959 153 c 261
538.959 342 m 261
 535.959 376 566.959 432 623.959 437 c 261
 690.959 437 713.959 378 713.959 290 c 262
 713.959 154 l 262
 713.959 62 664.959 -14 567.959 -14 c 261
 567.959 109 l 260
 595.959 109 591.959 143 591.959 154 c 262
 591.959 290 l 262
 591.959 342 559.959 342 538.959 342 c 261
717.959 483 m 261
 717.959 605 l 261
 859.959 605 1096.96 586 1096.96 301 c 262
 1096.96 154 l 262
 1096.96 62 1047.96 -13 950.959 -13 c 261
 950.959 109 l 260
 978.959 109 974.959 143 974.959 154 c 262
 974.959 290 l 262
 974.959 476 850.959 482 717.959 483 c 261
751.959 154 m 261
 751.959 288 l 262
 751.959 591 1017.96 606 1076.96 606 c 261
 1076.96 484 l 261
 995.959 484 873.959 477 873.959 290 c 262
 873.959 155 l 262
 873.959 143 871.959 109 896.959 109 c 261
 896.959 -13 l 260
 801.959 -13 751.959 69 751.959 154 c 261
1147.96 0 m 261
 1147.96 573 l 261
 1269.96 573 l 261
 1269.96 0 l 261
 1147.96 0 l 261
1129.96 483 m 261
 1129.96 605 l 261
 1365.96 605 l 261
 1365.96 482 l 261
 1129.96 483 l 261
EndSplineSet
Validated: 37
EndChar

StartChar: tml_NnnI
Encoding: 104 -1 104
GlifName: tml_N_nnI_
Width: 1268
VWidth: 0
GlyphClass: 2
Flags: HW
LayerCount: 2
Fore
SplineSet
1045 679 m 257
 1045 801 l 257
 1198 801 1215 686 1215 583 c 258
 1215 0 l 257
 1093 0 l 257
 1093 580 l 258
 1093 642 1098 679 1045 679 c 257
819 581 m 257
 819 581 l 257
 819 685 840 801 991 801 c 256
 991 801 l 257
 991 679 l 256
 991 679 l 256
 942 679 942 642 942 581 c 256
 819 581 l 257
EndSplineSet
Refer: 108 2985 N 1 0 0 1 0 0 2
EndChar

StartChar: tml_NnnIi
Encoding: 105 -1 105
GlifName: tml_N_nnI_i
Width: 1225
VWidth: 0
GlyphClass: 2
Flags: HW
LayerCount: 2
Fore
SplineSet
818 487.656 m 257
 818 607 l 256
 744 766 815.394 954 1018 954 c 256
 1246 954 1237.69 641 1039 641 c 256
 994 641 947 679 937 700 c 257
 1008 783 l 256
 1008 767 1017 750 1042 750 c 256
 1065 750 1076 769 1076 790 c 256
 1076 805 1065 839 1008 839 c 257
 936.677 838.57 867 764 942 605.727 c 256
 942 487.656 l 257
 818 487.656 l 257
EndSplineSet
Refer: 108 2985 N 1 0 0 1 0 0 2
EndChar

StartChar: tml_NnnU
Encoding: 106 -1 106
GlifName: tml_N_nnU_
Width: 1239
VWidth: 0
GlyphClass: 2
Flags: W
HStem: -256 94<187.5 679 204 679> -119 93<185 1434 205 1434 205 1556> 0 122<555.5 568 555.5 568 621 635 555.5 669.5> 470 52 472 122
VStem: 40 122<166 167 167 289> 263 122<166 289> 423 122<167 168 168 287 287 289 162 438.5> 646 122<167 289 289 300> 808 122<168 169 169 288 288 290 163 439.5> 1030 122 1193 133 1204 122 1380 122
LayerCount: 2
Fore
SplineSet
40 -124 m 258
 40 -56 103 -26 191 -26 c 258
 1053 -26 l 257
 1053 584 l 256
 1175 584 l 256
 1175 -119 l 257
 191 -119 l 258
 151 -119 152 -162 190 -162 c 258
 453 -162 l 257
 453 -256 l 257
 190 -256 l 258
 157 -256 41 -252 40 -157 c 258
 40 -124 l 258
507 -256 m 257
 507 -162 l 257
 812 -162 l 258
 861 -162 864 -109 864 -79 c 257
 864 381.727 l 258
 864 472.076 839.393 472.229 813 472.727 c 257
 813 594.727 l 257
 878.942 594.727 989 588.421 989 388.727 c 257
 989 -79 l 257
 989 -145 968.653 -256 813 -256 c 258
 507 -256 l 257
41 166 m 257
 41 300 l 258
 41 606 267 605 336 605 c 257
 336 483 l 257
 256 483 163 486 163 300 c 258
 163 167 l 258
 163 155 162 121 187 121 c 257
 187 -1 l 256
 92 -1 41 81 41 166 c 257
211 352 m 257
 208 386 239 441 296 446 c 257
 363 446 386 388 386 300 c 258
 386 166 l 258
 386 74 337 -1 240 -1 c 257
 240 121 l 256
 268 121 264 155 264 166 c 258
 264 300 l 258
 264 352 232 352 211 352 c 257
569 0 m 256
 474 0 424 82 424 167 c 257
 424 298 l 258
 424 601 693.273 605 753 605 c 257
 753 483 l 257
 670.404 483 546 486 546 300 c 258
 546 168 l 258
 546 156 544 122 569 122 c 257
 569 0 l 256
390 483 m 257
 390 605 l 257
 532 605 769 596 769 311 c 258
 769 167 l 258
 769 75 720 0 623 0 c 257
 623 122 l 256
 651 122 647 156 647 167 c 258
 647 300 l 258
 647 486 523 482 390 483 c 257
EndSplineSet
PickledDataWithLists: "(dp1
S'com.fontlab.hintData'
p2
(dp3
S'vhints'
p4
(lp5
(dp6
S'position'
p7
L40L
sS'width'
p8
L122L
sa(dp9
g7
L263L
sg8
L122L
sa(dp10
g7
L423L
sg8
L122L
sa(dp11
g7
L646L
sg8
L122L
sa(dp12
g7
L808L
sg8
L122L
sa(dp13
g7
L1030L
sg8
L122L
sa(dp14
g7
L1193L
sg8
L133L
sa(dp15
g7
L1204L
sg8
L122L
sa(dp16
g7
L1380L
sg8
L122L
sasS'hhints'
p17
(lp18
(dp19
g7
L-256L
sg8
L94L
sa(dp20
g7
L-119L
sg8
L93L
sa(dp21
g7
L0L
sg8
L122L
sa(dp22
g7
L470L
sg8
L52L
sa(dp23
g7
L472L
sg8
L122L
sass."
EndChar

StartChar: tml_NnnUu
Encoding: 107 -1 107
GlifName: tml_N_nnU_u
Width: 1580
VWidth: 0
GlyphClass: 2
Flags: HW
HStem: -256 94 -119 93 0 122 470 52 473 122<1434 1613 1434 1613 1434 1666 1666 1924> 473 111
VStem: 39 122 262 122 422 122 645 122 807 122 1029 122 1192 133 1203 122 1379 179 1379 122
LayerCount: 2
Fore
SplineSet
1337 -117 m 261
 1337 593 l 257
 1459 593 l 257
 1459 -117 l 261
 1337 -117 l 261
1285 473 m 257
 1285 595 l 257
 1543 595 l 257
 1543 473 l 257
 1285 473 l 257
1053 473 m 257
 1053 595 l 257
 1232 595 l 257
 1232 473 l 257
 1053 473 l 257
EndSplineSet
Refer: 106 -1 N 1 0 0 1 0 0 2
PickledDataWithLists: "(dp1
S'com.fontlab.hintData'
p2
(dp3
S'vhints'
p4
(lp5
(dp6
S'position'
p7
L39L
sS'width'
p8
L122L
sa(dp9
g7
L262L
sg8
L122L
sa(dp10
g7
L422L
sg8
L122L
sa(dp11
g7
L645L
sg8
L122L
sa(dp12
g7
L807L
sg8
L122L
sa(dp13
g7
L1029L
sg8
L122L
sa(dp14
g7
L1192L
sg8
L133L
sa(dp15
g7
L1203L
sg8
L122L
sa(dp16
g7
L1379L
sg8
L179L
sa(dp17
g7
L1379L
sg8
L122L
sasS'hhints'
p18
(lp19
(dp20
g7
L-256L
sg8
L94L
sa(dp21
g7
L-119L
sg8
L93L
sa(dp22
g7
L0L
sg8
L122L
sa(dp23
g7
L470L
sg8
L52L
sa(dp24
g7
L473L
sg8
L122L
sa(dp25
g7
L473L
sg8
L111L
sass."
EndChar

StartChar: tml_Nnna
Encoding: 108 2985 108
GlifName: tml_N_nna
Width: 1078
VWidth: 0
GlyphClass: 2
Flags: HW
HStem: -14 122<173.5 186 173.5 186 173.5 287.5> 0 21<819 819 819 941> 483 90<801 941> 483 122<300.5 335 300.5 335 300.5 389>
VStem: 40 122<153 154 154 290> 263 122<154 290> 423 122<154 155 155 288 288 290> 646 122<154 290 290 301> 819 122<0 573 0 573>
AnchorPoint: "tml_virama" 581 0 basechar 0
LayerCount: 2
Fore
SplineSet
423 154 m 257
 423 288 l 258
 423 591 689 606 748 606 c 257
 748 484 l 257
 667 484 545 477 545 290 c 258
 545 155 l 258
 545 143 543 109 568 109 c 257
 568 -13 l 256
 473 -13 423 69 423 154 c 257
389 483 m 257
 389 605 l 257
 531 605 768 586 768 301 c 258
 768 154 l 258
 768 62 719 -13 622 -13 c 257
 622 109 l 256
 650 109 646 143 646 154 c 258
 646 290 l 258
 646 476 522 482 389 483 c 257
40 153 m 257
 40 290 l 258
 40 596 266 605 335 605 c 257
 335 483 l 257
 255 483 162 476 162 290 c 258
 162 154 l 258
 162 142 161 108 186 108 c 257
 186 -14 l 256
 91 -14 40 68 40 153 c 257
210 342 m 257
 207 376 238 432 295 437 c 257
 362 437 385 378 385 290 c 258
 385 154 l 258
 385 62 336 -14 239 -14 c 257
 239 109 l 256
 267 109 263 143 263 154 c 258
 263 290 l 258
 263 342 231 342 210 342 c 257
801 483 m 257
 801 605 l 257
 1037 605 l 257
 1037 482 l 257
 801 483 l 257
819 0 m 257
 819 573 l 257
 941 573 l 257
 941 0 l 257
 819 0 l 257
EndSplineSet
Validated: 37
PickledDataWithLists: "(dp1
S'com.fontlab.hintData'
p2
(dp3
S'vhints'
p4
(lp5
(dp6
S'position'
p7
L40L
sS'width'
p8
L122L
sa(dp9
g7
L263L
sg8
L122L
sa(dp10
g7
L423L
sg8
L122L
sa(dp11
g7
L646L
sg8
L122L
sa(dp12
g7
L819L
sg8
L122L
sasS'hhints'
p13
(lp14
(dp15
g7
L-14L
sg8
L122L
sa(dp16
g7
L0L
sg8
L21L
sa(dp17
g7
L483L
sg8
L90L
sa(dp18
g7
L483L
sg8
L122L
sass."
EndChar

StartChar: tml_Number
Encoding: 109 3066 109
GlifName: tml_N_umber
Width: 1128
VWidth: 0
GlyphClass: 2
Flags: HW
LayerCount: 2
Fore
SplineSet
419 590 m 262
 444 484 l 261
 257 484 249 810 480 810 c 261
 480 810 l 261
 480 688 l 260
 480 688 l 260
 429 688 407.293455134 639.635750234 419 590 c 262
921 654 m 260
 921 576 853 528 781 528 c 260
 722 528 647 568 647 654 c 261
 749 654 l 260
 749 634 767 621 785 621 c 260
 804 621 818 639 818 653 c 260
 818 684 793 688 750 688 c 262
 530 688 l 261
 530 808 l 261
 754 808 l 262
 844 808 921 778 921 654 c 260
1118 600 m 261
 1025 600 945 635 945 745 c 262
 945 830 l 262
 945 908 896 932 834 932 c 260
 773 932 749 892 749 826 c 261
 646 826 l 260
 646 936 702 1037 834 1037 c 260
 980 1037 1048 972 1048 830 c 262
 1048 745 l 262
 1048 704 1053 705 1118 703 c 260
 1118 600 l 261
EndSplineSet
Refer: 88 2984 N 1 0 0 1 6 0 2
Validated: 524325
EndChar

StartChar: tml_NyI
Encoding: 110 -1 110
GlifName: tml_N_yI_
Width: 1341
VWidth: 0
GlyphClass: 2
Flags: HW
LayerCount: 2
Fore
SplineSet
1076.00585938 680 m 257
 1076.00585938 802 l 257
 1248.00585938 802 1301.00585938 685 1301.00585938 584 c 258
 1301.00585938 0 l 261
 1179.00585938 0 l 261
 1179.00585938 581 l 258
 1179.00585938 648 1142.00585938 679 1076.00585938 680 c 257
794.005859375 582 m 257
 794.005859375 582 l 257
 794.005859375 686 854.005859375 802 1022.00585938 802 c 256
 1022.00585938 802 l 257
 1022.00585938 680 l 256
 1022.00585938 680 l 256
 956.005859375 680 917.005859375 643 917.005859375 582 c 256
 794.005859375 582 l 257
EndSplineSet
Refer: 114 2974 N 1 0 0 1 10.0064 0 2
Validated: 5
EndChar

StartChar: tml_NyIi
Encoding: 111 -1 111
GlifName: tml_N_yI_i
Width: 1088
VWidth: 0
GlyphClass: 2
Flags: HW
LayerCount: 2
Fore
SplineSet
674.005859375 472.65625 m 257
 674.005859375 596 l 256
 600.005859375 755 671.399414062 943 874.005859375 943 c 256
 1102.00585938 943 1093.69628906 630 895.005859375 630 c 256
 850.005859375 630 803.005859375 668 793.005859375 689 c 257
 864.005859375 772 l 256
 864.005859375 756 873.005859375 739 898.005859375 739 c 256
 921.005859375 739 932.005859375 758 932.005859375 779 c 256
 932.005859375 794 921.005859375 828 864.005859375 828 c 257
 792.682617188 827.5703125 723.005859375 753 798.005859375 594.7265625 c 256
 799.005859375 472.65625 l 257
 674.005859375 472.65625 l 257
EndSplineSet
Refer: 114 2974 N 1 0 0 1 0.00611 0 2
Validated: 37
EndChar

StartChar: tml_NyU
Encoding: 112 -1 112
GlifName: tml_N_yU_
Width: 1034
VWidth: 0
GlyphClass: 2
Flags: HW
HStem: -257 94<173.506 396.006 190.006 396.006 449.006 644.006 644.006 645.006 190.006 449.006> 1 122 238 123 472 105 472 123
VStem: 40 124 40 131 40 171 318 123 485 123 696 122
LayerCount: 2
Fore
SplineSet
449.006 -163 m 257
 644.006 -163 l 258
 693.006 -163 696.006 -110 696.006 -80 c 258
 697.006 154 l 257
 697.006 200 691.006 201 664.006 201 c 256
 664.006 323 l 257
 734.006 323 818.006 299 818.006 157 c 257
 818.006 -80 l 258
 818.006 -146 798.006 -257 645.006 -257 c 258
 449.006 -257 l 257
 449.006 -163 l 257
40.0059 -125 m 258
 40.0059 -57 103.006 -27 191.006 -27 c 258
 872.006 -27 l 257
 872.006 583 l 256
 994.006 583 l 256
 994.006 -120 l 257
 191.006 -120 l 258
 151.006 -120 152.006 -163 190.006 -163 c 258
 396.006 -163 l 257
 396.006 -257 l 257
 190.006 -257 l 258
 157.006 -257 41.0059 -253 40.0059 -158 c 258
 40.0059 -125 l 258
EndSplineSet
Refer: 20 2958 N 1 0 0 1 1.00611 0 2
Refer: 20 2958 N 1 0 0 1 1.00611 0 2
Validated: 37
PickledDataWithLists: "(dp1
S'com.fontlab.hintData'
p2
(dp3
S'vhints'
p4
(lp5
(dp6
S'position'
p7
L40L
sS'width'
p8
L124L
sa(dp9
g7
L40L
sg8
L131L
sa(dp10
g7
L40L
sg8
L171L
sa(dp11
g7
L318L
sg8
L123L
sa(dp12
g7
L485L
sg8
L123L
sa(dp13
g7
L696L
sg8
L122L
sasS'hhints'
p14
(lp15
(dp16
g7
L-257L
sg8
L94L
sa(dp17
g7
L1L
sg8
L122L
sa(dp18
g7
L238L
sg8
L123L
sa(dp19
g7
L472L
sg8
L105L
sa(dp20
g7
L472L
sg8
L123L
sass."
EndChar

StartChar: tml_NyUu
Encoding: 113 -1 113
GlifName: tml_N_yU_u
Width: 1400
VWidth: 0
GlyphClass: 2
Flags: HW
HStem: -257 94<172.5 395 189 395 448 643 643 644 189 448> 1 122 238 123 472 105 472 123
VStem: 39 124 39 131 39 171 317 123 484 123 695 122<-95 -80>
LayerCount: 2
Fore
SplineSet
1155 -110 m 261
 1155 593 l 257
 1277 593 l 257
 1277 -110 l 261
 1155 -110 l 261
1104 473 m 257
 1104 595 l 257
 1361 595 l 257
 1361 473 l 257
 1104 473 l 257
871 473 m 257
 871 595 l 257
 1050 595 l 257
 1050 473 l 257
 871 473 l 257
448 -163 m 257
 643 -163 l 258
 692 -163 695 -110 695 -80 c 258
 696 154 l 257
 696 200 690 201 663 201 c 256
 663 323 l 257
 733 323 817 299 817 157 c 257
 817 -80 l 258
 817 -146 797 -257 644 -257 c 258
 448 -257 l 257
 448 -163 l 257
39 -125 m 258
 39 -57 102 -27 190 -27 c 258
 871 -27 l 257
 871 583 l 256
 993 583 l 256
 993 -120 l 257
 190 -120 l 258
 150 -120 151 -163 189 -163 c 258
 395 -163 l 257
 395 -257 l 257
 189 -257 l 258
 156 -257 40 -253 39 -158 c 258
 39 -125 l 258
EndSplineSet
Refer: 20 2958 N 1 0 0 1 0 0 2
Validated: 37
PickledDataWithLists: "(dp1
S'com.fontlab.hintData'
p2
(dp3
S'vhints'
p4
(lp5
(dp6
S'position'
p7
L39L
sS'width'
p8
L124L
sa(dp9
g7
L39L
sg8
L131L
sa(dp10
g7
L39L
sg8
L171L
sa(dp11
g7
L317L
sg8
L123L
sa(dp12
g7
L484L
sg8
L123L
sa(dp13
g7
L695L
sg8
L122L
sasS'hhints'
p14
(lp15
(dp16
g7
L-257L
sg8
L94L
sa(dp17
g7
L1L
sg8
L122L
sa(dp18
g7
L238L
sg8
L123L
sa(dp19
g7
L472L
sg8
L105L
sa(dp20
g7
L472L
sg8
L123L
sass."
EndChar

StartChar: tml_Nya
Encoding: 114 2974 114
GlifName: tml_N_ya
Width: 1088
VWidth: 0
GlyphClass: 2
Flags: HW
HStem: -208 122<149.234 540 596 920.27> 1 122<412.367 449 504 544.2> 238 122<411.253 449 504 544.494> 472 105<723 845> 472 123<473.33 543 598 723 845 956> 475 122<149.729 208>
VStem: 9 122<-67.3164 455.173> 278 124<130.613 231.073> 278 131<309.525 404.785> 278 171<238 360> 556 122<133.099 228.32> 723 122<0 577> 926 123<-79.2319 196.582>
AnchorPoint: "tml_virama" 631 0 basechar 0
LayerCount: 2
Fore
SplineSet
243 -208 m 258xe638
 134 -208 49 -141 49 -2 c 258
 49 387 l 258
 49 550 163 597 248 597 c 256
 248 475 l 256
 174 475 171 418 171 382 c 258
 171 -3 l 258
 171 -67 195 -86 259 -86 c 258
 540 -86 l 257
 540 -208 l 257
 243 -208 l 258xe638
596 -86 m 257
 863 -86 l 258
 925 -86 926 -66 926 -17 c 258
 927 154 l 258
 927 200 922 201 880 201 c 256
 880 323 l 257
 965 323 1049 296 1049 154 c 258
 1049 -17 l 258
 1049 -125 1010 -208 836 -208 c 258
 596 -208 l 257
 596 -86 l 257
EndSplineSet
Refer: 20 2958 N 1 0 0 1 220 0 2
Validated: 5
PickledDataWithLists: "(dp1
S'com.fontlab.hintData'
p2
(dp3
S'vhints'
p4
(lp5
(dp6
S'position'
p7
L39L
sS'width'
p8
L124L
sa(dp9
g7
L39L
sg8
L131L
sa(dp10
g7
L39L
sg8
L171L
sa(dp11
g7
L317L
sg8
L123L
sa(dp12
g7
L484L
sg8
L123L
sa(dp13
g7
L706L
sg8
L123L
sasS'hhints'
p14
(lp15
(dp16
g7
L-165L
sg8
L122L
sa(dp17
g7
L1L
sg8
L122L
sa(dp18
g7
L238L
sg8
L123L
sa(dp19
g7
L472L
sg8
L105L
sa(dp20
g7
L472L
sg8
L123L
sass."
EndChar

StartChar: tml_O
Encoding: 115 2962 115
GlifName: tml_O_
Width: 895
VWidth: 0
GlyphClass: 2
Flags: W
LayerCount: 2
Fore
SplineSet
479 573 m 261
 479 695 l 261
 745 695 857 494 857 398 c 262
 857 165 l 262
 857 -17 483 -16 483 166 c 262
 483 350 l 260
 606 350 l 261
 606 196 l 261
 606 137 732 136 733 196 c 262
 733 398 l 262
 733 458 641 573 479 573 c 261
39 177 m 262
 39 250 l 262
 38 354 160 389 210 389 c 261
 210 266 l 260
 181 266 163 246 163 210 c 260
 163 173 180 152 210 152 c 261
 210 29 l 260
 108 29 39 124 39 177 c 262
265 29 m 261
 265 152 l 260
 299 152 318 174 317 210 c 260
 316 244 305 266 265 266 c 261
 265 389 l 260
 364 389 439 309 439 248 c 262
 439 177 l 262
 439 115 364 29 265 29 c 261
39 256 m 261
 39 310 l 261
 39 452 121 695 426 695 c 260
 426 695 l 261
 426 573 l 261
 243 573 179 456 179 357 c 260
 179 300 45 286 39 256 c 261
483 25 m 262
 483 276 l 261
 604 171 l 260
 604 52 l 262
 604 3 678 -9 752 -9 c 260
 752 -132 l 261
 589 -132 483 -66 483 25 c 262
189 -124 m 261
 308 -94 l 261
 336 -151 430 -156 462 -94 c 260
 567 -155 l 261
 501 -297 244 -298 189 -124 c 261
EndSplineSet
Validated: 37
EndChar

StartChar: tml_Om
Encoding: 116 3024 116
GlifName: tml_O_m
Width: 895
VWidth: 0
GlyphClass: 2
Flags: HW
LayerCount: 2
Fore
SplineSet
386 28 m 0
 386 37 394 44 404 44 c 0
 414 44 422 37 422 28 c 0
 422 19 414 12 404 12 c 0
 394 12 386 19 386 28 c 0
414.580078125 -227.325195312 m 256
 414.580078125 -213.924804688 l 257
 448.331054688 -213.924804688 449.01953125 -172.049804688 449.01953125 -161.665039062 c 258
 449.01953125 -81.9345703125 l 258
 449.01953125 -79.2548828125 451.430664062 -38.0498046875 414.580078125 -38.0498046875 c 257
 414.580078125 -24.650390625 l 257
 438.546875 -24.650390625 465.419921875 -36.7099609375 465.419921875 -81.9345703125 c 258
 465.419921875 -161.330078125 l 258
 465.419921875 -211.245117188 440.725585938 -227.325195312 414.580078125 -227.325195312 c 256
344.059570312 -214.259765625 m 256
 344.059570312 -81.9345703125 l 258
 343.70703125 -37.3798828125 369.485351562 -24.650390625 392.439453125 -24.650390625 c 257
 392.439453125 -38.0498046875 l 257
 358.151367188 -38.0498046875 360.459960938 -78.919921875 360.459960938 -81.9345703125 c 258
 360.459960938 -214.259765625 l 257
 344.059570312 -214.259765625 l 256
259.599609375 -219.28515625 m 257
 259.599609375 -28 l 257
 276 -28 l 257
 276 -219.28515625 l 257
 259.599609375 -219.28515625 l 257
259.599609375 -227.325195312 m 257
 259.599609375 -213.924804688 l 257
 392.439453125 -213.924804688 l 257
 392.439453125 -227.325195312 l 257
 259.599609375 -227.325195312 l 257
479 573 m 257
 479 695 l 257
 745 695 857 494 857 398 c 258
 857 165 l 258
 857 -17 483 -16 483 166 c 258
 483 350 l 256
 606 350 l 257
 606 196 l 257
 606 137 732 136 733 196 c 258
 733 398 l 258
 733 458 641 573 479 573 c 257
39 177 m 258
 39 250 l 258
 38 354 160 389 210 389 c 257
 210 266 l 256
 181 266 163 246 163 210 c 256
 163 173 180 152 210 152 c 257
 210 29 l 256
 108 29 39 124 39 177 c 258
265 29 m 257
 265 152 l 256
 299 152 318 174 317 210 c 256
 316 244 305 266 265 266 c 257
 265 389 l 256
 364 389 439 309 439 248 c 258
 439 177 l 258
 439 115 364 29 265 29 c 257
39 256 m 257
 39 310 l 257
 39 452 121 695 426 695 c 256
 426 695 l 257
 426 573 l 257
 243 573 179 456 179 357 c 256
 179 300 45 286 39 256 c 257
483 25 m 258
 483 276 l 257
 604 171 l 256
 604 52 l 258
 604 3 678 -9 752 -9 c 256
 752 -132 l 257
 589 -132 483 -66 483 25 c 258
189 -284 m 257
 308 -254 l 257
 336 -311 512 -276 528 -150 c 256
 654 -178 l 257
 558 -458 244 -458 189 -284 c 257
EndSplineSet
Validated: 37
EndChar

StartChar: tml_Oo
Encoding: 118 2963 118
GlifName: tml_O_o
Width: 895
VWidth: 0
GlyphClass: 2
Flags: W
HStem: -132 123<715 752 715 752> 29 122 266 123<195.5 210 265 285> 573 122<334.5 426 479 560>
VStem: 39 171<29 250 29 250 266 310 310 381> 39 124<191.5 228 191.5 250 191.5 250 191.5 310 191.5 381> 216 123<-158.5 -128 -158.5 -102.5> 317 123 483 123<166.5 196 196 276 166.5 196 196 350 276 276> 733 123
LayerCount: 2
Fore
SplineSet
479 573 m 257
 479 695 l 257
 745 695 857 494 857 398 c 258
 857 165 l 258
 857 -17 483 -16 483 166 c 258
 483 350 l 256
 606 350 l 257
 606 196 l 257
 606 137 732 136 733 196 c 258
 733 398 l 258
 733 458 641 573 479 573 c 257
216 -141 m 256
 216 -64 256 19 386 19 c 257
 386 -104 l 257
 361 -104 339 -115 339 -141 c 256
 339 -176 404 -203 451 -138 c 256
 459 -127 462 -121 474 -98 c 257
 586 -163 l 257
 563 -206 488 -302 382 -301 c 256
 279 -300 216 -226 216 -141 c 256
39 177 m 258
 39 250 l 258
 38 354 160 389 210 389 c 257
 210 266 l 256
 181 266 163 246 163 210 c 256
 163 173 180 152 210 152 c 257
 210 29 l 256
 108 29 39 124 39 177 c 258
265 29 m 257
 265 152 l 256
 299 152 318 174 317 210 c 256
 316 244 305 266 265 266 c 257
 265 389 l 256
 364 389 439 309 439 248 c 258
 439 177 l 258
 439 115 364 29 265 29 c 257
39 256 m 257
 39 310 l 257
 39 452 121 695 426 695 c 256
 426 573 l 257
 243 573 179 456 179 357 c 256
 179 300 45 286 39 256 c 257
483 25 m 258
 483 276 l 257
 604 171 l 256
 604 52 l 258
 604 3 678 -9 752 -9 c 256
 752 -132 l 257
 589 -132 483 -66 483 25 c 258
EndSplineSet
Validated: 37
PickledDataWithLists: "(dp1
S'com.fontlab.hintData'
p2
(dp3
S'vhints'
p4
(lp5
(dp6
S'position'
p7
L39L
sS'width'
p8
L171L
sa(dp9
g7
L39L
sg8
L124L
sa(dp10
g7
L216L
sg8
L123L
sa(dp11
g7
L317L
sg8
L123L
sa(dp12
g7
L483L
sg8
L123L
sa(dp13
g7
L733L
sg8
L123L
sasS'hhints'
p14
(lp15
(dp16
g7
L-132L
sg8
L123L
sa(dp17
g7
L29L
sg8
L122L
sa(dp18
g7
L266L
sg8
L123L
sa(dp19
g7
L573L
sg8
L122L
sass."
EndChar

StartChar: tml_PI
Encoding: 119 -1 119
GlifName: tml_P_I_
Width: 716
VWidth: 0
GlyphClass: 2
Flags: HW
LayerCount: 2
Fore
SplineSet
494 688 m 261
 494 810 l 261
 641 810 676 693 676 592 c 262
 676 1 l 261
 554 1 l 261
 554 589 l 262
 554 651 541 688 494 688 c 261
379 461 m 261
 192 461 209 810 440 810 c 261
 440 810 l 261
 440 688 l 260
 440 688 l 260
 389 688 379 642 379 590 c 269
 379 461 l 261
EndSplineSet
Refer: 123 2986 S 1 0 0 1 1 0 2
Validated: 37
EndChar

StartChar: tml_PIi
Encoding: 120 -1 120
GlifName: tml_P_I_i
Width: 735
VWidth: 0
GlyphClass: 2
Flags: HW
LayerCount: 2
Fore
SplineSet
505 825 m 257
 354 825 338 628 485 594 c 257
 378 501 l 257
 185 609 237 949 498 949 c 257
 758 949 750.69 617 541 617 c 256
 496 617 446 655 434 678 c 257
 510 769 l 256
 510 753 519 736 544 736 c 256
 567 736 578 755 578 776 c 256
 578 791 562 825 505 825 c 257
EndSplineSet
Refer: 123 2986 N 1 0 0 1 1 0 2
Validated: 37
EndChar

StartChar: tml_PU
Encoding: 121 -1 121
GlifName: tml_P_U_
Width: 552
VWidth: 0
GlyphClass: 2
Flags: W
LayerCount: 2
Fore
SplineSet
40 106 m 257
 40 597 l 257
 162 597 l 257
 162 106 l 257
 40 106 l 257
303 0 m 257
 303 122 l 257
 390 122 l 257
 390 596 l 257
 512 596 l 257
 512 -258 l 257
 390 -258 l 257
 390 0 l 257
 303 0 l 257
40 0 m 257
 40 122 l 257
 249 122 l 257
 249 0 l 257
 40 0 l 257
EndSplineSet
Validated: 5
EndChar

StartChar: tml_PUu
Encoding: 122 -1 122
GlifName: tml_P_U_u
Width: 756
VWidth: 0
GlyphClass: 2
Flags: HW
HStem: -258 93<148 150 150 297 148 353 353 616> -106 93 1 122 107 17
VStem: 26 88<-147.5 -128 -128 -127 -147.5 -91> 95 122 95 202 187 88 550 4<-112 -20 -20 -20>
LayerCount: 2
Fore
SplineSet
342 -208 m 257
 342 -331 l 257
 164 -331 l 258xcdf8
 70 -331 20 -288 20 -204 c 258
 20 -128 l 258
 20 -54 95 -14 166 -14 c 257
 241 -14 288 -61 288 -134 c 258
 288 -142 l 256
 200 -142 l 256
 200 -120 188 -107 166 -106 c 257
 144 -106 124 -122 124 -154 c 256
 124 -188 144 -208 162 -208 c 258
 342 -208 l 257
396 -208 m 256
 601 -208 l 256
 601 -2 l 256
 535 -2 l 256
 535 120 l 257
 607 120 l 258xe8f8
 671 120 720 90 720 40 c 258
 720 -227 l 258
 720 -279 664 -331 601 -331 c 258
 396 -331 l 257
 396 -208 l 256
432 7 m 257
 554 7 l 257
 554 -143 l 257
 432 -143 l 257
 432 7 l 257
EndSplineSet
Refer: 123 2986 N 1 0 0 1 56 0 2
Validated: 5
PickledDataWithLists: "(dp1
S'com.fontlab.hintData'
p2
(dp3
S'vhints'
p4
(lp5
(dp6
S'position'
p7
L26L
sS'width'
p8
L88L
sa(dp9
g7
L95L
sg8
L122L
sa(dp10
g7
L95L
sg8
L202L
sa(dp11
g7
L187L
sg8
L88L
sa(dp12
g7
L550L
sg8
L4L
sasS'hhints'
p13
(lp14
(dp15
g7
L-258L
sg8
L93L
sa(dp16
g7
L-106L
sg8
L93L
sa(dp17
g7
L1L
sg8
L122L
sa(dp18
g7
L107L
sg8
L17L
sass."
EndChar

StartChar: tml_Pa
Encoding: 123 2986 123
GlifName: tml_P_a
Width: 537
VWidth: 0
GlyphClass: 2
Flags: HW
HStem: 1 122<39 241 39 241 39 297 297 498> 107 17
VStem: 39 202<1 123 107 123 1 595 1 123> 39 122<107 123 107 595 123 123 107 595>
AnchorPoint: "tml_virama" 271 0 basechar 0
LayerCount: 2
Fore
SplineSet
39 107 m 257
 39 595 l 257
 161 595 l 257
 161 107 l 257
 39 107 l 257
376 104 m 257
 376 595 l 257
 498 595 l 257
 498 104 l 257
 376 104 l 257
297 1 m 257
 297 123 l 257
 498 123 l 257
 498 1 l 257
 297 1 l 257
39 1 m 257
 39 123 l 257
 241 123 l 257
 241 1 l 257
 39 1 l 257
EndSplineSet
Validated: 5
PickledDataWithLists: "(dp1
S'com.fontlab.hintData'
p2
(dp3
S'vhints'
p4
(lp5
(dp6
S'position'
p7
L39L
sS'width'
p8
L202L
sa(dp9
g7
L39L
sg8
L122L
sasS'hhints'
p10
(lp11
(dp12
g7
L1L
sg8
L122L
sa(dp13
g7
L107L
sg8
L17L
sass."
EndChar

StartChar: tml_RI
Encoding: 124 -1 124
GlifName: tml_R_I_
Width: 776
VWidth: 0
GlyphClass: 2
Flags: HW
LayerCount: 2
Fore
SplineSet
556 690 m 257
 556 812 l 257
 707 812 736 697 736 594 c 258
 736 0 l 261
 614 0 l 261
 614 591 l 258
 614 653 603 690 556 690 c 257
321 592 m 257
 321 592 l 257
 321 696 353 812 502 812 c 256
 502 812 l 257
 502 690 l 256
 502 690 l 256
 455 690 444 653 444 592 c 256
 321 592 l 257
EndSplineSet
Refer: 131 2992 N 1 0 0 1 1 0 2
Validated: 5
EndChar

StartChar: tml_RI.alt
Encoding: 125 -1 125
GlifName: tml_R_I_.alt
Width: 777
VWidth: 0
GlyphClass: 2
Flags: HW
LayerCount: 2
Fore
SplineSet
557 690 m 257
 557 812 l 257
 708 812 737 697 737 594 c 258
 737 0 l 261
 615 0 l 261
 615 591 l 258
 615 653 604 690 557 690 c 257
322 592 m 257
 445 592 l 256
 445 653 456 690 503 690 c 256
 503 690 l 256
 503 812 l 257
 503 812 l 256
 354 812 322 696 322 592 c 257
 322 592 l 257
324 0 m 257
 446 0 l 257
 446 593 l 257
 324 593 l 257
 324 0 l 257
40 0 m 257
 40 592 l 257
 162 593 l 257
 162 0 l 257
 40 0 l 257
272 473 m 257
 567 473 l 257
 567 595 l 257
 272 595 l 257
 272 473 l 257
40 473 m 257
 40 595 l 257
 219 595 l 257
 219 473 l 257
 40 473 l 257
EndSplineSet
Validated: 5
EndChar

StartChar: tml_RIi
Encoding: 126 -1 126
GlifName: tml_R_I_i
Width: 731
VWidth: 0
GlyphClass: 2
Flags: HW
LayerCount: 2
Fore
SplineSet
321 473.656 m 257
 321 597 l 256
 247 756 318.394 944 521 944 c 256
 749 944 740.69 631 542 631 c 256
 497 631 450 669 440 690 c 257
 511 773 l 256
 511 757 520 740 545 740 c 256
 568 740 579 759 579 780 c 256
 579 795 568 829 511 829 c 257
 439.677 828.57 370 754 445 595.727 c 256
 445 473.656 l 257
 321 473.656 l 257
EndSplineSet
Refer: 131 2992 N 1 0 0 1 1 0 2
Validated: 37
EndChar

StartChar: tml_RIi.alt
Encoding: 127 -1 127
GlifName: tml_R_I_i.alt
Width: 733
VWidth: 0
GlyphClass: 2
Flags: W
LayerCount: 2
Fore
SplineSet
323 476.656 m 257
 447 476.656 l 257
 447 594.727 l 256
 372 753 441.677 827.57 513 828 c 257
 570 828 581 794 581 779 c 256
 581 758 570 739 547 739 c 256
 522 739 513 756 513 772 c 256
 442 689 l 257
 452 668 499 630 544 630 c 256
 742.69 630 751 943 523 943 c 256
 320.394 943 249 755 323 596 c 256
 323 476.656 l 257
324 0 m 257
 446 0 l 257
 446 593 l 257
 324 593 l 257
 324 0 l 257
40 0 m 257
 40 592 l 257
 162 593 l 257
 162 0 l 257
 40 0 l 257
272 473 m 257
 567 473 l 257
 567 595 l 257
 272 595 l 257
 272 473 l 257
40 473 m 257
 40 595 l 257
 219 595 l 257
 219 473 l 257
 40 473 l 257
EndSplineSet
Validated: 37
EndChar

StartChar: tml_RU
Encoding: 128 -1 128
GlifName: tml_R_U_
Width: 1012
VWidth: 0
GlyphClass: 2
Flags: HW
HStem: -150 122 1 21<330 330 330 452 611 734 611 611> 379 122<238 274 231.5 275> 473 122<332 332 332 452 452 524 578 848>
VStem: 75 123<29 287> 330 194<473 595 473 595 473 595> 330 122<1 595 1 595> 831 122<37 187 187 212>
LayerCount: 2
Fore
SplineSet
45 29 m 258
 45 292 l 258
 45 455 159 501 244 501 c 256
 245 379 l 256
 171 379 168 323 168 287 c 258
 168 28 l 258
 168 -36 191 -87 255 -87 c 258
 523 -87 l 257
 523 -209 l 257
 239 -208 l 258
 130 -208 45 -110 45 29 c 258
578 -87 m 257
 765 -87 l 258
 834 -87 831 -6 831 37 c 258
 831 187 l 258
 831 237 828 251 790 251 c 257
 790 372 l 257
 898 372 953 339 953 221 c 258
 953 -47 l 258
 953 -114 892 -210 766 -210 c 258
 578 -209 l 257
 578 -87 l 257
330 1 m 257
 330 595 l 257
 452 595 l 257
 452 1 l 257
 330 1 l 257
332 473 m 257
 332 595 l 257
 524 595 l 257
 524 473 l 257
 332 473 l 257
611 1 m 257
 611 591 l 257
 736 591 l 257
 734 1 l 257
 611 1 l 257
578 473 m 257
 578 595 l 257
 848 595 l 257
 848 473 l 257
 578 473 l 257
EndSplineSet
Validated: 37
PickledDataWithLists: "(dp1
S'com.fontlab.hintData'
p2
(dp3
S'vhints'
p4
(lp5
(dp6
S'position'
p7
L39L
sS'width'
p8
L123L
sa(dp9
g7
L294L
sg8
L194L
sa(dp10
g7
L294L
sg8
L122L
sa(dp11
g7
L795L
sg8
L122L
sasS'hhints'
p12
(lp13
(dp14
g7
L-150L
sg8
L122L
sa(dp15
g7
L1L
sg8
L21L
sa(dp16
g7
L379L
sg8
L122L
sa(dp17
g7
L473L
sg8
L122L
sass."
EndChar

StartChar: tml_RUu
Encoding: 129 -1 129
GlifName: tml_R_U_u
Width: 1129
VWidth: 0
GlyphClass: 2
Flags: HW
HStem: -150 122 1 21<461 461 461 583 742 865 742 742> 321 122<280 290 290 300> 473 122<463 463 463 583 583 655 709 979>
VStem: 125 123<29 220 220 232> 323 122<276 298.5> 461 194<473 595 473 595 473 595> 461 122<1 595 1 595> 962 122<37 187 187 212>
LayerCount: 2
Fore
SplineSet
55 29 m 258
 55 220 l 258
 55 352 77 443 210 443 c 258
 220 443 l 258
 324 443 375 355 375 300 c 258
 375 271 l 258
 375 202 305 131 220 131 c 257
 220 253 l 256
 240 253 253 265 253 287 c 256
 253 310 239 321 221 321 c 256
 183 321 178 298 178 232 c 258
 178 28 l 258
 178 -36 201 -88 265 -88 c 258
 654 -88 l 257
 654 -210 l 257
 249 -210 l 258
 140 -210 55 -110 55 29 c 258
709 -88 m 257
 897 -88 l 258
 966 -88 962 -6 962 37 c 258
 962 187 l 258
 962 237 952 251 921 251 c 257
 921 372 l 257
 1028 372 1084 339 1084 221 c 258
 1084 -48 l 258
 1084 -115 1024 -210 898 -210 c 258
 709 -210 l 257
 709 -88 l 257
461 1 m 257
 461 595 l 257
 583 595 l 257
 583 1 l 257
 461 1 l 257
463 473 m 257
 463 595 l 257
 655 595 l 257
 655 473 l 257
 463 473 l 257
742 1 m 257
 742 591 l 257
 867 591 l 257
 865 1 l 257
 742 1 l 257
709 473 m 257
 709 595 l 257
 979 595 l 257
 979 473 l 257
 709 473 l 257
EndSplineSet
Validated: 37
PickledDataWithLists: "(dp1
S'com.fontlab.hintData'
p2
(dp3
S'vhints'
p4
(lp5
(dp6
S'position'
p7
L39L
sS'width'
p8
L123L
sa(dp9
g7
L237L
sg8
L122L
sa(dp10
g7
L375L
sg8
L194L
sa(dp11
g7
L375L
sg8
L122L
sa(dp12
g7
L876L
sg8
L122L
sasS'hhints'
p13
(lp14
(dp15
g7
L-150L
sg8
L122L
sa(dp16
g7
L1L
sg8
L21L
sa(dp17
g7
L321L
sg8
L122L
sa(dp18
g7
L473L
sg8
L122L
sass."
EndChar

StartChar: tml_RVirama.alt
Encoding: 130 -1 130
GlifName: tml_R_V_irama.alt
Width: 606
VWidth: 0
GlyphClass: 2
Flags: W
LayerCount: 2
Fore
SplineSet
40 0 m 257
 40 592 l 257
 162 593 l 257
 162 0 l 257
 40 0 l 257
40 473 m 257
 40 595 l 257
 219 595 l 257
 219 473 l 257
 40 473 l 257
194.553 728.01 m 260
 194.553 771.252 228.529 806 271 806 c 260
 313.47 806 347.446 771.252 347.446 728.01 c 260
 347.446 684.767 313.47 650.019 271 650.019 c 260
 228.529 650.019 194.553 684.767 194.553 728.01 c 260
324 0 m 257
 446 0 l 257
 446 593 l 257
 324 593 l 257
 324 0 l 257
272 473 m 257
 566 473 l 257
 566 595 l 257
 272 595 l 257
 272 473 l 257
EndSplineSet
Validated: 5
EndChar

StartChar: tml_Ra
Encoding: 131 2992 131
GlifName: tml_R_a
Width: 595
VWidth: 0
GlyphClass: 2
Flags: HW
HStem: 0 21<39 39 39 161 443 443> 473 122<41 41 41 161 161 217 39 271 271 557>
VStem: 39 178<473 595 473 595 473 595> 39 122<0 595 0 595>
AnchorPoint: "tml_virama" 271 0 basechar 0
LayerCount: 2
Fore
SplineSet
151 -177 m 257
 320 33 l 257
 320 591 l 257
 445 591 l 257
 443 0 l 256
 294 -177 l 257
 151 -177 l 257
39 0 m 257
 39 595 l 257
 161 595 l 257
 161 0 l 257
 39 0 l 257
271 473 m 257
 271 595 l 257
 557 595 l 257
 557 473 l 257
 271 473 l 257
41 473 m 257
 41 595 l 257
 217 595 l 257
 217 473 l 257
 41 473 l 257
EndSplineSet
Validated: 5
PickledDataWithLists: "(dp1
S'com.fontlab.hintData'
p2
(dp3
S'vhints'
p4
(lp5
(dp6
S'position'
p7
L39L
sS'width'
p8
L178L
sa(dp9
g7
L39L
sg8
L122L
sasS'hhints'
p10
(lp11
(dp12
g7
L0L
sg8
L21L
sa(dp13
g7
L473L
sg8
L122L
sass."
EndChar

StartChar: tml_RrAa.alt
Encoding: 132 -1 132
GlifName: tml_R_rA_a.alt
Width: 1005
VWidth: 0
GlyphClass: 2
Flags: HWO
LayerCount: 2
Fore
SplineSet
487 -210 m 257
 487 -88 l 257
 270 -88 l 258
 206 -88 183 -58 183 6 c 258
 183 519 l 258
 60 519 l 17
 60 6 l 258
 60 -133 145 -210 254 -210 c 258
 487 -210 l 257
539 -210 m 257
 539 -88 l 257
 767 -88 l 258
 836 -88 834 -37 834 6 c 258
 834 102 l 258
 834 169 783 160 761 160 c 257
 761 287 l 257
 823 281 956 268 956 136 c 258
 956 -48 l 258
 956 -115 894 -210 768 -210 c 258
 539 -210 l 257
761 287 m 257
 773 287 l 258
 839 287 832 336 832 367 c 258
 832 433 l 258
 832 487 785 484 763 484 c 257
 763 606 l 257
 876 606 954 559 954 475 c 258
 954 384 l 258
 954 279 941 167 777 165 c 258
 761 165 l 256
 761 287 l 257
486 483 m 257
 486 606 l 257
 532 606 562 597 586 576 c 257
 614 599 673 606 712 606 c 257
 712 484 l 257
 694 484 645.860351562 490.999023438 646 459 c 258
 648 2 l 257
 526 1 l 257
 524 458 l 258
 524 472 512 483 486 483 c 257
280 0 m 257
 280 479 l 258
 280 529 321 606 433 606 c 257
 433 483 l 257
 408 483 402 471 402 458 c 258
 404 1 l 257
 280 0 l 257
EndSplineSet
EndChar

StartChar: tml_RrI
Encoding: 133 -1 133
GlifName: tml_R_rI_
Width: 910
VWidth: 0
GlyphClass: 2
Flags: HW
LayerCount: 2
Fore
SplineSet
449 595.289 m 257
 449 595.289 l 257
 449 699.289 482 815.289 631 815.289 c 256
 631 815.289 l 257
 631 693.289 l 256
 631 693.289 l 256
 584 693.289 572 656.289 572 595.289 c 256
 449 595.289 l 257
685 693.289 m 257
 685 815.289 l 257
 836 815.289 870 700.289 870 597.289 c 258
 870 0.2890625 l 257
 748 0.2890625 l 257
 748 594.289 l 258
 748 656.289 738 693.289 685 693.289 c 257
EndSplineSet
Refer: 137 2993 N 1 0 0 1 0 0 2
Validated: 5
EndChar

StartChar: tml_RrIi
Encoding: 134 -1 134
GlifName: tml_R_rI_i
Width: 851
VWidth: 0
GlyphClass: 2
Flags: HW
LayerCount: 2
Fore
SplineSet
441 504.656 m 257
 441 595 l 256
 367 754 438.394 942 641 942 c 256
 869 942 860.69 629 662 629 c 256
 617 629 570 667 560 688 c 257
 631 771 l 256
 631 755 640 738 665 738 c 256
 688 738 699 757 699 778 c 256
 699 793 688 827 631 827 c 257
 559.677 826.57 490 752 565 593.727 c 256
 565 504.656 l 257
 441 504.656 l 257
EndSplineSet
Refer: 137 2993 N 1 0 0 1 0 0 2
Validated: 37
EndChar

StartChar: tml_RrU
Encoding: 135 -1 135
GlifName: tml_R_rU_
Width: 901
VWidth: 0
GlyphClass: 2
Flags: W
HStem: -257 94<173.5 330 190 330 384 512 512 513 190 384> -120 93<171 739 191 739 191 861> -1 21 494 117
VStem: 37 129 288 122 564 122 739 122<-27 583 -120 583>
LayerCount: 2
Fore
SplineSet
40 -125 m 258
 40 -57 103 -27 191 -27 c 256
 382 -27 548 -27 739 -27 c 257
 739 583 l 256
 861 583 l 256
 861 -120 l 257
 191 -120 l 258
 151 -120 152 -163 190 -163 c 258
 330 -163 l 257
 330 -257 l 257
 190 -257 l 258
 157 -257 41 -253 40 -158 c 258
 40 -125 l 258
384 -257 m 257
 384 -163 l 257
 512 -163 l 258
 561 -163 564 -110 564 -80 c 258
 564 21 l 257
 564 460 l 258
 564 481 544 484 522 484 c 257
 522 606 l 257
 635 606 687 542 687 487 c 258
 687 18 l 256
 687 -80 l 258
 687 -146 666 -257 513 -257 c 258
 384 -257 l 257
272 483 m 257
 272 606 l 257
 318 606 347 597 371 576 c 257
 399 599 432 606 471 606 c 257
 471 484 l 257
 453 484 431 481 431 459 c 258
 434 2 l 257
 312 1 l 257
 309 458 l 258
 309 472 298 483 272 483 c 257
65 0 m 257
 65 479 l 258
 65 529 106 606 218 606 c 257
 218 483 l 257
 193 483 187 471 187 458 c 258
 189 1 l 257
 65 0 l 257
EndSplineSet
Validated: 37
PickledDataWithLists: "(dp1
S'com.fontlab.hintData'
p2
(dp3
S'vhints'
p4
(lp5
(dp6
S'position'
p7
L37L
sS'width'
p8
L129L
sa(dp9
g7
L288L
sg8
L122L
sa(dp10
g7
L564L
sg8
L122L
sa(dp11
g7
L739L
sg8
L122L
sasS'hhints'
p12
(lp13
(dp14
g7
L-257L
sg8
L94L
sa(dp15
g7
L-120L
sg8
L93L
sa(dp16
g7
L-1L
sg8
L21L
sa(dp17
g7
L494L
sg8
L117L
sass."
EndChar

StartChar: tml_RrUu
Encoding: 136 -1 136
GlifName: tml_R_rU_u
Width: 1293
VWidth: 0
GlyphClass: 2
Flags: HW
HStem: -257 94 -120 93 -1 21 474 122<765 943 765 943 765 997 997 1255> 474 109 494 117
VStem: 62 129 313 122 590 122 765 179 765 122
LayerCount: 2
Fore
SplineSet
1049 -119 m 261
 1049 594 l 257
 1171 594 l 257
 1171 -119 l 261
 1049 -119 l 261
997 474 m 257
 997 596 l 257
 1255 596 l 257
 1255 474 l 257
 997 474 l 257
765 474 m 257
 765 596 l 257
 943 596 l 257
 943 474 l 257
 765 474 l 257
EndSplineSet
Refer: 135 -1 N 1 0 0 1 26 0 2
Validated: 5
PickledDataWithLists: "(dp1
S'com.fontlab.hintData'
p2
(dp3
S'vhints'
p4
(lp5
(dp6
S'position'
p7
L62L
sS'width'
p8
L129L
sa(dp9
g7
L313L
sg8
L122L
sa(dp10
g7
L590L
sg8
L122L
sa(dp11
g7
L765L
sg8
L179L
sa(dp12
g7
L765L
sg8
L122L
sasS'hhints'
p13
(lp14
(dp15
g7
L-257L
sg8
L94L
sa(dp16
g7
L-120L
sg8
L93L
sa(dp17
g7
L-1L
sg8
L21L
sa(dp18
g7
L474L
sg8
L122L
sa(dp19
g7
L474L
sg8
L109L
sa(dp20
g7
L494L
sg8
L117L
sass."
EndChar

StartChar: tml_Rra
Encoding: 137 2993 137
GlifName: tml_R_ra
Width: 750
VWidth: 0
GlyphClass: 2
Flags: HW
HStem: -155 122<233 237 237 472 472 498> 0 21<70 70> 483 123<210.5 223 276 289>
VStem: 39 122<-256 -216 -256 -185> 65 129 316 122<1 2> 569 125
AnchorPoint: "tml_virama" 371 0 basechar 0
LayerCount: 2
Fore
SplineSet
39 -311 m 257
 39 -169 91 -88 233 -88 c 258
 472 -88 l 258
 557 -88 569 -30 569 47 c 258
 569 460 l 258
 569 481 549 484 527 484 c 257
 527 606 l 257
 640 606 691 530 691 475 c 258
 691 64 l 258
 691 -128 615 -210 498 -210 c 258
 237 -210 l 258
 190 -210 161 -231 161 -311 c 257
 39 -311 l 257
70 0 m 257
 70 479 l 258
 70 529 111 606 223 606 c 257
 223 483 l 257
 198 483 192 471 192 458 c 258
 194 1 l 257
 70 0 l 257
276 483 m 257
 276 606 l 257
 322 606 352 597 376 576 c 257
 404 599 437 606 476 606 c 257
 476 484 l 257
 458 484 436 481 436 459 c 258
 438 2 l 257
 316 1 l 257
 314 458 l 258
 314 472 302 483 276 483 c 257
EndSplineSet
Validated: 1
PickledDataWithLists: "(dp1
S'com.fontlab.hintData'
p2
(dp3
S'vhints'
p4
(lp5
(dp6
S'position'
p7
L39L
sS'width'
p8
L122L
sa(dp9
g7
L65L
sg8
L129L
sa(dp10
g7
L316L
sg8
L122L
sa(dp11
g7
L569L
sg8
L125L
sasS'hhints'
p12
(lp13
(dp14
g7
L-155L
sg8
L122L
sa(dp15
g7
L0L
sg8
L21L
sa(dp16
g7
L483L
sg8
L123L
sass."
EndChar

StartChar: tml_Rupee
Encoding: 138 3065 138
GlifName: tml_R_upee
Width: 1157
VWidth: 0
GlyphClass: 2
Flags: HW
LayerCount: 2
Fore
SplineSet
433 790 m 258
 458 684 l 257
 271 684 263 1010 494 1010 c 257
 494 1010 l 257
 494 888 l 256
 494 888 l 256
 443 888 421.29296875 839.635742188 433 790 c 258
935 854 m 256
 935 776 867 728 795 728 c 256
 736 728 661 768 661 854 c 257
 763 854 l 256
 763 834 781 821 799 821 c 256
 818 821 832 839 832 853 c 256
 832 884 807 888 764 888 c 258
 544 888 l 257
 544 1008 l 257
 768 1008 l 258
 858 1008 935 978 935 854 c 256
1132 800 m 257
 1039 800 959 835 959 945 c 258
 959 1030 l 258
 959 1108 910 1132 848 1132 c 256
 787 1132 763 1092 763 1026 c 257
 660 1026 l 256
 660 1136 716 1237 848 1237 c 256
 994 1237 1062 1172 1062 1030 c 258
 1062 945 l 258
 1062 904 1067 905 1132 903 c 256
 1132 800 l 257
524 473 m 257
 524 595 l 257
 794 595 l 257
 794 473 l 257
 524 473 l 257
524 -55 m 257
 712 -55 l 258
 781 -55 777 -5 777 38 c 258
 777 187 l 258
 777 237 757 251 736 251 c 257
 736 372 l 257
 797 366 899 339 899 221 c 258
 899 -15 l 258
 899 -82 839 -178 713 -178 c 258
 524 -177 l 257
 524 -55 l 257
39 30 m 258
 39 604 l 258
 39 730 111 795 217 795 c 258
 450 795 l 256
 451 685 l 256
 238 685 l 258
 153 685 162 625 162 599 c 258
 162 29 l 258
 162 -35 185 -55 249 -55 c 258
 470 -55 l 257
 470 -177 l 257
 233 -176 l 258
 124 -176 39 -109 39 30 c 258
558 1 m 257
 558 591 l 257
 683 591 l 257
 681 1 l 257
 558 1 l 257
276 1 m 257
 276 595 l 257
 398 595 l 257
 398 1 l 257
 276 1 l 257
278 473 m 257
 278 595 l 257
 471 595 l 257
 471 473 l 257
 278 473 l 257
EndSplineSet
Validated: 37
EndChar

StartChar: tml_SI
Encoding: 139 -1 139
GlifName: tml_S_I_
Width: 1367
VWidth: 0
GlyphClass: 2
Flags: HW
LayerCount: 2
Fore
SplineSet
706.996 483 m 257
 706.996 606 l 257
 869.101 606 882.976 503.027 883.996 402 c 257
 883.996 168 l 258
 883.996 138 896.996 124 923.996 124 c 257
 923.996 0 l 257
 792.073 0 761.996 96.377 761.996 168 c 258
 761.996 402 l 258
 760.996 469 750.996 483 706.996 483 c 257
977.996 0 m 257
 1102.95 0 1144 90.6143 1144 168 c 258
 1144 426 l 258
 1144 538.433 1097.9 596 970.996 596 c 257
 970.996 473 l 257
 1009 473 1021 460 1021 424 c 257
 1021 168 l 257
 1021 141 1004 124 977.996 124 c 257
 977.996 0 l 257
40.9961 151 m 256
 40.9961 193 41.9961 140 40.9961 220 c 256
 39.9961 324 161.996 359 211.996 359 c 257
 211.996 237 l 256
 182.996 237 164.996 210 164.996 181 c 256
 164.996 149 178.996 122 211.996 122 c 257
 211.996 0 l 256
 109.996 0 40.9961 91 40.9961 151 c 256
266.996 0 m 257
 266.996 122 l 256
 307.996 122 313.996 150 312.996 181 c 256
 311.996 208 308.996 237 266.996 237 c 257
 266.996 359 l 256
 362.996 359 435.996 276 435.996 224 c 258
 435.996 152 l 258
 436.996 89 375.996 0 266.996 0 c 257
352.996 484 m 257
 352.996 605 l 257
 514.996 605 596.996 456 596.996 355 c 257
 600.996 0 l 257
 474.996 0 l 257
 473.996 354 l 257
 472.996 417 421.996 484 352.996 484 c 257
979.996 472.656 m 257
 979.996 601.656 l 258
 979.996 666.656 1013 699.656 1061 699.656 c 256
 1061 699.656 l 256
 1061 821.656 l 257
 1061 821.656 l 257
 815.996 821.656 788.996 472.656 979.996 472.656 c 257
1115 699.656 m 257
 1115 821.656 l 257
 1262 821.656 1321 704.656 1321 603.656 c 258
 1321 -0.34375 l 257
 1199 -0.34375 l 257
 1199 600.656 l 258
 1199 662.656 1162 699.656 1115 699.656 c 257
40.9961 226 m 257
 40.9961 326 l 258
 40.9961 427 119.996 605 298.996 605 c 257
 298.996 484 l 257
 233.996 484 171.996 427 171.996 327 c 256
 171.996 270 46.9961 256 40.9961 226 c 257
473.996 325 m 257
 473.996 440 479.996 605 652.996 605 c 257
 652.996 482 l 257
 603.996 482 596.996 470 596.996 326 c 257
 473.996 325 l 257
EndSplineSet
Validated: 37
EndChar

StartChar: tml_SIi
Encoding: 140 -1 140
GlifName: tml_S_I_i
Width: 1329
VWidth: 0
GlyphClass: 2
Flags: W
LayerCount: 2
Fore
SplineSet
1052.01 582.03 m 257
 1141.01 555 1144.01 508 1144.01 424 c 258
 1144.01 166 l 258
 1144.01 81 1088.01 0 978.006 0 c 257
 978.006 123 l 257
 1005.01 123 1024.01 139 1024.01 166 c 257
 1024.01 423 l 258
 1023.23 445.874 1007.06 454.937 971.006 474.656 c 256
 921.006 502 884.006 543 861.006 621 c 256
 826.215 738.986 902.547 919 1092.01 919 c 256
 1352.01 919 1344.7 587 1135.01 587 c 256
 1090.01 587 1040.01 625 1028.01 648 c 257
 1104.01 739 l 256
 1104.01 723 1113.01 706 1138.01 706 c 256
 1161.01 706 1172.01 725 1172.01 746 c 256
 1172.01 761 1156.01 795 1099.01 795 c 257
 961.006 803 931.006 619 1052.01 582.03 c 257
706.006 483 m 257
 706.006 606 l 257
 868.111 606 881.986 503.027 883.006 402 c 257
 883.006 168 l 258
 883.006 138 896.006 124 923.006 124 c 257
 923.006 0 l 257
 791.083 0 761.006 96.377 761.006 168 c 258
 761.006 402 l 258
 760.006 469 750.006 483 706.006 483 c 257
40.0059 151 m 256
 40.0059 193 41.0059 140 40.0059 220 c 256
 39.0059 324 161.006 359 211.006 359 c 257
 211.006 237 l 256
 182.006 237 164.006 210 164.006 181 c 256
 164.006 149 178.006 122 211.006 122 c 257
 211.006 0 l 256
 109.006 0 40.0059 91 40.0059 151 c 256
266.006 0 m 257
 266.006 122 l 256
 307.006 122 313.006 150 312.006 181 c 256
 311.006 208 308.006 237 266.006 237 c 257
 266.006 359 l 256
 362.006 359 435.006 276 435.006 224 c 258
 435.006 152 l 258
 436.006 89 375.006 0 266.006 0 c 257
352.006 484 m 257
 352.006 605 l 257
 514.006 605 596.006 456 596.006 355 c 257
 600.006 0 l 257
 474.006 0 l 257
 473.006 354 l 257
 472.006 417 421.006 484 352.006 484 c 257
40.0059 226 m 257
 40.0059 326 l 258
 40.0059 427 119.006 605 298.006 605 c 257
 298.006 484 l 257
 233.006 484 171.006 427 171.006 327 c 256
 171.006 270 46.0059 256 40.0059 226 c 257
473.006 325 m 257
 473.006 440 479.006 605 652.006 605 c 257
 652.006 482 l 257
 603.006 482 596.006 470 596.006 326 c 257
 473.006 325 l 257
EndSplineSet
Validated: 37
EndChar

StartChar: tml_SU
Encoding: 141 -1 141
GlifName: tml_S_U_
Width: 1551
VWidth: 0
GlyphClass: 2
Flags: W
LayerCount: 2
Fore
SplineSet
970.006 473 m 257
 970.006 597 l 257
 1304.01 597 l 258
 1414.94 595.676 1511.01 568 1511.01 435 c 258
 1511.01 425 l 258
 1511.01 321 1423.01 270 1368.01 270 c 258
 1339.01 270 l 258
 1270.01 270 1199.01 340 1199.01 425 c 257
 1321.01 425 l 256
 1321.01 405 1333.01 392 1355.01 392 c 256
 1378.01 392 1389.01 406 1389.01 424 c 256
 1389.01 462 1355.97 472.326 1300.01 473 c 258
 970.006 473 l 257
706.006 483 m 257
 706.006 606 l 257
 868.111 606 881.986 503.027 883.006 402 c 257
 883.006 168 l 258
 883.006 138 896.006 124 923.006 124 c 257
 923.006 0 l 257
 791.083 0 761.006 96.377 761.006 168 c 258
 761.006 402 l 258
 760.006 469 750.006 483 706.006 483 c 257
977.006 0 m 257
 977.006 124 l 257
 1003.01 124 1020.01 141 1020.01 168 c 257
 1020.01 424 l 257
 1020.01 460 1008.01 473 970.006 473 c 257
 970.006 596 l 257
 1096.91 596 1143.01 538.433 1143.01 426 c 258
 1143.01 168 l 258
 1143.01 90.6143 1101.96 0 977.006 0 c 257
40.0059 151 m 256
 40.0059 193 41.0059 140 40.0059 220 c 256
 39.0059 324 161.006 359 211.006 359 c 257
 211.006 237 l 256
 182.006 237 164.006 210 164.006 181 c 256
 164.006 149 178.006 122 211.006 122 c 257
 211.006 0 l 256
 109.006 0 40.0059 91 40.0059 151 c 256
266.006 0 m 257
 266.006 122 l 256
 307.006 122 313.006 150 312.006 181 c 256
 311.006 208 308.006 237 266.006 237 c 257
 266.006 359 l 256
 362.006 359 435.006 276 435.006 224 c 258
 435.006 152 l 258
 436.006 89 375.006 0 266.006 0 c 257
352.006 484 m 257
 352.006 605 l 257
 514.006 605 596.006 456 596.006 355 c 257
 600.006 0 l 257
 474.006 0 l 257
 473.006 354 l 257
 472.006 417 421.006 484 352.006 484 c 257
40.0059 226 m 257
 40.0059 326 l 258
 40.0059 427 119.006 605 298.006 605 c 257
 298.006 484 l 257
 233.006 484 171.006 427 171.006 327 c 256
 171.006 270 46.0059 256 40.0059 226 c 257
473.006 325 m 257
 473.006 440 479.006 605 652.006 605 c 257
 652.006 482 l 257
 603.006 482 596.006 470 596.006 326 c 257
 473.006 325 l 257
EndSplineSet
Validated: 37
EndChar

StartChar: tml_SUu
Encoding: 142 -1 142
GlifName: tml_S_U_u
Width: 1700
VWidth: 0
GlyphClass: 2
Flags: W
LayerCount: 2
Fore
SplineSet
971.006 474 m 257
 971.006 596 l 257
 1303.01 596 l 258
 1414.01 596 1510.01 573 1510.01 440 c 258
 1510.01 430 l 258
 1510.01 326 1422.01 275 1367.01 275 c 258
 1338.01 275 l 258
 1269.01 275 1198.01 345 1198.01 430 c 257
 1320.01 430 l 256
 1320.01 410 1332.01 397 1354.01 397 c 256
 1377.01 397 1388.01 411 1388.01 429 c 256
 1388.01 467 1355.01 474 1299.01 474 c 258
 971.006 474 l 257
1198.01 592 m 256
 1198.01 702 1295.01 793 1427.01 793 c 256
 1573.01 793 1660.01 701 1660.01 596 c 258
 1660.01 272 l 258
 1660.01 167 1586.01 122 1481.01 122 c 258
 1422.01 122 l 256
 1422.01 214 l 256
 1481.01 214 l 258
 1519.01 214 1537.01 237 1537.01 272 c 258
 1537.01 596 l 258
 1537.01 656 1466.01 671 1427.01 671 c 256
 1389.01 671 1320.01 658 1320.01 592 c 257
 1198.01 592 l 256
706.006 483 m 257
 706.006 606 l 257
 868.111 606 881.986 503.027 883.006 402 c 257
 883.006 168 l 258
 883.006 138 896.006 124 923.006 124 c 257
 923.006 0 l 257
 791.083 0 761.006 96.377 761.006 168 c 258
 761.006 402 l 258
 760.006 469 750.006 483 706.006 483 c 257
977.006 0 m 257
 977.006 124 l 257
 1003.01 124 1020.01 141 1020.01 168 c 257
 1020.01 424 l 257
 1020.01 460 1008.01 473 970.006 473 c 257
 970.006 596 l 257
 1096.91 596 1143.01 538.433 1143.01 426 c 258
 1143.01 168 l 258
 1143.01 90.6143 1101.96 0 977.006 0 c 257
40.0059 151 m 256
 40.0059 193 41.0059 140 40.0059 220 c 256
 39.0059 324 161.006 359 211.006 359 c 257
 211.006 237 l 256
 182.006 237 164.006 210 164.006 181 c 256
 164.006 149 178.006 122 211.006 122 c 257
 211.006 0 l 256
 109.006 0 40.0059 91 40.0059 151 c 256
266.006 0 m 257
 266.006 122 l 256
 307.006 122 313.006 150 312.006 181 c 256
 311.006 208 308.006 237 266.006 237 c 257
 266.006 359 l 256
 362.006 359 435.006 276 435.006 224 c 258
 435.006 152 l 258
 436.006 89 375.006 0 266.006 0 c 257
352.006 484 m 257
 352.006 605 l 257
 514.006 605 596.006 456 596.006 355 c 257
 600.006 0 l 257
 474.006 0 l 257
 473.006 354 l 257
 472.006 417 421.006 484 352.006 484 c 257
40.0059 226 m 257
 40.0059 326 l 258
 40.0059 427 119.006 605 298.006 605 c 257
 298.006 484 l 257
 233.006 484 171.006 427 171.006 327 c 256
 171.006 270 46.0059 256 40.0059 226 c 257
473.006 325 m 257
 473.006 440 479.006 605 652.006 605 c 257
 652.006 482 l 257
 603.006 482 596.006 470 596.006 326 c 257
 473.006 325 l 257
EndSplineSet
Validated: 37
EndChar

StartChar: tml_Sa
Encoding: 143 3000 143
GlifName: tml_S_a
Width: 1187
VWidth: 0
GlyphClass: 2
Flags: HW
HStem: 0 122<195.5 212 195.5 212 267 287.5 195.5 321.5> 237 123 484 121<266.5 299 353 387.5>
VStem: 41 171<0 220 237 326 326 359> 41 131<151 377 298.5 326 326 376.5> 41 124<165 195.5 165 220 165 326> 313 123 762 122<168 402> 1021 122
AnchorPoint: "tml_virama" 531 0 basechar 0
LayerCount: 2
Fore
SplineSet
707 483 m 257
 707 606 l 257
 869.105 606 882.98 503.027 884 402 c 257
 884 168 l 258
 884 138 897 124 924 124 c 257
 924 0 l 257
 792.077 0 762 96.3768 762 168 c 258
 762 402 l 258
 761 469 751 483 707 483 c 257
978 0 m 257
 978 124 l 257
 1004 124 1021 141 1021 168 c 257
 1021 424 l 257
 1021 460 1009 473 971 473 c 257
 971 596 l 257
 1097.91 596 1144 538.433 1144 426 c 258
 1144 168 l 258
 1144 90.6147 1102.96 0 978 0 c 257
41 151 m 256
 41 193 42 140 41 220 c 256
 40 324 162 359 212 359 c 257
 212 237 l 256
 183 237 165 210 165 181 c 256
 165 149 179 122 212 122 c 257
 212 0 l 256
 110 0 41 61 41 151 c 256
267 0 m 257
 267 122 l 256
 308 122 314 150 313 181 c 256
 312 208 309 237 267 237 c 257
 267 359 l 256
 363 359 436 276 436 224 c 258
 436 152 l 258
 437 89 376 0 267 0 c 257
353 484 m 257
 353 605 l 257
 515 605 597 456 597 355 c 257
 601 0 l 257
 475 0 l 257
 474 354 l 257
 473 417 422 484 353 484 c 257
41 226 m 257
 41 326 l 258
 41 427 120 605 299 605 c 257
 299 484 l 257
 234 484 172 427 172 327 c 256
 172 270 47 256 41 226 c 257
474 325 m 257
 474 440 480 605 653 605 c 257
 653 482 l 257
 604 482 597 470 597 326 c 257
 474 325 l 257
EndSplineSet
Validated: 37
PickledDataWithLists: "(dp1
S'com.fontlab.hintData'
p2
(dp3
S'vhints'
p4
(lp5
(dp6
S'position'
p7
L41L
sS'width'
p8
L171L
sa(dp9
g7
L41L
sg8
L131L
sa(dp10
g7
L41L
sg8
L124L
sa(dp11
g7
L313L
sg8
L123L
sa(dp12
g7
L762L
sg8
L122L
sa(dp13
g7
L1021L
sg8
L122L
sasS'hhints'
p14
(lp15
(dp16
g7
L0L
sg8
L122L
sa(dp17
g7
L237L
sg8
L123L
sa(dp18
g7
L484L
sg8
L121L
sass."
EndChar

StartChar: tml_ShI
Encoding: 145 -1 145
GlifName: tml_S_hI_
Width: 1145
VWidth: 0
GlyphClass: 2
Flags: HW
LayerCount: 2
Fore
SplineSet
40 168 m 258
 40 595 l 257
 162 595 l 256
 162 168 l 258
 162 138 175 124 202 124 c 257
 202 0 l 257
 181 0 l 258
 64 0 40 112 40 168 c 258
256 0 m 257
 256 124 l 257
 282 124 300 141 300 168 c 257
 300 582 l 257
 422 582 l 257
 422 168 l 257
 422 109 389 0 282 0 c 258
 256 0 l 257
546 168 m 258
 546 582 l 257
 668 582 l 256
 668 168 l 258
 668 138 681 124 708 124 c 257
 708 0 l 257
 686 0 l 258
 569 0 546 112 546 168 c 258
762 0 m 257
 762 124 l 257
 788 124 806 141 806 168 c 257
 806 582 l 257
 928 582 l 257
 928 168 l 257
 928 109 895 0 788 0 c 258
 762 0 l 257
664 592.289 m 257
 664 592.289 l 257
 664 696.289 706 812.289 855 812.289 c 256
 855 812.289 l 257
 855 690.289 l 256
 855 690.289 l 256
 804 690.289 787 653.289 787 592.289 c 256
 664 592.289 l 257
909 690.289 m 257
 909 812.289 l 257
 1060 812.289 1105 697.289 1105 594.289 c 258
 1105 -0.7109375 l 261
 983 -0.7109375 l 261
 983 591.289 l 258
 983 653.289 962 690.289 909 690.289 c 257
300 473 m 257
 300 595 l 257
 928 595 l 257
 928 473 l 257
 300 473 l 257
EndSplineSet
Validated: 5
EndChar

StartChar: tml_ShIi
Encoding: 146 -1 146
GlifName: tml_S_hI_i
Width: 1163
VWidth: 0
GlyphClass: 2
Flags: W
LayerCount: 2
Fore
SplineSet
933 826 m 257
 782 826 766 629 913 595 c 257
 806 502 l 257
 613 610 665 950 926 950 c 257
 1186 950 1178.69 618 969 618 c 256
 924 618 874 656 862 679 c 257
 938 770 l 256
 938 754 947 737 972 737 c 256
 995 737 1006 756 1006 777 c 256
 1006 792 990 826 933 826 c 257
40 168 m 258
 40 595 l 257
 162 595 l 256
 162 168 l 258
 162 138 175 124 202 124 c 257
 202 0 l 257
 181 0 l 258
 64 0 40 112 40 168 c 258
256 0 m 257
 256 124 l 257
 282 124 300 141 300 168 c 257
 300 582 l 257
 422 582 l 257
 422 168 l 257
 422 109 389 0 282 0 c 258
 256 0 l 257
546 168 m 258
 546 582 l 257
 668 582 l 256
 668 168 l 258
 668 138 681 124 708 124 c 257
 708 0 l 257
 686 0 l 258
 569 0 546 112 546 168 c 258
762 0 m 257
 762 124 l 257
 788 124 806 141 806 168 c 257
 806 582 l 257
 928 582 l 257
 928 168 l 257
 928 109 895 0 788 0 c 258
 762 0 l 257
300 473 m 257
 300 595 l 257
 928 595 l 257
 928 473 l 257
 300 473 l 257
EndSplineSet
Validated: 37
EndChar

StartChar: tml_ShU
Encoding: 147 -1 147
GlifName: tml_S_hU_
Width: 1334
VWidth: 0
GlyphClass: 2
Flags: W
LayerCount: 2
Fore
SplineSet
745 473.957 m 257
 745 594.957 l 257
 1087 594.957 l 258
 1197.94 593.633 1294 568.957 1294 435.957 c 258
 1294 425.957 l 258
 1294 321.957 1206 270.957 1151 270.957 c 258
 1122 270.957 l 258
 1053 270.957 982 340.957 982 425.957 c 257
 1104 425.957 l 256
 1104 405.957 1116 392.957 1138 392.957 c 256
 1161 392.957 1172 406.957 1172 424.957 c 256
 1172 462.957 1138.97 473.283 1083 473.957 c 258
 745 473.957 l 257
40 168 m 258
 40 595 l 257
 162 595 l 256
 162 168 l 258
 162 138 175 124 202 124 c 257
 202 0 l 257
 181 0 l 258
 64 0 40 112 40 168 c 258
256 0 m 257
 256 124 l 257
 282 124 300 141 300 168 c 257
 300 582 l 257
 422 582 l 257
 422 168 l 257
 422 109 389 0 282 0 c 258
 256 0 l 257
546 168 m 258
 546 582 l 257
 668 582 l 256
 668 168 l 258
 668 138 681 124 708 124 c 257
 708 0 l 257
 686 0 l 258
 569 0 546 112 546 168 c 258
762 0 m 257
 762 124 l 257
 788 124 806 141 806 168 c 257
 806 582 l 257
 928 582 l 257
 928 168 l 257
 928 109 895 0 788 0 c 258
 762 0 l 257
300 473 m 257
 300 595 l 257
 928 595 l 257
 928 473 l 257
 300 473 l 257
EndSplineSet
Validated: 5
EndChar

StartChar: tml_ShUu
Encoding: 148 -1 148
GlifName: tml_S_hU_u
Width: 1485
VWidth: 0
GlyphClass: 2
Flags: W
LayerCount: 2
Fore
SplineSet
804 473 m 257
 804 595 l 257
 1088 595 l 258
 1199 595 1295 572 1295 439 c 258
 1295 429 l 258
 1295 325 1207 274 1152 274 c 258
 1123 274 l 258
 1054 274 983 344 983 429 c 257
 1105 429 l 256
 1105 409 1117 396 1139 396 c 256
 1162 396 1173 410 1173 428 c 256
 1173 466 1140 473 1084 473 c 258
 804 473 l 257
983 591 m 256
 983 701 1080 792 1212 792 c 256
 1358 792 1445 700 1445 595 c 258
 1445 271 l 258
 1445 166 1371 121 1266 121 c 258
 1207 121 l 256
 1207 213 l 256
 1266 213 l 258
 1304 213 1322 236 1322 271 c 258
 1322 595 l 258
 1322 655 1251 670 1212 670 c 256
 1174 670 1105 657 1105 591 c 257
 983 591 l 256
40 168 m 258
 40 595 l 257
 162 595 l 256
 162 168 l 258
 162 138 175 124 202 124 c 257
 202 0 l 257
 181 0 l 258
 64 0 40 112 40 168 c 258
256 0 m 257
 256 124 l 257
 282 124 300 141 300 168 c 257
 300 582 l 257
 422 582 l 257
 422 168 l 257
 422 109 389 0 282 0 c 258
 256 0 l 257
546 168 m 258
 546 582 l 257
 668 582 l 256
 668 168 l 258
 668 138 681 124 708 124 c 257
 708 0 l 257
 686 0 l 258
 569 0 546 112 546 168 c 258
762 0 m 257
 762 124 l 257
 788 124 806 141 806 168 c 257
 806 582 l 257
 928 582 l 257
 928 168 l 257
 928 109 895 0 788 0 c 258
 762 0 l 257
300 473 m 257
 300 595 l 257
 928 595 l 257
 928 473 l 257
 300 473 l 257
EndSplineSet
Validated: 5
EndChar

StartChar: tml_Sha
Encoding: 149 2998 149
GlifName: tml_S_ha
Width: 985
VWidth: 0
GlyphClass: 2
Flags: HW
AnchorPoint: "tml_virama" 561 0 mark 0
LayerCount: 2
Fore
SplineSet
42 168 m 258
 42 595 l 257
 164 595 l 256
 164 168 l 258
 164 138 177 124 204 124 c 257
 204 0 l 257
 183 0 l 258
 66 0 42 112 42 168 c 258
258 0 m 257
 258 124 l 257
 284 124 302 141 302 168 c 257
 302 582 l 257
 424 582 l 257
 424 168 l 257
 424 109 391 0 284 0 c 258
 258 0 l 257
548 168 m 258
 548 582 l 257
 670 582 l 256
 670 168 l 258
 670 138 683 124 710 124 c 257
 710 0 l 257
 688 0 l 258
 571 0 548 112 548 168 c 258
764 0 m 257
 764 124 l 257
 790 124 808 141 808 168 c 257
 808 582 l 257
 930 582 l 257
 930 168 l 257
 930 109 897 0 790 0 c 258
 764 0 l 257
302 473 m 257
 302 595 l 257
 930 595 l 257
 930 473 l 257
 302 473 l 257
EndSplineSet
Validated: 5
EndChar

StartChar: tml_Shree
Encoding: 150 -1 150
GlifName: tml_S_hree
Width: 1208
VWidth: 0
GlyphClass: 2
Flags: HW
LayerCount: 2
Fore
SplineSet
40 -314 m 261
 40 -160.974609375 90.3935546875 -91 246 -91 c 260
 338 -91 742 -91 831 -91 c 260
 929 -91 929 -19 929 12 c 262
 929 447 l 258
 929 468 901 483 859 483 c 257
 822 483 794 468 794 446 c 258
 797 1 l 257
 674 0 l 257
 674 458 l 258
 674 472 661 482 635 482 c 257
 635 605 l 257
 681 605 711 596 735 575 c 257
 763 598 820 605 859 605 c 257
 1001 605 1050 529 1051 474 c 258
 1051 12 l 262
 1051 -102 988 -211 858 -213 c 262
 220 -213 l 262
 177.41796875 -213 162 -240.724609375 162 -314 c 261
 40 -314 l 261
798 516.656 m 257
 798 596 l 256
 724 755 795.394 943 998 943 c 256
 1226 943 1217.69 630 1019 630 c 256
 974 630 927 668 917 689 c 257
 988 772 l 256
 988 756 997 739 1022 739 c 256
 1045 739 1056 758 1056 779 c 256
 1056 794 1045 828 988 828 c 257
 916.677 827.57 847 753 922 594.727 c 256
 922 516.656 l 257
 798 516.656 l 257
428 1 m 257
 428 478 l 258
 428 528 469 605 581 605 c 257
 581 482 l 257
 556 482 552 470 552 457 c 258
 552 1 l 257
 428 1 l 257
79 107 m 257
 79 595 l 257
 201 595 l 257
 201 107 l 257
 79 107 l 257
79 1 m 257
 79 123 l 257
 281 123 l 257
 281 1 l 257
 79 1 l 257
337 1 m 257
 337 123 l 257
 538 123 l 257
 538 1 l 257
 337 1 l 257
EndSplineSet
Validated: 37
EndChar

StartChar: tml_Six
Encoding: 151 3052 151
GlifName: tml_S_ix
Width: 1078
VWidth: 0
GlyphClass: 2
Flags: W
LayerCount: 2
Fore
SplineSet
39 157 m 258
 39 218 l 258
 39 326 149 371 235 371 c 258
 1039 371 l 257
 1039 249 l 257
 238 249 l 258
 174 249 160 239 160 188 c 256
 160 127 180 122 269 122 c 257
 269 -1 l 257
 112 0 39 68 39 157 c 258
322 -1 m 257
 322 122 l 257
 388 122 419 141 419 187 c 258
 419 588 l 257
 541 588 l 257
 541 191 l 258
 541 95 489 -1 322 -1 c 257
164 348 m 257
 164 586 l 257
 287 586 l 257
 286 348 l 257
 164 348 l 257
164 470 m 257
 164 595 l 257
 327 595 l 257
 327 470 l 257
 164 470 l 257
381 470 m 257
 381 595 l 257
 688 595 l 257
 688 470 l 257
 381 470 l 257
655 2 m 257
 655 257 l 257
 778 257 l 257
 777 2 l 257
 655 2 l 257
860 2 m 257
 860 257 l 257
 983 257 l 257
 982 2 l 257
 860 2 l 257
EndSplineSet
Validated: 5
EndChar

StartChar: tml_SsI
Encoding: 152 -1 152
GlifName: tml_S_sI_
Width: 1430
VWidth: 0
GlyphClass: 2
Flags: HW
LayerCount: 2
Fore
SplineSet
877.006 485 m 257
 822.006 485 792.006 472 792.006 418 c 258
 792.006 340 l 258
 792.006 287 806.006 279 850.006 279 c 257
 850.006 158 l 257
 746.006 158 669.006 191 669.006 334 c 258
 669.006 433 l 258
 669.006 557 765.006 624 877.006 624 c 257
 993.006 624 1084.01 561 1084.01 413 c 258
 1084.01 158 l 257
 962.006 158 l 257
 962.006 413 l 258
 962.006 472 933.006 485 877.006 485 c 257
351.006 483 m 257
 351.006 605 l 257
 520.006 605 607.006 466 608.006 355 c 257
 608.006 123 l 257
 850.006 123 l 257
 850.006 0 l 257
 454.006 0 l 257
 454.006 123 l 257
 461.006 124 487.006 127 487.006 146 c 258
 487.006 354 l 257
 486.006 424 428.006 483 351.006 483 c 257
40.0059 151 m 258
 40.0059 220 l 258
 39.0059 324 162.006 359 212.006 359 c 257
 212.006 237 l 256
 183.006 237 165.006 218 165.006 181 c 256
 165.006 147 179.006 122 212.006 122 c 257
 212.006 0 l 256
 110.006 0 40.0059 91 40.0059 151 c 258
267.006 0 m 257
 267.006 122 l 257
 299.006 123 314.006 142 314.006 180 c 256
 314.006 218 298.006 237 267.006 237 c 257
 267.006 359 l 256
 363.006 359 436.006 276 436.006 224 c 258
 436.006 152 l 258
 437.006 89 376.006 0 267.006 0 c 257
833.006 606 m 257
 833.006 606 l 257
 833.006 710 885.006 847 1081.01 847 c 256
 1081.01 847 l 257
 1081.01 725 l 256
 1081.01 725 l 256
 980.006 725 956.006 667 956.006 606 c 256
 833.006 606 l 257
1135.01 725 m 257
 1135.01 847 l 257
 1342.01 847 1390.01 709 1390.01 606 c 258
 1390.00976562 -1 l 261
 1268.00976562 -1 l 261
 1268.01 606 l 258
 1268.01 672 1238.01 725 1135.01 725 c 257
40.0059 226 m 257
 40.0059 305 l 257
 40.0059 433 91.0059 605 301.006 605 c 257
 301.006 483 l 257
 237.006 483 178.006 439 176.006 354 c 256
 40.0059 226 l 257
962.006 123 m 257
 1084.01 123 l 257
 1084.01 -178 l 257
 962.006 -178 l 257
 962.006 123 l 257
903.006 1 m 257
 903.006 123 l 257
 1220.01 123 l 257
 1220.01 0 l 257
 903.006 1 l 257
903.006 158 m 257
 903.006 280 l 257
 1220.01 280 l 256
 1220.01 158 l 257
 903.006 158 l 257
1120.01 0 m 257
 1120.01 280 l 257
 1220.01 280 l 257
 1220.01 0 l 257
 1120.01 0 l 257
EndSplineSet
Validated: 37
EndChar

StartChar: tml_SsIi
Encoding: 153 -1 153
GlifName: tml_S_sI_i
Width: 1260
VWidth: 0
GlyphClass: 2
Flags: W
LayerCount: 2
Fore
SplineSet
877.006 485 m 257
 822.006 485 792.006 472 792.006 418 c 258
 792.006 340 l 258
 792.006 287 806.006 279 850.006 279 c 257
 850.006 158 l 257
 746.006 158 669.006 191 669.006 334 c 258
 669.006 433 l 258
 669.006 557 765.006 624 877.006 624 c 257
 993.006 624 1084.01 561 1084.01 413 c 258
 1084.01 158 l 257
 962.006 158 l 257
 962.006 413 l 258
 962.006 472 933.006 485 877.006 485 c 257
812 526.656 m 257
 812 606 l 256
 738 765 809.394 953 1012 953 c 256
 1240 953 1231.69 640 1033 640 c 256
 988 640 941 678 931 699 c 257
 1002 782 l 256
 1002 766 1011 749 1036 749 c 256
 1059 749 1070 768 1070 789 c 256
 1070 804 1059 838 1002 838 c 257
 930.677 837.57 861 763 936 604.727 c 256
 936 526.656 l 257
 812 526.656 l 257
351.006 483 m 257
 351.006 605 l 257
 520.006 605 607.006 466 608.006 355 c 257
 608.006 123 l 257
 850.006 123 l 257
 850.006 0 l 257
 454.006 0 l 257
 454.006 123 l 257
 461.006 124 487.006 127 487.006 146 c 258
 487.006 354 l 257
 486.006 424 428.006 483 351.006 483 c 257
40.0059 151 m 258
 40.0059 220 l 258
 39.0059 324 162.006 359 212.006 359 c 257
 212.006 237 l 256
 183.006 237 165.006 218 165.006 181 c 256
 165.006 147 179.006 122 212.006 122 c 257
 212.006 0 l 256
 110.006 0 40.0059 91 40.0059 151 c 258
267.006 0 m 257
 267.006 122 l 257
 299.006 123 314.006 142 314.006 180 c 256
 314.006 218 298.006 237 267.006 237 c 257
 267.006 359 l 256
 363.006 359 436.006 276 436.006 224 c 258
 436.006 152 l 258
 437.006 89 376.006 0 267.006 0 c 257
40.0059 226 m 257
 40.0059 305 l 257
 40.0059 433 91.0059 605 301.006 605 c 257
 301.006 483 l 257
 237.006 483 178.006 439 176.006 354 c 256
 40.0059 226 l 257
962.006 123 m 257
 1084.01 123 l 257
 1084.01 -178 l 257
 962.006 -178 l 257
 962.006 123 l 257
903.006 1 m 257
 903.006 123 l 257
 1220.01 123 l 257
 1220.01 0 l 257
 903.006 1 l 257
903.006 158 m 257
 903.006 280 l 257
 1220.01 280 l 256
 1220.01 158 l 257
 903.006 158 l 257
1120.01 0 m 257
 1120.01 280 l 257
 1220.01 280 l 257
 1220.01 0 l 257
 1120.01 0 l 257
EndSplineSet
Validated: 37
EndChar

StartChar: tml_SsU
Encoding: 154 -1 154
GlifName: tml_S_sU_
Width: 1516
VWidth: 0
GlyphClass: 2
Flags: W
LayerCount: 2
Fore
SplineSet
918.006 484.957 m 257
 918.006 606.957 l 257
 1269.01 606.957 l 258
 1379.94 605.633 1476.01 579.957 1476.01 446.957 c 258
 1476.01 436.957 l 258
 1476.01 332.957 1388.01 281.957 1333.01 281.957 c 258
 1304.01 281.957 l 258
 1235.01 281.957 1164.01 351.957 1164.01 436.957 c 257
 1286.01 436.957 l 256
 1286.01 416.957 1298.01 403.957 1320.01 403.957 c 256
 1343.01 403.957 1354.01 417.957 1354.01 435.957 c 256
 1354.01 473.957 1320.97 484.283 1265.01 484.957 c 258
 918.006 484.957 l 257
267.006 0 m 257
 267.006 122 l 257
 299.006 123 314.006 142 314.006 180 c 256
 314.006 218 298.006 237 267.006 237 c 257
 267.006 359 l 256
 363.006 359 436.006 276 436.006 224 c 258
 436.006 152 l 258
 437.006 89 376.006 0 267.006 0 c 257
40.0059 151 m 258
 40.0059 220 l 258
 39.0059 324 162.006 359 212.006 359 c 257
 212.006 237 l 256
 183.006 237 165.006 218 165.006 181 c 256
 165.006 147 179.006 122 212.006 122 c 257
 212.006 0 l 256
 110.006 0 40.0059 91 40.0059 151 c 258
40.0059 226 m 257
 40.0059 305 l 257
 40.0059 433 91.0059 605 301.006 605 c 257
 301.006 483 l 257
 237.006 483 178.006 439 176.006 354 c 256
 40.0059 226 l 257
351.006 483 m 257
 351.006 605 l 257
 520.006 605 607.006 466 608.006 355 c 257
 608.006 123 l 257
 850.006 123 l 257
 850.006 0 l 257
 454.006 0 l 257
 454.006 123 l 257
 461.006 124 487.006 127 487.006 146 c 258
 487.006 354 l 257
 486.006 424 428.006 483 351.006 483 c 257
903.006 485 m 257
 903.006 607 l 257
 1006.01 607 1084.01 561 1084.01 413 c 258
 1084.01 158 l 257
 962.006 158 l 257
 962.006 413 l 258
 962.006 486 942.006 485 903.006 485 c 257
962.006 123 m 257
 1084.01 123 l 257
 1084.01 -178 l 257
 962.006 -178 l 257
 962.006 123 l 257
903.006 158 m 257
 903.006 280 l 257
 1220.01 280 l 256
 1220.01 158 l 257
 903.006 158 l 257
669.006 334 m 258
 669.006 433 l 258
 669.006 570 746.006 607 850.006 607 c 257
 850.006 485 l 257
 805.006 485 792.006 463 792.006 424 c 258
 792.006 340 l 258
 792.006 287 806.006 279 850.006 279 c 257
 850.006 158 l 257
 746.006 158 669.006 191 669.006 334 c 258
1120.01 0 m 257
 1120.01 280 l 257
 1220.01 280 l 257
 1220.01 0 l 257
 1120.01 0 l 257
903.006 1 m 257
 903.006 123 l 257
 1220.01 123 l 257
 1220.01 0 l 257
 903.006 1 l 257
EndSplineSet
Validated: 37
EndChar

StartChar: tml_SsUu
Encoding: 155 -1 155
GlifName: tml_S_sU_u
Width: 1646
VWidth: 0
GlyphClass: 2
Flags: W
LayerCount: 2
Fore
SplineSet
904.006 486 m 257
 904.006 608 l 257
 1249.01 608 l 258
 1360.01 608 1456.01 585 1456.01 452 c 258
 1456.01 442 l 258
 1456.01 338 1368.01 287 1313.01 287 c 258
 1284.01 287 l 258
 1215.01 287 1144.01 357 1144.01 442 c 257
 1266.01 442 l 256
 1266.01 422 1278.01 409 1300.01 409 c 256
 1323.01 409 1334.01 423 1334.01 441 c 256
 1334.01 479 1301.01 486 1245.01 486 c 258
 904.006 486 l 257
1144.01 604 m 256
 1144.01 714 1241.01 805 1373.01 805 c 256
 1519.01 805 1606.01 713 1606.01 608 c 258
 1606.01 284 l 258
 1606.01 179 1532.01 134 1427.01 134 c 258
 1368.01 134 l 256
 1368.01 226 l 256
 1427.01 226 l 258
 1465.01 226 1483.01 249 1483.01 284 c 258
 1483.01 608 l 258
 1483.01 668 1412.01 683 1373.01 683 c 256
 1335.01 683 1266.01 670 1266.01 604 c 257
 1144.01 604 l 256
351.006 483 m 257
 351.006 605 l 257
 520.006 605 607.006 466 608.006 355 c 257
 608.006 123 l 257
 850.006 123 l 257
 850.006 0 l 257
 454.006 0 l 257
 454.006 123 l 257
 461.006 124 487.006 127 487.006 146 c 258
 487.006 354 l 257
 486.006 424 428.006 483 351.006 483 c 257
669.006 334 m 258
 669.006 433 l 258
 669.006 570 746.006 607 850.006 607 c 257
 850.006 485 l 257
 805.006 485 792.006 463 792.006 424 c 258
 792.006 340 l 258
 792.006 287 806.006 279 850.006 279 c 257
 850.006 158 l 257
 746.006 158 669.006 191 669.006 334 c 258
40.0059 151 m 258
 40.0059 220 l 258
 39.0059 324 162.006 359 212.006 359 c 257
 212.006 237 l 256
 183.006 237 165.006 218 165.006 181 c 256
 165.006 147 179.006 122 212.006 122 c 257
 212.006 0 l 256
 110.006 0 40.0059 91 40.0059 151 c 258
267.006 0 m 257
 267.006 122 l 257
 299.006 123 314.006 142 314.006 180 c 256
 314.006 218 298.006 237 267.006 237 c 257
 267.006 359 l 256
 363.006 359 436.006 276 436.006 224 c 258
 436.006 152 l 258
 437.006 89 376.006 0 267.006 0 c 257
903.006 485 m 257
 903.006 607 l 257
 1006.01 607 1084.01 561 1084.01 413 c 258
 1084.01 158 l 257
 962.006 158 l 257
 962.006 413 l 258
 962.006 486 942.006 485 903.006 485 c 257
40.0059 226 m 257
 40.0059 305 l 257
 40.0059 433 91.0059 605 301.006 605 c 257
 301.006 483 l 257
 237.006 483 178.006 439 176.006 354 c 256
 40.0059 226 l 257
962.006 123 m 257
 1084.01 123 l 257
 1084.01 -178 l 257
 962.006 -178 l 257
 962.006 123 l 257
903.006 1 m 257
 903.006 123 l 257
 1220.01 123 l 257
 1220.01 0 l 257
 903.006 1 l 257
903.006 158 m 257
 903.006 280 l 257
 1220.01 280 l 256
 1220.01 158 l 257
 903.006 158 l 257
1120.01 0 m 257
 1120.01 280 l 257
 1220.01 280 l 257
 1220.01 0 l 257
 1120.01 0 l 257
EndSplineSet
Validated: 37
EndChar

StartChar: tml_Ssa
Encoding: 156 2999 156
GlifName: tml_S_sa
Width: 1258
VWidth: 0
GlyphClass: 2
Flags: HW
HStem: 0 123<454 454 608 850 1120 1220 1120 1120> 237 123 483 122<269 301 351 389.5>
VStem: 40 172<0 220 0 220 237 305 305 359> 40 125<164 199.5 164 220 164 220 164 305 164 369> 314 122<161 199> 487 121<146 354 354 354> 669 123<334 340 340 424 313.5 433 313.5 501.5> 962 122<-178 123 -178 123 158 413>
AnchorPoint: "tml_virama" 621 0 basechar 0
LayerCount: 2
Fore
SplineSet
267 0 m 257
 267 122 l 257
 299 123 314 142 314 180 c 256
 314 218 298 237 267 237 c 257
 267 359 l 256
 363 359 436 276 436 224 c 258
 436 152 l 258
 437 89 376 0 267 0 c 257
40 151 m 258
 40 220 l 258
 39 324 162 359 212 359 c 257
 212 237 l 256
 183 237 165 218 165 181 c 256
 165 147 179 122 212 122 c 257
 212 0 l 256
 110 0 40 91 40 151 c 258
40 226 m 257
 40 305 l 257
 40 433 91 605 301 605 c 257
 301 483 l 257
 237 483 178 439 176 354 c 256
 40 226 l 257
351 483 m 257
 351 605 l 257
 520 605 607 466 608 355 c 257
 608 123 l 257
 850 123 l 257
 850 0 l 257
 454 0 l 257
 454 123 l 257
 461 124 487 127 487 146 c 258
 487 354 l 257
 486 424 428 483 351 483 c 257
903 485 m 257
 903 607 l 257
 1006 607 1084 561 1084 413 c 258
 1084 158 l 257
 962 158 l 257
 962 413 l 258
 962 486 942 485 903 485 c 257
962 123 m 257
 1084 123 l 257
 1084 -178 l 257
 962 -178 l 257
 962 123 l 257
903 158 m 257
 903 280 l 257
 1220 280 l 256
 1220 158 l 257
 903 158 l 257
669 334 m 258
 669 433 l 258
 669 570 746 607 850 607 c 257
 850 485 l 257
 805 485 792 463 792 424 c 258
 792 340 l 258
 792 287 806 279 850 279 c 257
 850 158 l 257
 746 158 669 191 669 334 c 258
1120 0 m 257
 1120 280 l 257
 1220 280 l 257
 1220 0 l 257
 1120 0 l 257
903 1 m 257
 903 123 l 257
 1220 123 l 257
 1220 0 l 257
 903 1 l 257
EndSplineSet
Validated: 37
PickledDataWithLists: "(dp1
S'com.fontlab.hintData'
p2
(dp3
S'vhints'
p4
(lp5
(dp6
S'position'
p7
L40L
sS'width'
p8
L172L
sa(dp9
g7
L40L
sg8
L125L
sa(dp10
g7
L314L
sg8
L122L
sa(dp11
g7
L487L
sg8
L121L
sa(dp12
g7
L669L
sg8
L123L
sa(dp13
g7
L962L
sg8
L122L
sasS'hhints'
p14
(lp15
(dp16
g7
L0L
sg8
L123L
sa(dp17
g7
L237L
sg8
L123L
sa(dp18
g7
L483L
sg8
L122L
sass."
EndChar

StartChar: tml_TI
Encoding: 157 -1 157
GlifName: tml_T_I_
Width: 949
VWidth: 0
GlyphClass: 2
Flags: HW
LayerCount: 2
Fore
SplineSet
685 690 m 257
 685 812 l 257
 860 812 909 697 909 594 c 258
 909 2 l 261
 787 2 l 261
 787 591 l 258
 787 650 759 690 685 690 c 257
420 592 m 257
 420 592 l 257
 420 696 458 812 631 812 c 256
 631 812 l 257
 631 690 l 256
 631 690 l 256
 559 690 543 653 543 592 c 256
 420 592 l 257
EndSplineSet
Refer: 163 2980 N 1 0 0 1 1 0 2
Validated: 5
EndChar

StartChar: tml_TI.alt
Encoding: 158 -1 158
GlifName: tml_T_I_.alt
Width: 972
VWidth: 0
GlyphClass: 2
Flags: HW
LayerCount: 2
Fore
SplineSet
445.328 855 m 257
 445.328 855 l 257
 445.328 733 l 256
 445.328 733 l 257
 277.328 721 102.328 663 188.328 365 c 257
 89.3281 272 l 257
 -64.6719 650 166.328 857 445.328 855 c 257
499.328 733 m 257
 499.328 855 l 257
 699.328 855 931.328 751 932.328 429 c 258
 932.328125 0 l 261
 810.328125 0 l 261
 810.328 426 l 258
 810.328 697 601.328 733 499.328 733 c 257
EndSplineSet
Refer: 163 2980 N 1 0 0 1 24.3286 0 2
Validated: 37
EndChar

StartChar: tml_TIi
Encoding: 159 -1 159
GlifName: tml_T_I_i
Width: 830
VWidth: 0
GlyphClass: 2
Flags: HW
LayerCount: 2
Fore
SplineSet
420 477.656 m 257
 420 596 l 256
 346 755 417.394 943 620 943 c 256
 848 943 839.69 630 641 630 c 256
 596 630 549 668 539 689 c 257
 610 772 l 256
 610 756 619 739 644 739 c 256
 667 739 678 758 678 779 c 256
 678 794 667 828 610 828 c 257
 538.677 827.57 470 753 545 594.727 c 256
 545 477.656 l 257
 420 477.656 l 257
EndSplineSet
Refer: 163 2980 N 1 0 0 1 1 0 2
Validated: 37
EndChar

StartChar: tml_TIi.alt
Encoding: 160 -1 160
GlifName: tml_T_I_i.alt
Width: 825
VWidth: 0
GlyphClass: 2
Flags: HW
LayerCount: 2
Fore
SplineSet
96.0264 272 m 257
 -36.626 599.51 87.7305 819.068 246.026 905 c 256
 351.026 962 442.026 981 579.026 965 c 257
 704.026 950 782.883 870.044 785.026 775 c 256
 786.689 701.283 736.026 619 651.026 619 c 256
 606.026 619 566.026 628 530.026 670 c 257
 584.026 768 l 256
 584.026 752 593.026 735 618.026 735 c 256
 641.026 735 652.026 754 652.026 775 c 256
 652.026 790 644.028 818.043 589.026 833 c 256
 475.026 864 369.132 827.391 306.026 796 c 256
 172.683 729.671 129.51 592.023 195.026 365 c 257
 96.0264 272 l 257
EndSplineSet
Refer: 163 2980 N 1 0 0 1 30.0261 0 2
Validated: 37
EndChar

StartChar: tml_TU
Encoding: 161 -1 161
GlifName: tml_T_U_
Width: 944
VWidth: 0
GlyphClass: 2
Flags: HW
HStem: -258 94<189 356 189 410 410 568 568 569> -121 277<621 743 621 905> -121 93<170 783 190 783 190 905> 2 123<235 275 235 275 329 366 235 414> 252 122<245 248 248 574> 351 23<245 296>
VStem: 49 121<108.5 230 210 221 221 230 210 275> 621 122<210 233> 783 122<-28 582 -121 582>
LayerCount: 2
Fore
SplineSet
410 -306 m 257
 410 -212 l 257
 568 -212 l 258
 602 -212 619.694343975 -189.998846581 620 -109 c 258
 621 156 l 257
 743 156 l 257
 743 -109 l 258
 743 -252 722 -306 569 -306 c 258
 410 -306 l 257
39 -154 m 258
 39 -86 102 -56 190 -56 c 258
 783 -56 l 257
 783 582 l 256
 905 582 l 256
 905 -149 l 257
 190 -149 l 258
 150 -149 151 -212 189 -212 c 258
 356 -212 l 257
 356 -306 l 257
 189 -305 l 258
 156 -305 40 -302 39 -207 c 258
 39 -154 l 258
49 155 m 257
 172 155 l 257
 179 118 195 125 275 125 c 257
 275 2 l 257
 108 2 49 62 49 155 c 257
245 374 m 258
 574 374 l 257
 659 374 743 346 743 210 c 257
 621 210 l 256
 621 256 616 252 574 252 c 257
 248 252 l 258
 191 252 170 250 170 210 c 257
 49 210 l 257
 49 221 l 258
 49 329 160 374 245 374 c 258
329 2 m 257
 329 125 l 257
 403 125 429 144 429 190 c 258
 429 591 l 257
 551 591 l 257
 551 194 l 258
 551 103 499 2 329 2 c 257
174 351 m 257
 174 589 l 257
 297 589 l 257
 296 351 l 257
 174 351 l 257
389 473 m 257
 389 595 l 257
 683 595 l 257
 683 473 l 257
 389 473 l 257
174 473 m 257
 174 595 l 257
 335 595 l 257
 335 473 l 257
 174 473 l 257
EndSplineSet
Validated: 37
PickledDataWithLists: "(dp1
S'com.fontlab.hintData'
p2
(dp3
S'vhints'
p4
(lp5
(dp6
S'position'
p7
L49L
sS'width'
p8
L121L
sa(dp9
g7
L621L
sg8
L122L
sa(dp10
g7
L783L
sg8
L122L
sasS'hhints'
p11
(lp12
(dp13
g7
L-258L
sg8
L94L
sa(dp14
g7
L-121L
sg8
L277L
sa(dp15
g7
L-121L
sg8
L93L
sa(dp16
g7
L2L
sg8
L123L
sa(dp17
g7
L252L
sg8
L122L
sa(dp18
g7
L351L
sg8
L23L
sass."
EndChar

StartChar: tml_TUu
Encoding: 162 -1 162
GlifName: tml_T_U_u
Width: 1312
VWidth: 0
GlyphClass: 2
Flags: HW
HStem: -200 122<178.5 331 249 331 249 331 249 385 385 466 466 469> 0 21<291 291 291 413 671 671> 111 122<407 508 508 509 407 508> 495 122<547.5 609.5 587 609.5 587 610> 693 123<332 333 333 473>
VStem: 39 123 291 122<0 592 592 592> 407 6<111 233 233 233> 549 124 632 122<640 650 650 660 598 668>
LayerCount: 2
Fore
SplineSet
1067 -119 m 261
 1067 593 l 261
 1189 593 l 261
 1189 -119 l 261
 1067 -119 l 261
1016 473 m 261
 1016 595 l 261
 1273 595 l 261
 1273 473 l 261
 1016 473 l 261
783 473 m 261
 783 595 l 261
 962 595 l 261
 962 473 l 261
 783 473 l 261
EndSplineSet
Refer: 161 -1 S 1 0 0 1 0 0 2
Validated: 5
PickledDataWithLists: "(dp1
S'com.fontlab.hintData'
p2
(dp3
S'vhints'
p4
(lp5
(dp6
S'position'
p7
L39L
sS'width'
p8
L123L
sa(dp9
g7
L291L
sg8
L122L
sa(dp10
g7
L407L
sg8
L6L
sa(dp11
g7
L549L
sg8
L124L
sa(dp12
g7
L632L
sg8
L122L
sasS'hhints'
p13
(lp14
(dp15
g7
L-200L
sg8
L122L
sa(dp16
g7
L0L
sg8
L21L
sa(dp17
g7
L111L
sg8
L122L
sa(dp18
g7
L495L
sg8
L122L
sa(dp19
g7
L693L
sg8
L123L
sass."
EndChar

StartChar: tml_Ta
Encoding: 163 2980 163
GlifName: tml_T_a
Width: 790
VWidth: 0
GlyphClass: 2
Flags: HW
HStem: -158 122<291.5 559 329 559 559 560> 2 123<232.5 269 232.5 269 322 355 232.5 405.5> 251 123<576 597> 351 23<235 286>
VStem: 39 123<110.5 157 157 272> 130 128<-256 -218 -256 -181.5> 611 122<151 151 205 205>
AnchorPoint: "tml_virama" 351 0 basechar 0
LayerCount: 2
Fore
SplineSet
50 -306 m 257
 50 -157 113 -86 249 -86 c 258
 559 -86 l 258
 608 -86 610 -56 610 -26 c 258
 611 151 l 257
 733 151 l 257
 733 -26 l 258
 733 -92 713 -208 560 -208 c 258
 232 -208 l 258
 191 -208 178 -230 178 -306 c 257
 50 -306 l 257
39 157 m 257
 162 157 l 257
 169 120 196 125 269 125 c 257
 269 2 l 257
 109 2 39 64 39 157 c 257
39 212 m 257
 39 332 138 374 235 374 c 258
 564 374 l 257
 655 374 733 352 733 205 c 257
 611 205 l 256
 611 205 618 251 576 251 c 257
 238 252 l 258
 181 252 160 252 160 212 c 257
 39 212 l 257
322 2 m 257
 322 125 l 257
 388 125 419 144 419 190 c 258
 419 591 l 257
 541 591 l 257
 541 194 l 258
 541 98 489 2 322 2 c 257
164 351 m 257
 164 589 l 257
 287 589 l 257
 286 351 l 257
 164 351 l 257
380 473 m 257
 380 595 l 257
 673 595 l 257
 673 473 l 257
 380 473 l 257
164 473 m 257
 164 595 l 257
 326 595 l 257
 326 473 l 257
 164 473 l 257
EndSplineSet
Validated: 37
PickledDataWithLists: "(dp1
S'com.fontlab.hintData'
p2
(dp3
S'vhints'
p4
(lp5
(dp6
S'position'
p7
L39L
sS'width'
p8
L123L
sa(dp9
g7
L130L
sg8
L128L
sa(dp10
g7
L611L
sg8
L122L
sasS'hhints'
p11
(lp12
(dp13
g7
L-158L
sg8
L122L
sa(dp14
g7
L2L
sg8
L123L
sa(dp15
g7
L251L
sg8
L123L
sa(dp16
g7
L351L
sg8
L23L
sass."
EndChar

